<svg width="102" height="13" viewBox="0 0 102 13" fill="none" xmlns="http://www.w3.org/2000/svg">
<g clip-path="url(#clip0_741_4278)">
<path d="M7.9 6.29999L3.9 9.5L0 12.6V6.29999V0L3.9 3.20001L7.9 6.29999Z" fill="#52243E"/>
<path d="M7.9 6.29999L3.9 9.5L0 12.6V6.29999V0L3.9 3.20001L7.9 6.29999Z" fill="black" fill-opacity="0.2"/>
<path d="M31.1998 6.29999L27.1998 9.5L23.2998 12.6V6.29999V0L27.1998 3.20001L31.1998 6.29999Z" fill="#52243E"/>
<path d="M31.1998 6.29999L27.1998 9.5L23.2998 12.6V6.29999V0L27.1998 3.20001L31.1998 6.29999Z" fill="black" fill-opacity="0.2"/>
<path d="M54.4996 6.29999L50.5996 9.5L46.5996 12.6V6.29999V0L50.5996 3.20001L54.4996 6.29999Z" fill="#52243E"/>
<path d="M54.4996 6.29999L50.5996 9.5L46.5996 12.6V6.29999V0L50.5996 3.20001L54.4996 6.29999Z" fill="black" fill-opacity="0.2"/>
<path d="M77.8004 6.29999L73.9004 9.5L69.9004 12.6V6.29999V0L73.9004 3.20001L77.8004 6.29999Z" fill="#52243E"/>
<path d="M77.8004 6.29999L73.9004 9.5L69.9004 12.6V6.29999V0L73.9004 3.20001L77.8004 6.29999Z" fill="black" fill-opacity="0.2"/>
<path d="M101.2 6.29999L97.2002 9.5L93.2002 12.6V6.29999V0L97.2002 3.20001L101.2 6.29999Z" fill="#52243E"/>
<path d="M101.2 6.29999L97.2002 9.5L93.2002 12.6V6.29999V0L97.2002 3.20001L101.2 6.29999Z" fill="black" fill-opacity="0.2"/>
</g>
<defs>
<clipPath id="clip0_741_4278">
<rect width="102" height="13" fill="white"/>
</clipPath>
</defs>
</svg>
