<svg width="28" height="37" viewBox="0 0 28 37" fill="none" xmlns="http://www.w3.org/2000/svg">
<path d="M8.45296 0.238281H2.95235C1.32429 0.238281 0 1.56266 0 3.19063V33.3818C0 35.0098 1.32438 36.3341 2.95235 36.3341H25.0473C26.6754 36.3341 27.9996 35.0098 27.9996 33.3818L28 3.19063C28 1.56257 26.6756 0.238281 25.0477 0.238281H19.547C19.0799 2.87751 16.771 4.88905 14.0001 4.88905C11.2287 4.88941 8.91949 2.8776 8.45278 0.238281H8.45296ZM19.2062 32.3496H8.79308C8.2497 32.3496 7.8089 31.9088 7.8089 31.3654C7.8089 30.822 8.24965 30.3812 8.79308 30.3812H19.2062C19.7496 30.3812 20.1904 30.8219 20.1904 31.3654C20.1904 31.9088 19.7496 32.3496 19.2062 32.3496ZM10.2696 26.0638C10.2696 25.5204 10.7104 25.0796 11.2538 25.0796H16.7459C17.2893 25.0796 17.7301 25.5204 17.7301 26.0638C17.7301 26.6072 17.2894 27.048 16.7459 27.048H11.2538C10.7104 27.048 10.2696 26.6072 10.2696 26.0638ZM14.0487 6.70058C16.128 6.70058 17.8197 8.39297 17.8197 10.4733C17.8197 11.9674 16.9469 13.2612 15.6847 13.8721C18.3778 14.6246 20.3622 17.1323 20.3622 20.1034V21.4731C20.3622 22.0165 19.9214 22.4573 19.378 22.4573H8.62113C8.07775 22.4573 7.63696 22.0166 7.63696 21.4731V20.1034C7.63696 17.1092 9.65228 14.5845 12.377 13.8538C11.1339 13.2363 10.2773 11.9534 10.2773 10.4733C10.2773 8.39297 11.9689 6.70058 14.0482 6.70058H14.0487Z" fill="#6A3052"/>
</svg>
