<svg width="32" height="37" viewBox="0 0 32 37" fill="none" xmlns="http://www.w3.org/2000/svg">
<path d="M29.6687 0H2.33154C1.04137 0 0 1.04137 0 2.33154V21.6253C0 22.9081 1.04137 23.9568 2.33154 23.9568H14.5978L7.28792 35.0445C7.05884 35.3929 7.15463 35.8609 7.50276 36.09C7.8498 36.3177 8.31839 36.2228 8.54799 35.8757L15.2438 25.7185V35.4602C15.2438 35.8774 15.5815 36.2148 15.9984 36.2148C16.4152 36.2148 16.753 35.8774 16.753 35.4602L16.7527 25.7178L23.4485 35.875C23.5936 36.0945 23.8339 36.2139 24.0794 36.2139C24.222 36.2139 24.3659 36.1734 24.4937 36.0893C24.8419 35.8603 24.9377 35.3922 24.7086 35.0438L17.3987 23.9561H29.6685C30.9513 23.9561 32 22.9073 32 21.6246V2.33154C32 1.04109 30.9512 0 29.6685 0H29.6687ZM6.84931 19.3343C6.84931 19.7514 6.51158 20.0889 6.09472 20.0889C5.67789 20.0889 5.34012 19.7515 5.34012 19.3343V4.62077C5.34012 4.20366 5.67785 3.86617 6.09472 3.86617C6.51154 3.86617 6.84931 4.20363 6.84931 4.62077V19.3343ZM13.4515 19.3343C13.4515 19.7514 13.1138 20.0889 12.6969 20.0889C12.28 20.0889 11.9423 19.7515 11.9423 19.3343V10.6568C11.9423 10.2397 12.28 9.90224 12.6969 9.90224C13.1138 9.90224 13.4515 10.2397 13.4515 10.6568V19.3343ZM20.0537 19.3343C20.0537 19.7514 19.716 20.0889 19.2991 20.0889C18.8823 20.0889 18.5445 19.7515 18.5445 19.3343V7.63915C18.5445 7.22205 18.8822 6.88455 19.2991 6.88455C19.7159 6.88455 20.0537 7.22201 20.0537 7.63915V19.3343ZM26.6559 19.3343C26.6559 19.7514 26.3182 20.0889 25.9013 20.0889C25.4845 20.0889 25.1467 19.7515 25.1467 19.3343V12.9207C25.1467 12.5036 25.4844 12.1661 25.9013 12.1661C26.3181 12.1661 26.6559 12.5036 26.6559 12.9207V19.3343Z" fill="#6A3051"/>
</svg>
