<svg width="35" height="35" viewBox="0 0 35 35" fill="none" xmlns="http://www.w3.org/2000/svg">
<path fill-rule="evenodd" clip-rule="evenodd" d="M33.2303 8.65399C31.7683 8.65399 31.0345 10.4252 32.0685 11.4589C32.2589 11.6493 32.2589 11.9584 32.0685 12.1488L31.0187 13.1986C30.8283 13.389 30.5192 13.389 30.3288 13.1986C29.2951 12.1649 27.5239 12.8985 27.5239 14.3604C27.5239 14.6298 27.3057 14.848 27.0363 14.848H25.5514C25.282 14.848 25.0639 14.6298 25.0639 14.3604C25.0639 12.8966 23.2939 12.1636 22.2589 13.1986C22.0685 13.389 21.7595 13.389 21.5691 13.1986L20.5192 12.1488C20.3288 11.9584 20.3288 11.6493 20.5192 11.4589C21.5529 10.4252 20.8194 8.65399 19.3575 8.65399C19.0881 8.65399 18.8699 8.43582 18.8699 8.16641V6.68155C18.8699 6.41214 19.0881 6.19397 19.3575 6.19397C20.8194 6.19397 21.5532 4.42274 20.5192 3.38904C20.3288 3.19865 20.3288 2.88959 20.5192 2.6992L21.5691 1.64934C21.7595 1.45895 22.0685 1.45895 22.2589 1.64934C23.2926 2.68305 25.0639 1.9495 25.0639 0.487579C25.0639 0.218173 25.282 0 25.5514 0H27.0363C27.3057 0 27.5239 0.218173 27.5239 0.487579C27.5239 1.94952 29.2951 2.68332 30.3288 1.64934C30.5192 1.45895 30.8283 1.45895 31.0187 1.64934L32.0685 2.6992C32.2589 2.88959 32.2589 3.19865 32.0685 3.38904C31.0348 4.42274 31.7683 6.19397 33.2303 6.19397C33.4997 6.19397 33.7178 6.41214 33.7178 6.68155V8.16641C33.7178 8.43528 33.4997 8.65399 33.2303 8.65399ZM18.2664 19.1677C18.6091 19.1677 18.8866 18.89 18.8866 18.5475V16.6592C18.8866 16.3169 18.6091 16.0389 18.2664 16.0389C16.4066 16.0389 15.4736 13.786 16.7888 12.4713C17.0307 12.2294 17.0307 11.8362 16.7888 11.5943L15.4533 10.2589C15.2114 10.017 14.8182 10.017 14.5764 10.2589C13.2614 11.5738 11.0088 10.6407 11.0088 8.78076C11.0088 8.438 10.731 8.1605 10.3885 8.1605H8.4997C8.15748 8.1605 7.87944 8.43799 7.87944 8.78076C7.87944 10.6405 5.62653 11.5735 4.31185 10.2589C4.06994 10.017 3.67675 10.017 3.43486 10.2589L2.09836 11.5938C1.85646 11.8357 1.85646 12.2289 2.09836 12.4708C3.41332 13.7857 2.48022 16.0383 0.620262 16.0383C0.277504 16.0383 0 16.3161 0 16.6586V18.5469C0 18.8891 0.277497 19.1672 0.620262 19.1672C2.48 19.1672 3.41304 21.4201 2.09836 22.7348C1.85646 22.9767 1.85646 23.3699 2.09836 23.6118L3.43382 24.9472C3.67573 25.1891 4.06892 25.1891 4.31081 24.9472C5.62736 23.6307 7.8784 24.5629 7.8784 26.4253C7.8784 26.7681 8.15617 27.0456 8.49866 27.0456H10.3875C10.7297 27.0456 11.0077 26.7681 11.0077 26.4253C11.0077 24.5656 13.2606 23.6325 14.5753 24.9472C14.8172 25.1891 15.2104 25.1891 15.4523 24.9472L16.7878 23.6118C17.0297 23.3699 17.0297 22.9767 16.7878 22.7348C15.4739 21.4206 16.4067 19.1677 18.2664 19.1677H18.2664ZM13.7843 17.6033C13.7843 20.0008 11.8407 21.9446 9.44299 21.9446C7.04531 21.9446 5.10169 20.0011 5.10169 17.6033C5.10169 15.2056 7.04524 13.262 9.44299 13.262C11.8409 13.2623 13.7843 15.2059 13.7843 17.6033ZM34.3513 28.3387C32.7791 28.3387 31.9903 30.2435 33.1016 31.355C33.3063 31.5597 33.3063 31.892 33.1016 32.0969L31.9725 33.226C31.7678 33.431 31.4355 33.431 31.2306 33.226C30.1187 32.1144 28.2143 32.9029 28.2143 34.4757C28.2143 34.7654 27.9794 35 27.69 35H26.0932C25.8036 35 25.569 34.7651 25.569 34.4757C25.569 32.9016 23.6659 32.1131 22.5527 33.226C22.3477 33.431 22.0157 33.431 21.8108 33.226L20.6817 32.0969C20.477 31.892 20.477 31.56 20.6817 31.355C21.7933 30.2434 21.0047 28.3387 19.4319 28.3387C19.1423 28.3387 18.9077 28.1038 18.9077 27.8144V26.2177C18.9077 25.928 19.1426 25.6934 19.4319 25.6934C21.0041 25.6934 21.793 23.7887 20.6817 22.6771C20.477 22.4724 20.477 22.1402 20.6817 21.9352L21.8108 20.8061C22.0155 20.6014 22.3477 20.6014 22.5527 20.8061C23.6643 21.918 25.569 21.1292 25.569 19.5564C25.569 19.2667 25.8039 19.0321 26.0932 19.0321H27.69C27.9796 19.0321 28.2143 19.267 28.2143 19.5564C28.2143 21.1286 30.119 21.9174 31.2306 20.8061C31.4353 20.6014 31.7675 20.6014 31.9725 20.8061L33.1016 21.9352C33.3063 22.1399 33.3063 22.4721 33.1016 22.6771C31.9899 23.7889 32.7785 25.6934 34.3513 25.6934C34.6412 25.6934 34.8756 25.9283 34.8756 26.2177V27.8144C34.8758 28.1038 34.6412 28.3387 34.3513 28.3387ZM30.1481 27.0159C30.1481 25.2174 28.6902 23.7596 26.8917 23.7596C25.0932 23.7596 23.6353 25.2174 23.6353 27.0159C23.6353 28.8144 25.0932 30.2723 26.8917 30.2723C28.6902 30.2726 30.1481 28.8142 30.1481 27.0159ZM29.2226 7.42374C29.2226 5.80591 27.9114 4.49475 26.2936 4.49475C24.6757 4.49475 23.3646 5.80591 23.3646 7.42374C23.3646 9.04102 24.6757 10.3527 26.2936 10.3527C27.9114 10.3527 29.2226 9.04157 29.2226 7.42374Z" fill="#6A3052"/>
</svg>
