<svg width="26" height="38" viewBox="0 0 26 38" fill="none" xmlns="http://www.w3.org/2000/svg">
<path d="M23.5278 0H2.47235C1.11658 0 0 1.11658 0 2.47235V28.034C0 29.3898 1.11658 30.5063 2.47235 30.5063H3.94775C4.18698 25.7211 8.17472 21.8927 13 21.8927C17.8651 21.8927 21.8529 25.7211 22.0522 30.5063H23.5277C24.8834 30.5063 26 29.3898 26 28.034V2.47235C26 1.11658 24.8834 0 23.5277 0H23.5278ZM20.2179 17.945H5.7822C5.18415 17.945 4.70543 17.4665 4.70543 16.8682C4.70543 16.2702 5.18388 15.7914 5.7822 15.7914H20.2578C20.8559 15.7914 21.3346 16.2699 21.3346 16.8682C21.2945 17.4665 20.8161 17.945 20.2177 17.945H20.2179ZM20.2179 12.5613H5.7822C5.18415 12.5613 4.70543 12.0829 4.70543 11.4846C4.70543 10.8865 5.18388 10.4078 5.7822 10.4078H20.2578C20.8559 10.4078 21.3346 10.8863 21.3346 11.4846C21.2945 12.1227 20.8161 12.5613 20.2177 12.5613H20.2179ZM20.2179 7.2178H5.7822C5.18415 7.2178 4.70543 6.73935 4.70543 6.14103C4.70543 5.54298 5.18388 5.06426 5.7822 5.06426H20.2578C20.8559 5.06426 21.3346 5.54271 21.3346 6.14103C21.2945 6.73936 20.8161 7.2178 20.2177 7.2178H20.2179Z" fill="#6A3051"/>
<path d="M13.0003 24.0063C9.17192 24.0063 6.06152 27.1168 6.06152 30.9451C6.06152 34.7735 9.17199 37.8839 13.0003 37.8839C16.8287 37.8839 19.9391 34.7735 19.9391 30.9451C19.9391 27.1168 16.8287 24.0063 13.0003 24.0063ZM16.1505 30.267L12.8009 33.6167C12.6014 33.8161 12.3224 33.9357 12.0431 33.9357C11.7638 33.9357 11.4848 33.8161 11.2854 33.6167L9.6105 31.9418C9.17183 31.5031 9.17183 30.8252 9.6105 30.4264C10.0492 29.9877 10.7271 29.9877 11.1259 30.4264L12.043 31.3435L14.635 28.7516C15.0736 28.3129 15.7515 28.3129 16.1504 28.7516C16.589 29.1505 16.589 29.8284 16.1504 30.267H16.1505Z" fill="#6A3051"/>
</svg>
