<svg width="18" height="136" viewBox="0 0 18 136" fill="none" xmlns="http://www.w3.org/2000/svg">
<g clip-path="url(#clip0_670_26164)">
<path d="M8.97471 10.534L4.71158 5.20136L0.581687 0.00199594L8.97836 0.00490423L17.375 0.0078125L13.1082 5.20427L8.97471 10.534Z" fill="#E9D3E0"/>
<path d="M4.81568 5.11813L0.857838 0.135372L8.97831 0.138184L17.0932 0.140995L13.0052 5.11969L13.0052 5.11965L13.0029 5.12259L8.97312 10.3186L4.81594 5.11846L4.81568 5.11813Z" stroke="#E9D3E0" stroke-width="0.266561"/>
<path d="M8.9669 41.5887L4.70376 36.256L0.573875 31.0567L8.97054 31.0596L17.3672 31.0625L13.1004 36.259L8.9669 41.5887Z" fill="#E9D3E0"/>
<path d="M4.80787 36.1728L0.850026 31.1901L8.9705 31.1929L17.0854 31.1957L12.9974 36.1744L12.9974 36.1743L12.9951 36.1773L8.96531 41.3733L4.80813 36.1731L4.80787 36.1728Z" stroke="#E9D3E0" stroke-width="0.266561"/>
<path d="M8.95127 72.6434L4.68809 67.444L0.55825 62.1114L8.95492 62.1143L17.3516 62.1172L13.0847 67.4469L8.95127 72.6434Z" fill="#E9D3E0"/>
<path d="M4.79233 67.3609L0.830117 62.2447L8.95487 62.2476L17.0742 62.2504L12.9807 67.3636L12.9804 67.364L8.9497 72.4313L4.79233 67.3609Z" stroke="#E9D3E0" stroke-width="0.266561"/>
<path d="M8.94346 103.698L4.68028 98.4987L0.550437 93.1661L8.94711 93.169L17.3438 93.1719L13.0769 98.5016L8.94346 103.698Z" fill="#E9D3E0"/>
<path d="M4.78453 98.4156L0.822304 93.2994L8.94706 93.3022L17.0664 93.3051L12.9729 98.4183L12.9726 98.4186L8.94189 103.486L4.78453 98.4156Z" stroke="#E9D3E0" stroke-width="0.266561"/>
<path d="M8.9356 134.886L4.67247 129.553L0.542625 124.221L8.93929 124.224L17.3359 124.227L13.0691 129.556L8.9356 134.886Z" fill="#E9D3E0"/>
<path d="M4.77657 129.47L0.814492 124.354L8.93925 124.357L17.0586 124.36L12.9651 129.473L12.9651 129.473L12.9638 129.475L8.93401 134.67L4.77719 129.471L4.77657 129.47Z" stroke="#E9D3E0" stroke-width="0.266561"/>
</g>
<defs>
<clipPath id="clip0_670_26164">
<rect width="135.946" height="17.3264" fill="white" transform="translate(17.375 0.0078125) rotate(90.0198)"/>
</clipPath>
</defs>
</svg>
