<svg width="18" height="10" viewBox="0 0 18 10" fill="none" xmlns="http://www.w3.org/2000/svg">
<g clip-path="url(#clip0_20_111)">
<path fill-rule="evenodd" clip-rule="evenodd" d="M1.05883 0.926014C1.11689 0.867747 1.18589 0.821516 1.26186 0.789971C1.33783 0.758426 1.41928 0.742188 1.50153 0.742188C1.58379 0.742188 1.66524 0.758426 1.74121 0.789971C1.81718 0.821516 1.88618 0.867747 1.94424 0.926014L9.00153 7.98435L16.0588 0.926014C16.1762 0.8086 16.3355 0.742638 16.5015 0.742638C16.6676 0.742638 16.8268 0.8086 16.9442 0.926014C17.0617 1.04343 17.1276 1.20267 17.1276 1.36872C17.1276 1.53477 17.0617 1.69402 16.9442 1.81143L9.44424 9.31143C9.38618 9.3697 9.31718 9.41593 9.24121 9.44747C9.16524 9.47902 9.08379 9.49526 9.00153 9.49526C8.91928 9.49526 8.83783 9.47902 8.76186 9.44747C8.68589 9.41593 8.61689 9.3697 8.55883 9.31143L1.05883 1.81143C1.00056 1.75337 0.954328 1.68437 0.922783 1.6084C0.891238 1.53243 0.875 1.45098 0.875 1.36872C0.875 1.28646 0.891238 1.20501 0.922783 1.12904C0.954328 1.05307 1.00056 0.984078 1.05883 0.926014Z" fill="#6A3051"/>
</g>
<defs>
<clipPath id="clip0_20_111">
<rect width="18" height="10" fill="white"/>
</clipPath>
</defs>
</svg>
