<svg width="29" height="29" viewBox="0 0 29 29" fill="none" xmlns="http://www.w3.org/2000/svg">
<path d="M29 14.5001C29 6.49199 22.5081 0.000123978 14.5 0.000123978C6.49187 0.000123978 0 6.49199 0 14.5001C0 21.7375 5.30244 27.7362 12.2344 28.824V18.6915H8.55273V14.5001H12.2344V11.3056C12.2344 7.67153 14.3991 5.66419 17.7112 5.66419C19.2977 5.66419 20.957 5.94739 20.957 5.94739V9.51575H19.1286C17.3274 9.51575 16.7656 10.6335 16.7656 11.7802V14.5001H20.7871L20.1442 18.6915H16.7656V28.824C23.6976 27.7362 29 21.7375 29 14.5001Z" fill="#6A3051"/>
<path d="M20.1442 18.6914L20.7871 14.5H16.7656V11.78C16.7656 10.6333 17.3274 9.51562 19.1286 9.51562H20.957V5.94727C20.957 5.94727 19.2977 5.66406 17.7112 5.66406C14.3991 5.66406 12.2344 7.67141 12.2344 11.3055V14.5H8.55273V18.6914H12.2344V28.8238C12.9726 28.9397 13.7292 29 14.5 29C15.2708 29 16.0274 28.9397 16.7656 28.8238V18.6914H20.1442Z" fill="#D4A7C1"/>
</svg>
