<svg width="40" height="30" viewBox="0 0 40 30" fill="none" xmlns="http://www.w3.org/2000/svg">
<path d="M3.75 0C2.75544 0 1.80161 0.395087 1.09835 1.09835C0.395088 1.80161 0 2.75544 0 3.75V26.25C0 27.2446 0.395088 28.1984 1.09835 28.9016C1.80161 29.6049 2.75544 30 3.75 30H36.25C37.2446 30 38.1984 29.6049 38.9016 28.9016C39.6049 28.1984 40 27.2446 40 26.25V3.75C40 2.75544 39.6049 1.80161 38.9016 1.09835C38.1984 0.395087 37.2446 0 36.25 0H3.75ZM36.25 2.5C36.5815 2.5 36.8995 2.6317 37.1339 2.86612C37.3683 3.10054 37.5 3.41848 37.5 3.75V18.75L28.0625 13.8812C27.8281 13.7641 27.5627 13.7236 27.304 13.7655C27.0453 13.8074 26.8063 13.9295 26.6208 14.1146L17.3458 23.3896L10.6958 18.9604C10.4558 18.8005 10.1679 18.7284 9.88083 18.7565C9.59377 18.7846 9.32527 18.9111 9.12083 19.1146L2.50625 25V26.35C2.50284 26.3168 2.50076 26.2834 2.5 26.25V3.75C2.5 3.58585 2.53233 3.4233 2.59515 3.27165C2.65797 3.11999 2.75004 2.98219 2.86612 2.86612C2.98219 2.75004 3.11999 2.65797 3.27165 2.59515C3.4233 2.53233 3.58585 2.5 3.75 2.5H36.25Z" fill="#6A3051"/>
</svg>
