<svg width="203" height="203" viewBox="0 0 203 203" fill="none" xmlns="http://www.w3.org/2000/svg">
<path d="M69.1996 86.2202C69.6029 84.4532 70.5943 82.8754 72.0113 81.7454C73.4284 80.6154 75.1872 80.0001 76.9996 80.0002H125C126.812 80.0001 128.571 80.6154 129.988 81.7454C131.405 82.8754 132.396 84.4532 132.8 86.2202L101 105.654L69.1996 86.2202ZM68.9996 90.7869V119.204L92.213 104.97L68.9996 90.7869ZM96.0463 107.32L69.7663 123.427C70.4155 124.796 71.4399 125.952 72.7204 126.762C74.0008 127.571 75.4847 128.001 76.9996 128H125C126.515 128.001 127.999 127.571 129.28 126.761C130.56 125.95 131.585 124.793 132.233 123.424L105.953 107.317L101 110.344L96.0463 107.317V107.32ZM109.79 104.977L133 119.2V90.7869L109.79 104.97V104.977Z" fill="#6A3051"/>
<path d="M98.7986 176.798L98.2044 188.784L95.4577 188.647L96.052 176.662L98.7986 176.798ZM96.7221 190.913C97.1882 190.936 97.5715 191.114 97.8721 191.445C98.1561 191.777 98.2865 192.175 98.2634 192.641C98.2403 193.107 98.0711 193.491 97.7557 193.793C97.4238 194.093 97.0248 194.232 96.5587 194.209C96.0759 194.185 95.6926 194.007 95.4086 193.676C95.1247 193.345 94.9943 192.946 95.0174 192.48C95.0405 192.014 95.2097 191.631 95.525 191.329C95.8403 191.028 96.2393 190.889 96.7221 190.913Z" fill="#6A3051"/>
<path d="M80.3511 173.976L78.6996 180.701C78.5088 181.478 78.6027 182.179 78.9812 182.804C79.3436 183.425 79.9132 183.831 80.6901 184.022C81.2081 184.149 81.6972 184.149 82.1575 184.022C82.6178 183.894 83.0109 183.656 83.3369 183.307C83.6628 182.958 83.8894 182.525 84.0166 182.007L84.9175 182.846C84.6989 183.736 84.3119 184.473 83.7565 185.058C83.1971 185.658 82.5298 186.069 81.7546 186.291C80.9593 186.525 80.1327 186.536 79.2748 186.326C78.4008 186.111 77.6795 185.694 77.111 185.073C76.5385 184.469 76.1455 183.764 75.9319 182.956C75.7144 182.165 75.699 181.389 75.8858 180.628L77.6804 173.32L80.3511 173.976ZM88.3388 175.937L85.477 187.591L82.8063 186.935L85.6681 175.282L88.3388 175.937Z" fill="#6A3051"/>
<path d="M69.254 169.845L63.1795 181.985C62.7693 182.805 62.2288 183.438 61.5578 183.885C60.872 184.324 60.1191 184.563 59.2992 184.6C58.4644 184.629 57.6222 184.432 56.7726 184.006C56.1168 183.678 55.6138 183.287 55.2636 182.832C54.9134 182.377 54.6415 181.841 54.4479 181.222L56.8296 180.429C56.9189 180.697 57.0418 180.936 57.1983 181.144C57.3548 181.353 57.5969 181.54 57.9249 181.704C58.5211 182.002 59.0651 182.069 59.5571 181.905C60.0267 181.749 60.4107 181.373 60.709 180.777L66.7947 168.614L69.254 169.845ZM67.5741 179.627L66.4554 181.863L58.1832 177.724L59.3019 175.488L67.5741 179.627Z" fill="#6A3051"/>
<path d="M53.1623 159.418C54.0595 160.164 54.6976 161.052 55.0767 162.082C55.445 163.125 55.5435 164.193 55.372 165.286C55.1878 166.368 54.7228 167.358 53.9771 168.255C53.2313 169.152 52.3487 169.784 51.3291 170.15C50.2967 170.506 49.2395 170.591 48.1573 170.407C47.0645 170.236 46.0695 169.777 45.1723 169.031C44.2623 168.275 43.6177 167.382 43.2387 166.351C42.8597 165.321 42.7623 164.265 42.9466 163.183C43.1074 162.103 43.5606 161.114 44.3063 160.217C45.0521 159.32 45.9465 158.687 46.9895 158.319C48.0197 157.94 49.0812 157.836 50.174 158.007C51.2562 158.192 52.2522 158.662 53.1623 159.418ZM51.4684 161.456C50.9429 161.019 50.3856 160.751 49.7965 160.652C49.1839 160.554 48.5929 160.627 48.0235 160.868C47.4412 161.1 46.9263 161.484 46.4789 162.023C46.0315 162.561 45.7526 163.131 45.6424 163.733C45.5322 164.335 45.5799 164.916 45.7855 165.477C45.9804 166.051 46.3407 166.557 46.8662 166.993C47.3789 167.419 47.9415 167.681 48.5541 167.779C49.1432 167.878 49.7235 167.819 50.2951 167.6C50.8539 167.371 51.3571 166.988 51.8045 166.449C52.2519 165.911 52.5425 165.34 52.6762 164.736C52.797 164.121 52.76 163.527 52.565 162.953C52.3466 162.381 51.9811 161.882 51.4684 161.456Z" fill="#6A3051"/>
<path d="M36.9607 145.425C37.3167 145.948 37.5136 146.52 37.5514 147.139C37.5754 147.767 37.4537 148.374 37.1861 148.959C36.8954 149.539 36.4674 150.022 35.9022 150.406C35.3232 150.799 34.7173 151.019 34.0844 151.067C33.4283 151.109 32.8126 151.004 32.2371 150.75C31.6617 150.496 31.196 150.107 30.84 149.584C30.3904 148.922 30.1883 148.283 30.2337 147.668C30.256 147.049 30.5911 146.519 31.239 146.078L33.555 144.505C34.1891 144.074 34.8005 143.951 35.3892 144.135C35.9779 144.319 36.5018 144.749 36.9607 145.425ZM35.3256 146.354C35.0352 145.927 34.6679 145.683 34.2236 145.622C33.7561 145.557 33.3018 145.674 32.8607 145.974C32.4057 146.283 32.1294 146.662 32.0317 147.111C31.9246 147.547 32.0162 147.978 32.3066 148.406C32.5876 148.819 32.9618 149.059 33.4293 149.124C33.883 149.198 34.3304 149.086 34.7715 148.786C35.2127 148.486 35.489 148.107 35.6005 147.649C35.6982 147.199 35.6066 146.768 35.3256 146.354ZM35.6845 143.813L34.113 144.881L32.511 145.637L31.2594 146.82L29.812 147.804L28.7301 146.211L34.6027 142.221L35.6845 143.813ZM35.3489 141.14L35.7673 139.042C36.7032 139.293 37.5714 139.71 38.3716 140.295C39.1625 140.866 39.8577 141.592 40.4572 142.475C41.1035 143.426 41.5354 144.432 41.7528 145.493C41.9701 146.555 41.9863 147.601 41.8013 148.634C41.6024 149.676 41.2066 150.65 40.6136 151.557C40.0207 152.463 39.2417 153.245 38.2767 153.9C37.298 154.565 36.2779 155.007 35.2166 155.224C34.146 155.427 33.085 155.423 32.0338 155.21C30.9826 154.998 29.9989 154.588 29.0829 153.981C28.1669 153.375 27.381 152.589 26.7254 151.624C25.8449 150.328 25.3616 148.994 25.2755 147.622C25.1801 146.236 25.4551 144.921 26.1005 143.676C26.7366 142.418 27.7163 141.339 29.0397 140.44C29.6325 140.037 30.2192 139.729 30.7997 139.516C31.3572 139.298 31.9316 139.18 32.5232 139.161L33.7819 141.147C33.3795 141.118 32.9845 141.144 32.5969 141.226C32.2093 141.308 31.8176 141.444 31.4217 141.632C31.0026 141.816 30.5725 142.058 30.1314 142.358C29.0837 143.069 28.3279 143.855 27.864 144.714C27.3769 145.569 27.1861 146.475 27.2916 147.431C27.3833 148.396 27.7711 149.382 28.4549 150.388C29.1574 151.422 29.9731 152.178 30.9018 152.655C31.8305 153.132 32.8145 153.32 33.8537 153.218C34.8836 153.103 35.9292 152.684 36.9907 151.963C38.0246 151.261 38.7895 150.459 39.2854 149.558C39.7582 148.652 39.9532 147.693 39.8703 146.682C39.7736 145.679 39.3927 144.689 38.7277 143.71C38.2593 143.021 37.7482 142.461 37.1943 142.032C36.6266 141.612 36.0115 141.314 35.3489 141.14ZM33.7313 144.052L31.0757 140.144L32.5232 139.161L35.1787 143.069L33.7313 144.052Z" fill="#6A3051"/>
<path d="M28.3202 122.431L21.7526 124.627C20.9939 124.88 20.4515 125.334 20.1253 125.988C19.7939 126.626 19.755 127.324 20.0087 128.083C20.1778 128.589 20.4391 129.002 20.7925 129.323C21.1459 129.645 21.5572 129.85 22.0264 129.939C22.4955 130.028 22.983 129.988 23.4888 129.819L23.2607 131.029C22.3913 131.32 21.5613 131.386 20.7706 131.229C19.9641 131.077 19.2601 130.732 18.6588 130.195C18.0364 129.648 17.5851 128.955 17.305 128.117C17.0196 127.264 16.9556 126.441 17.1129 125.651C17.2703 124.86 17.6254 124.161 18.1783 123.555C18.7153 122.953 19.4264 122.505 20.3115 122.209L27.4482 119.823L28.3202 122.431ZM30.9285 130.231L13.8575 135.939L12.9854 133.331L30.0564 127.623L30.9285 130.231Z" fill="#6A3051"/>
<path d="M25.7707 107.058C25.857 108.221 25.6611 109.297 25.1829 110.285C24.688 111.274 23.9879 112.087 23.0824 112.722C22.1757 113.341 21.1406 113.693 19.9771 113.78C18.8137 113.866 17.7462 113.669 16.7747 113.19C15.802 112.694 15.0063 111.992 14.3875 111.086C13.7521 110.18 13.3913 109.146 13.305 107.982C13.2174 106.802 13.4128 105.718 13.891 104.73C14.3692 103.742 15.0617 102.939 15.9684 102.32C16.8572 101.686 17.8834 101.325 19.0469 101.239C20.2103 101.153 21.2867 101.357 22.276 101.852C23.2641 102.33 24.0759 103.022 24.7113 103.927C25.33 104.834 25.6832 105.878 25.7707 107.058ZM23.128 107.254C23.0774 106.572 22.8835 105.985 22.5461 105.492C22.1908 104.983 21.7285 104.608 21.159 104.366C20.5883 104.108 19.9539 104.005 19.2559 104.056C18.5578 104.108 17.9539 104.303 17.4442 104.642C16.9345 104.981 16.5492 105.419 16.2883 105.956C16.0107 106.495 15.8972 107.105 15.9477 107.786C15.997 108.451 16.1993 109.038 16.5546 109.546C16.892 110.039 17.3377 110.416 17.8918 110.675C18.4446 110.919 19.0701 111.014 19.7682 110.962C20.4662 110.911 21.079 110.723 21.6066 110.4C22.1329 110.06 22.5348 109.621 22.8124 109.082C23.0721 108.528 23.1773 107.919 23.128 107.254Z" fill="#6A3051"/>
<path d="M25.0809 93.2666L13.385 90.5824L14.0001 87.9021L25.6961 90.5863L25.0809 93.2666ZM26.8648 85.4937L19.896 83.8944C19.1163 83.7154 18.4593 83.8211 17.9251 84.2115C17.3747 84.5982 17.0174 85.1489 16.8534 85.8637C16.7416 86.351 16.7384 86.812 16.8438 87.2466C16.953 87.6649 17.1683 88.0307 17.4898 88.3439C17.7949 88.6533 18.2074 88.8677 18.7273 88.987L17.902 89.9005C17.0086 89.6955 16.2817 89.3234 15.7214 88.7845C15.1611 88.2455 14.7787 87.602 14.5742 86.8539C14.3534 86.1022 14.3381 85.312 14.5282 84.4836C14.7183 83.6551 15.0685 82.9489 15.5787 82.3649C16.089 81.7809 16.7137 81.3685 17.453 81.1278C18.1922 80.887 19.0167 80.8711 19.9264 81.0798L27.48 82.8134L26.8648 85.4937ZM28.6487 77.7208L21.6799 76.1214C20.9002 75.9425 20.2432 76.0482 19.709 76.4386C19.1586 76.8253 18.8014 77.376 18.6373 78.0907C18.5292 78.5618 18.5279 79.0147 18.6333 79.4493C18.7388 79.8839 18.9522 80.2578 19.2737 80.5709C19.5788 80.8804 19.9913 81.0947 20.5112 81.214L19.5796 82.5906C18.7048 82.3043 17.9929 81.8673 17.4438 81.2796C16.8947 80.6918 16.5197 80.0158 16.3189 79.2516C16.1056 78.4673 16.094 77.661 16.2841 76.8325C16.478 75.9878 16.8319 75.2653 17.3459 74.6651C17.8598 74.0648 18.4883 73.6362 19.2313 73.3792C19.9743 73.1222 20.8006 73.0981 21.7103 73.3069L29.2639 75.0405L28.6487 77.7208Z" fill="#6A3051"/>
<path d="M35.5259 63.4277C34.9308 64.4698 34.162 65.2783 33.2195 65.8533C32.2708 66.4055 31.2435 66.6921 30.1375 66.7131C29.0398 66.7196 27.9772 66.4294 26.9496 65.8426C25.922 65.2558 25.1393 64.4922 24.6016 63.5518C24.0494 62.603 23.7659 61.5871 23.7511 60.5038C23.7446 59.4061 24.0264 58.358 24.5967 57.3593C25.1505 56.3896 25.8624 55.6638 26.7326 55.1819C27.611 54.6855 28.5609 54.4506 29.5821 54.4772C30.6116 54.4893 31.6257 54.7805 32.6243 55.3508C32.798 55.45 32.9706 55.5677 33.1422 55.7041C33.3077 55.8178 33.4865 55.9583 33.6788 56.1257L28.7943 64.6793L26.8404 63.5635L31.0183 56.2474L31.2916 57.5838C30.6382 57.2491 30.0325 57.0663 29.4743 57.0354C28.9161 57.0046 28.4056 57.1257 27.9426 57.3987C27.4878 57.6572 27.0952 58.0759 26.7646 58.6549C26.4175 59.2627 26.2461 59.8654 26.2504 60.4628C26.2547 61.0603 26.4254 61.6184 26.7625 62.1371C27.0851 62.6477 27.5721 63.0889 28.2234 63.4608C28.8747 63.8327 29.5207 64.0289 30.1616 64.0494C30.8024 64.0699 31.3967 63.9199 31.9444 63.5993C32.4777 63.2704 32.922 62.7948 33.2774 62.1725C33.5832 61.637 33.7701 61.0912 33.8382 60.5351C33.9145 59.9645 33.8627 59.4167 33.6827 58.8917L36.0919 58.2522C36.396 59.0976 36.4934 59.9689 36.3841 60.8662C36.2748 61.7634 35.9887 62.6172 35.5259 63.4277Z" fill="#6A3051"/>
<path d="M47.0292 48.1934C46.3928 48.853 45.6878 49.3077 44.9143 49.5573C44.1288 49.7953 43.3456 49.827 42.5645 49.6524C41.795 49.4658 41.0984 49.0716 40.4747 48.4698L37.9919 46.0743C37.3682 45.4726 36.9552 44.7845 36.7527 44.0102C36.5503 43.2359 36.5599 42.4578 36.7817 41.6759C36.9914 40.8824 37.4087 40.1618 38.0336 39.5141C38.7858 38.7345 39.6667 38.2296 40.6763 37.9993C41.6854 37.7455 42.7054 37.7685 43.7362 38.0683C44.7667 38.3446 45.7077 38.8935 46.5592 39.7151C47.3988 40.5252 47.9811 41.446 48.306 42.4774C48.6305 43.4853 48.684 44.498 48.4665 45.5156C48.2605 46.5212 47.7814 47.4138 47.0292 48.1934ZM44.8457 46.7119C45.3086 46.2322 45.6057 45.7082 45.737 45.1401C45.8678 44.5484 45.8337 43.9597 45.6346 43.3739C45.4471 42.7761 45.0955 42.2284 44.5797 41.7308C44.064 41.2332 43.5041 40.9014 42.9 40.7354C42.3074 40.5574 41.7238 40.5502 41.1492 40.7137C40.5741 40.8536 40.0552 41.1635 39.5923 41.6433C39.1294 42.123 38.8325 42.6587 38.7017 43.2504C38.5588 43.8306 38.5869 44.4135 38.786 44.9993C38.9851 45.5851 39.3425 46.1268 39.8582 46.6244C40.374 47.122 40.9281 47.4598 41.5207 47.6378C42.1132 47.8158 42.7028 47.8288 43.2894 47.6769C43.864 47.5133 44.3828 47.1917 44.8457 46.7119ZM45.9864 56.1152L33.7524 44.3115L35.6619 42.3324L37.9827 44.5717L39.7579 46.9444L42.1747 48.6162L47.8959 54.1362L45.9864 56.1152Z" fill="#6A3051"/>
<path d="M56.6072 39.4671L50.0934 29.3888L52.403 27.8961L58.9168 37.9743L56.6072 39.4671ZM55.2935 32.3683L54.2378 32.4851C53.4146 31.2113 53.0296 30.0015 53.0828 28.8558C53.1411 27.687 53.7441 26.7317 54.8919 25.9898C55.3958 25.6642 55.9095 25.4611 56.4331 25.3807C56.9566 25.3003 57.5245 25.35 58.1368 25.5298L57.6293 28.0606C57.3207 27.9822 57.0272 27.9734 56.749 28.0342C56.4707 28.0949 56.1846 28.2203 55.8907 28.4103C55.2468 28.8265 54.8461 29.3732 54.6885 30.0505C54.5309 30.7279 54.7326 31.5005 55.2935 32.3683Z" fill="#6A3051"/>
<path d="M75.2391 29.9805C74.1122 30.3927 73.0031 30.5143 71.9121 30.3455C70.831 30.1553 69.8612 29.7114 69.0026 29.0139C68.1598 28.3106 67.5351 27.4033 67.1286 26.292C66.7222 25.1807 66.6169 24.0923 66.8128 23.0268C67.003 21.9457 67.4419 20.9866 68.1295 20.1494C68.8328 19.3066 69.7245 18.6876 70.8045 18.2926C71.8532 17.909 72.8654 17.8138 73.8412 18.0071C74.8326 18.1946 75.7098 18.628 76.4729 19.3072C77.2516 19.9807 77.8385 20.8574 78.2336 21.9375C78.3023 22.1253 78.3582 22.3267 78.4013 22.5416C78.4543 22.7352 78.5003 22.9579 78.5392 23.2099L69.2886 26.5934L68.5157 24.4803L76.4281 21.5863L75.7746 22.7836C75.4914 22.1063 75.1465 21.5759 74.74 21.1922C74.3334 20.8085 73.8652 20.5715 73.3353 20.4814C72.8211 20.3855 72.251 20.4521 71.6249 20.6811C70.9675 20.9216 70.4477 21.2714 70.0655 21.7306C69.6833 22.1898 69.4536 22.7264 69.3765 23.3402C69.2936 23.9385 69.381 24.5897 69.6386 25.2941C69.8962 25.9985 70.2632 26.5652 70.7396 26.9944C71.216 27.4235 71.7669 27.6923 72.3922 27.8008C73.0118 27.8936 73.6581 27.8169 74.3311 27.5707C74.9103 27.3589 75.4053 27.0625 75.8161 26.6815C76.2425 26.2949 76.5564 25.8429 76.7576 25.3256L79.0108 26.3915C78.6977 27.2336 78.21 27.9622 77.5476 28.5771C76.8852 29.1921 76.1157 29.6598 75.2391 29.9805Z" fill="#6A3051"/>
<path d="M95.6375 25.313L94.8884 18.4286C94.8019 17.6333 94.4739 17.0068 93.9043 16.5491C93.3514 16.0895 92.6773 15.903 91.882 15.9895C91.3517 16.0472 90.8922 16.2146 90.5032 16.4916C90.1142 16.7687 89.8262 17.1269 89.6394 17.5664C89.4525 18.0058 89.3879 18.4907 89.4456 19.0209L88.312 18.5407C88.2128 17.6294 88.3242 16.8042 88.6461 16.065C88.9663 15.3093 89.4526 14.6947 90.1053 14.2213C90.7727 13.7296 91.5454 13.436 92.4236 13.3404C93.3183 13.2431 94.1388 13.3885 94.8852 13.7767C95.6298 14.1483 96.2406 14.677 96.7175 15.3628C97.1927 16.032 97.4727 16.756 97.5574 17.5347L98.3714 25.0155L95.6375 25.313ZM87.4608 26.2027L86.1627 14.2731L88.8966 13.9756L90.1946 25.9052L87.4608 26.2027Z" fill="#6A3051"/>
<path d="M111.293 26.1053C110.104 25.9451 109.066 25.5362 108.179 24.8786C107.311 24.2067 106.66 23.3622 106.225 22.3451C105.807 21.3301 105.676 20.2363 105.834 19.0636C105.992 17.8908 106.406 16.8787 107.076 16.0271C107.748 15.159 108.583 14.5147 109.581 14.0942C110.596 13.676 111.673 13.5436 112.813 13.6971C113.92 13.8461 114.86 14.2334 115.633 14.8589C116.423 15.4867 116.998 16.2788 117.356 17.2352C117.732 18.1939 117.843 19.2431 117.689 20.3828C117.663 20.581 117.618 20.7853 117.556 20.9955C117.513 21.1915 117.45 21.4101 117.367 21.6512L107.605 20.3363L107.906 18.1065L116.255 19.2311L115.119 19.9862C115.184 19.255 115.126 18.6249 114.945 18.096C114.764 17.5671 114.46 17.1394 114.033 16.8128C113.623 16.4885 113.087 16.2818 112.426 16.1928C111.733 16.0994 111.11 16.1668 110.558 16.3952C110.006 16.6235 109.553 16.9913 109.198 17.4986C108.846 17.9893 108.62 18.6064 108.52 19.3496C108.42 20.0929 108.481 20.7654 108.703 21.367C108.924 21.9687 109.286 22.4631 109.789 22.8504C110.294 23.2211 110.902 23.4543 111.612 23.55C112.223 23.6323 112.799 23.6006 113.34 23.4548C113.898 23.3113 114.386 23.0575 114.805 22.6935L116.302 24.6862C115.633 25.2856 114.862 25.703 113.99 25.9387C113.117 26.1743 112.218 26.2298 111.293 26.1053Z" fill="#6A3051"/>
<path d="M128.372 30.5059C127.424 30.1385 126.659 29.6004 126.075 28.8917C125.508 28.1891 125.156 27.3912 125.019 26.4982C124.904 25.5956 125.033 24.6626 125.407 23.6991L127.928 17.1956L130.492 18.1894L128.016 24.5764C127.805 25.1204 127.71 25.6197 127.73 26.0744C127.772 26.5197 127.925 26.9096 128.189 27.2441C128.468 27.5847 128.848 27.8483 129.33 28.035C130.076 28.3242 130.727 28.3265 131.285 28.0419C131.863 27.7479 132.312 27.189 132.632 26.3654L135.107 19.9784L137.671 20.9722L135.151 27.4758C134.771 28.4548 134.227 29.236 133.518 29.8193C132.831 30.3931 132.041 30.7482 131.148 30.8847C130.261 31.0056 129.336 30.8794 128.372 30.5059Z" fill="#6A3051"/>
<path d="M139.764 35.639L146.405 25.6446L148.696 27.1667L142.054 37.1611L139.764 35.639ZM145.748 31.6017L145.22 30.6803C146.059 29.4171 147.015 28.5813 148.087 28.173C149.182 27.76 150.298 27.9317 151.437 28.6881C151.936 29.0202 152.328 29.4102 152.61 29.8582C152.893 30.3061 153.074 30.8467 153.153 31.4799L150.63 32.0244C150.579 31.7101 150.47 31.4376 150.303 31.2067C150.137 30.9758 149.907 30.7635 149.616 30.5698C148.977 30.1455 148.316 29.9962 147.632 30.122C146.948 30.2478 146.32 30.7411 145.748 31.6017Z" fill="#6A3051"/>
<path d="M155.509 48.5221C154.766 47.7329 154.293 46.8282 154.088 45.808C153.895 44.7998 153.962 43.7879 154.288 42.7721C154.637 41.757 155.237 40.8498 156.087 40.0505C156.949 39.2398 157.891 38.6969 158.913 38.4217C159.959 38.1472 160.979 38.1372 161.974 38.3917C162.992 38.6469 163.872 39.1691 164.614 39.9583C165.242 40.626 165.65 41.3518 165.838 42.1358C166.05 42.9205 166.05 43.6986 165.838 44.4703C165.625 45.242 165.203 45.9247 164.572 46.5185L162.059 48.8821C161.428 49.4758 160.72 49.855 159.937 50.0197C159.165 50.1965 158.388 50.1608 157.606 49.9128C156.836 49.6534 156.137 49.1898 155.509 48.5221ZM157.711 47.0686C158.407 47.8092 159.216 48.17 160.136 48.1511C161.068 48.1443 161.922 47.7755 162.699 47.0447C163.221 46.5537 163.585 46.0166 163.792 45.4334C163.998 44.8502 164.034 44.2676 163.899 43.6857C163.787 43.1046 163.497 42.5651 163.028 42.0673C162.572 41.5817 162.051 41.2592 161.466 41.0998C160.905 40.9411 160.322 40.9409 159.715 41.0992C159.121 41.2696 158.562 41.6003 158.04 42.0913C157.518 42.5823 157.154 43.1194 156.947 43.7026C156.752 44.2979 156.711 44.8862 156.823 45.4673C156.958 46.0492 157.254 46.583 157.711 47.0686ZM158.208 51.0278L160.558 48.8184L163.014 47.1604L164.801 44.8276L166.95 42.8066L168.834 44.8098L160.093 53.0311L158.208 51.0278Z" fill="#6A3051"/>
<path d="M166.521 62.3846L174.993 52.6122L176.294 55.1477L170.017 62.0234L169.606 61.2786L178.84 60.1075L179.571 61.5309L173.237 68.3513L172.871 67.5836L182.117 66.4906L183.418 69.0261L170.539 70.2135L169.809 68.7901L175.709 62.1085L176.12 62.9091L167.251 63.8081L166.521 62.3846Z" fill="#6A3051"/>
<path d="M175.086 85.5117C174.877 84.4486 174.958 83.4307 175.328 82.458C175.701 81.5017 176.295 80.6802 177.112 79.9935C177.948 79.32 178.938 78.8709 180.083 78.6463C181.244 78.4185 182.331 78.4601 183.343 78.7711C184.375 79.0952 185.244 79.6295 185.95 80.3741C186.676 81.1318 187.144 82.0422 187.352 83.1053C187.529 84.0048 187.488 84.8365 187.23 85.6005C186.992 86.3775 186.578 87.0363 185.987 87.5767C185.397 88.1171 184.677 88.4707 183.826 88.6376L180.441 89.3017C179.59 89.4686 178.79 89.4133 178.039 89.136C177.291 88.875 176.652 88.4314 176.122 87.8052C175.608 87.1757 175.262 86.4112 175.086 85.5117ZM177.724 85.4527C177.92 86.4504 178.412 87.186 179.201 87.6596C179.994 88.1495 180.914 88.2918 181.96 88.0865C182.664 87.9485 183.258 87.6876 183.743 87.3037C184.228 86.9197 184.568 86.4454 184.763 85.8807C184.978 85.329 185.019 84.718 184.887 84.0474C184.759 83.3932 184.49 82.8431 184.08 82.3971C183.689 81.9642 183.195 81.6535 182.597 81.465C182.003 81.2928 181.354 81.2757 180.651 81.4137C179.948 81.5516 179.354 81.8126 178.869 82.1965C178.387 82.5968 178.038 83.0727 177.824 83.6243C177.629 84.1891 177.596 84.7985 177.724 85.4527ZM176.039 89.0698L179.203 88.449L182.165 88.352L184.92 87.3276L187.814 86.7597L188.344 89.4583L176.568 91.7684L176.039 89.0698Z" fill="#6A3051"/>
<path d="M177.026 99.7336L189.018 100.163L188.92 102.911L176.928 102.482L177.026 99.7336ZM183.598 102.721L184.107 101.788C185.623 101.843 186.835 102.22 187.744 102.919C188.669 103.636 189.107 104.677 189.058 106.043C189.037 106.643 188.909 107.18 188.675 107.656C188.441 108.131 188.075 108.568 187.577 108.967L185.793 107.102C186.034 106.894 186.209 106.658 186.319 106.395C186.428 106.132 186.489 105.826 186.502 105.476C186.529 104.71 186.31 104.069 185.845 103.552C185.38 103.035 184.631 102.758 183.598 102.721Z" fill="#6A3051"/>
<path d="M174.287 119.893C174.571 118.848 175.095 117.971 175.857 117.263C176.615 116.571 177.512 116.098 178.548 115.844C179.596 115.61 180.683 115.647 181.809 115.952C182.951 116.263 183.906 116.782 184.676 117.509C185.457 118.256 186 119.121 186.303 120.101C186.618 121.102 186.634 122.125 186.35 123.171C186.11 124.055 185.705 124.783 185.135 125.354C184.577 125.945 183.914 126.352 183.145 126.575C182.377 126.798 181.574 126.795 180.738 126.568L177.409 125.663C176.572 125.436 175.879 125.032 175.329 124.451C174.774 123.886 174.398 123.205 174.2 122.408C174.018 121.616 174.047 120.778 174.287 119.893ZM176.678 121.009C176.499 121.669 176.489 122.279 176.647 122.84C176.817 123.422 177.131 123.921 177.587 124.339C178.044 124.757 178.618 125.059 179.309 125.247C180.001 125.435 180.649 125.465 181.254 125.335C181.859 125.206 182.374 124.932 182.799 124.512C183.236 124.112 183.544 123.583 183.723 122.923C183.898 122.28 183.9 121.667 183.73 121.086C183.572 120.525 183.266 120.027 182.814 119.594C182.358 119.176 181.784 118.873 181.092 118.685C180.401 118.497 179.752 118.468 179.147 118.597C178.538 118.742 178.015 119.015 177.578 119.414C177.153 119.834 176.853 120.366 176.678 121.009ZM172.844 126.159L173.565 123.505L176.677 124.351L179.375 125.576L182.298 125.878L190.935 128.225L190.214 130.879L172.844 126.159Z" fill="#6A3051"/>
<path d="M167.641 136.839C167.958 136.252 168.336 135.727 168.775 135.263C169.229 134.808 169.718 134.428 170.242 134.123C170.781 133.827 171.347 133.621 171.94 133.505L172.649 135.876C172.025 136.013 171.477 136.257 171.004 136.608C170.537 136.981 170.142 137.469 169.817 138.07C169.525 138.613 169.384 139.067 169.395 139.433C169.406 139.798 169.565 140.064 169.873 140.23C170.196 140.405 170.516 140.407 170.835 140.238C171.153 140.069 171.486 139.804 171.833 139.441C172.186 139.102 172.556 138.733 172.941 138.335C173.319 137.952 173.732 137.607 174.181 137.3C174.638 137.016 175.135 136.849 175.674 136.798C176.212 136.748 176.797 136.893 177.427 137.233C178.102 137.597 178.598 138.064 178.916 138.633C179.226 139.217 179.359 139.866 179.314 140.581C179.262 141.31 179.018 142.078 178.582 142.885C178.123 143.735 177.566 144.4 176.909 144.879C176.26 145.381 175.516 145.69 174.677 145.805L173.968 143.434C174.515 143.332 174.991 143.134 175.396 142.841C175.8 142.548 176.141 142.145 176.418 141.631C176.679 141.147 176.807 140.734 176.803 140.391C176.799 140.047 176.658 139.801 176.379 139.65C176.086 139.492 175.787 139.501 175.483 139.678C175.179 139.855 174.858 140.117 174.519 140.465C174.172 140.827 173.803 141.196 173.411 141.571C173.025 141.969 172.597 142.307 172.126 142.583C171.662 142.881 171.153 143.052 170.6 143.094C170.062 143.145 169.47 142.996 168.825 142.647C167.798 142.093 167.178 141.295 166.964 140.252C166.751 139.208 166.976 138.071 167.641 136.839Z" fill="#6A3051"/>
<path d="M160.122 148.207C160.458 147.792 160.871 147.558 161.364 147.506C161.858 147.477 162.307 147.625 162.708 147.95C163.123 148.285 163.362 148.693 163.425 149.172C163.477 149.664 163.335 150.118 163 150.532C162.665 150.947 162.256 151.174 161.775 151.213C161.282 151.266 160.829 151.124 160.414 150.789C160.012 150.464 159.779 150.05 159.714 149.548C159.651 149.069 159.787 148.621 160.122 148.207Z" fill="#6A3051"/>
<path d="M148.991 159.467C149.902 158.71 150.904 158.235 151.999 158.04C153.081 157.855 154.137 157.953 155.168 158.332C156.198 158.711 157.086 159.349 157.831 160.246C158.588 161.156 159.053 162.146 159.226 163.215C159.411 164.297 159.313 165.354 158.934 166.384C158.542 167.425 157.891 168.323 156.981 169.08C156.264 169.676 155.48 170.089 154.63 170.319C153.779 170.572 152.922 170.623 152.06 170.472L152.278 167.918C152.813 168.015 153.337 167.98 153.849 167.815C154.36 167.672 154.839 167.415 155.288 167.042C155.813 166.605 156.18 166.094 156.387 165.51C156.593 164.949 156.641 164.368 156.531 163.766C156.408 163.174 156.117 162.603 155.659 162.052C155.211 161.514 154.703 161.124 154.134 160.882C153.562 160.663 152.976 160.597 152.376 160.684C151.775 160.794 151.211 161.068 150.685 161.505C150.237 161.878 149.891 162.295 149.647 162.758C149.401 163.244 149.276 163.76 149.273 164.304L146.723 164.051C146.732 163.176 146.934 162.336 147.328 161.532C147.719 160.752 148.274 160.063 148.991 159.467Z" fill="#6A3051"/>
<path d="M134.488 168.8C135.538 168.291 136.61 168.077 137.705 168.158C138.807 168.253 139.82 168.605 140.744 169.213C141.653 169.828 142.362 170.661 142.871 171.711C143.38 172.761 143.59 173.825 143.502 174.905C143.399 175.992 143.04 176.99 142.425 177.899C141.817 178.824 140.988 179.54 139.938 180.049C138.873 180.565 137.793 180.782 136.699 180.702C135.604 180.621 134.602 180.273 133.693 179.658C132.776 179.065 132.063 178.244 131.554 177.194C131.046 176.144 130.839 175.068 130.935 173.966C131.015 172.871 131.36 171.862 131.968 170.937C132.583 170.028 133.423 169.316 134.488 168.8ZM135.643 171.185C135.028 171.482 134.554 171.879 134.219 172.374C133.878 172.892 133.699 173.46 133.684 174.078C133.654 174.704 133.791 175.332 134.097 175.962C134.402 176.592 134.806 177.081 135.308 177.431C135.811 177.78 136.36 177.977 136.956 178.021C137.559 178.081 138.168 177.962 138.783 177.664C139.383 177.373 139.853 176.969 140.195 176.452C140.53 175.956 140.715 175.403 140.753 174.793C140.775 174.189 140.634 173.572 140.329 172.942C140.023 172.312 139.623 171.812 139.128 171.44C138.619 171.076 138.062 170.864 137.459 170.805C136.848 170.767 136.243 170.894 135.643 171.185Z" fill="#6A3051"/>
<path d="M121.92 174.52L123.731 186.383L121.013 186.798L119.201 174.936L121.92 174.52ZM114.036 175.724L115.115 182.792C115.236 183.583 115.576 184.155 116.136 184.508C116.698 184.877 117.342 185.007 118.067 184.896C118.561 184.821 118.991 184.654 119.356 184.396C119.705 184.14 119.966 183.805 120.138 183.391C120.314 182.993 120.361 182.531 120.281 182.004L121.434 182.434C121.572 183.341 121.494 184.153 121.199 184.873C120.905 185.592 120.447 186.185 119.827 186.65C119.209 187.133 118.48 187.438 117.64 187.566C116.8 187.694 116.014 187.629 115.283 187.37C114.553 187.11 113.939 186.681 113.443 186.083C112.947 185.484 112.628 184.723 112.488 183.801L111.318 176.14L114.036 175.724ZM106.152 176.928L107.232 183.996C107.353 184.787 107.693 185.359 108.253 185.712C108.815 186.081 109.458 186.211 110.183 186.1C110.661 186.027 111.083 185.861 111.448 185.603C111.813 185.345 112.082 185.009 112.255 184.595C112.43 184.197 112.478 183.735 112.397 183.208L114.02 183.567C114.076 184.485 113.932 185.308 113.588 186.035C113.243 186.762 112.753 187.36 112.116 187.828C111.466 188.315 110.72 188.623 109.88 188.751C109.023 188.882 108.221 188.819 107.474 188.562C106.727 188.305 106.097 187.879 105.584 187.283C105.072 186.687 104.745 185.927 104.604 185.005L103.434 177.344L106.152 176.928Z" fill="#6A3051"/>
</svg>
