<svg width="17" height="17" viewBox="0 0 17 17" fill="none" xmlns="http://www.w3.org/2000/svg">
<path d="M8.33333 0C8.6096 0 8.87455 0.109747 9.0699 0.305097C9.26525 0.500447 9.375 0.765399 9.375 1.04167V7.29167H15.625C15.9013 7.29167 16.1662 7.40141 16.3616 7.59676C16.5569 7.79211 16.6667 8.05707 16.6667 8.33333C16.6667 8.6096 16.5569 8.87455 16.3616 9.0699C16.1662 9.26525 15.9013 9.375 15.625 9.375H9.375V15.625C9.375 15.9013 9.26525 16.1662 9.0699 16.3616C8.87455 16.5569 8.6096 16.6667 8.33333 16.6667C8.05707 16.6667 7.79211 16.5569 7.59676 16.3616C7.40141 16.1662 7.29167 15.9013 7.29167 15.625V9.375H1.04167C0.765399 9.375 0.500447 9.26525 0.305097 9.0699C0.109747 8.87455 0 8.6096 0 8.33333C0 8.05707 0.109747 7.79211 0.305097 7.59676C0.500447 7.40141 0.765399 7.29167 1.04167 7.29167H7.29167V1.04167C7.29167 0.765399 7.40141 0.500447 7.59676 0.305097C7.79211 0.109747 8.05707 0 8.33333 0Z" fill="white"/>
</svg>
