<svg width="18" height="18" viewBox="0 0 18 18" fill="none" xmlns="http://www.w3.org/2000/svg">
<path d="M9.00033 0.666504C9.27659 0.666504 9.54154 0.776251 9.7369 0.971601C9.93225 1.16695 10.042 1.4319 10.042 1.70817V7.95817H16.292C16.5683 7.95817 16.8332 8.06792 17.0286 8.26327C17.2239 8.45862 17.3337 8.72357 17.3337 8.99984C17.3337 9.2761 17.2239 9.54106 17.0286 9.73641C16.8332 9.93176 16.5683 10.0415 16.292 10.0415H10.042V16.2915C10.042 16.5678 9.93225 16.8327 9.7369 17.0281C9.54154 17.2234 9.27659 17.3332 9.00033 17.3332C8.72406 17.3332 8.45911 17.2234 8.26375 17.0281C8.0684 16.8327 7.95866 16.5678 7.95866 16.2915V10.0415H1.70866C1.43239 10.0415 1.16744 9.93176 0.972089 9.73641C0.776739 9.54106 0.666992 9.2761 0.666992 8.99984C0.666992 8.72357 0.776739 8.45862 0.972089 8.26327C1.16744 8.06792 1.43239 7.95817 1.70866 7.95817H7.95866V1.70817C7.95866 1.4319 8.0684 1.16695 8.26375 0.971601C8.45911 0.776251 8.72406 0.666504 9.00033 0.666504Z" fill="#6A3051"/>
</svg>
