<svg width="132" height="41" viewBox="0 0 132 41" fill="none" xmlns="http://www.w3.org/2000/svg">
<path d="M17.3628 13.6379C17.3374 13.5596 17.4172 13.3649 17.6021 13.054C17.7873 12.717 17.9861 12.3151 18.1984 11.8481C18.437 11.3553 18.663 10.8104 18.8764 10.2132C19.1161 9.59024 19.2778 8.95357 19.3615 8.30322C19.4712 7.65309 19.4768 7.00208 19.3782 6.35017C19.2796 5.69826 19.0115 5.07095 18.5739 4.46824C18.3161 4.15352 17.927 3.98093 17.4064 3.95044C16.9121 3.89413 16.3385 3.96737 15.6857 4.17013C15.0592 4.34708 14.3926 4.64088 13.6859 5.05153C13.0055 5.43637 12.3765 5.89976 11.799 6.44173C11.2216 6.95765 10.7219 7.53935 10.2997 8.18681C9.90349 8.83449 9.67647 9.49664 9.61861 10.1733C9.56186 10.7197 9.57055 11.2276 9.64467 11.697C9.74483 12.1666 9.87137 12.5974 10.0243 12.9893C10.1772 13.3813 10.3433 13.7473 10.5227 14.0874C10.7021 14.4274 10.8688 14.7284 11.0229 14.9901C11.2281 15.3565 11.5501 15.7629 11.9891 16.2093C12.428 16.6558 12.9054 17.1677 13.4213 17.7451C13.9375 18.2964 14.4529 18.9258 14.9677 19.6333C15.4826 20.3409 15.9315 21.139 16.3145 22.0277C16.6976 22.9164 16.9626 23.9083 17.1095 25.0034C17.2564 26.0984 17.233 27.3092 17.0394 28.6357C16.7365 30.5603 16.2671 32.1579 15.6313 33.4285C14.9952 34.7252 14.2962 35.761 13.5344 36.5358C12.7985 37.3108 12.0516 37.8643 11.2935 38.1964C10.5352 38.5545 9.90827 38.7835 9.4126 38.8835C9.02133 38.9583 8.55204 39.0194 8.00474 39.0668C7.48326 39.1405 6.92349 39.1227 6.32544 39.0134C5.75322 38.9304 5.16886 38.7431 4.57236 38.4515C3.97565 38.186 3.44537 37.7648 2.98153 37.1879C2.44023 36.5322 2.01656 35.8254 1.71052 35.0676C1.42963 34.4141 1.22775 33.6572 1.10488 32.7967C0.955749 31.9621 1.0283 31.0903 1.32253 30.1813C1.53285 29.9487 1.75598 29.7423 1.9919 29.562C2.22782 29.3817 2.46352 29.2275 2.699 29.0993C2.96074 28.9452 3.23539 28.8043 3.52295 28.6766C3.86237 28.5753 4.20168 28.4871 4.54087 28.4118C4.82776 28.3622 5.12745 28.3387 5.43994 28.3414C5.77869 28.3182 6.09085 28.36 6.37641 28.4666C5.98202 28.9059 5.70503 29.3202 5.54546 29.7095C5.43952 29.9169 5.35984 30.0986 5.30642 30.2544C5.19804 30.7482 5.15397 31.3338 5.17423 32.0111C5.22031 32.7147 5.35787 33.3799 5.5869 34.0069C5.84175 34.6601 6.20165 35.2101 6.66661 35.6568C7.13134 36.1295 7.75421 36.3823 8.5352 36.415C10.4357 36.4833 12.0629 35.0127 13.4168 32.0033C13.8675 31.0697 14.0969 30.1211 14.1052 29.1576C14.1394 28.1943 14.0301 27.2688 13.7773 26.3812C13.5505 25.4938 13.232 24.6708 12.8218 23.912C12.4378 23.1275 12.0399 22.46 11.6279 21.9096C11.2159 21.3592 10.7131 20.7689 10.1195 20.1388C9.55216 19.4829 8.98527 18.7749 8.41882 18.0149C7.85237 17.2548 7.33856 16.4301 6.87738 15.5407C6.44225 14.6515 6.15101 13.6854 6.00365 12.6425C5.80777 11.1824 5.94932 9.85546 6.42827 8.66159C6.93349 7.4419 7.59363 6.37979 8.40867 5.47525C9.24975 4.57094 10.1545 3.83645 11.1229 3.27178C12.1173 2.70733 12.9928 2.35021 13.7493 2.20041C17.949 1.40289 20.6903 2.12944 21.9732 4.38006C22.5127 5.24407 22.8044 6.15805 22.8483 7.122C22.8921 8.08596 22.8193 8.98381 22.63 9.81555C22.4668 10.6215 22.2526 11.3098 21.9873 11.8805C21.7483 12.4253 21.5895 12.7234 21.5109 12.7749C21.3533 12.9298 21.1045 13.0969 20.7644 13.2763C20.4243 13.4557 19.876 13.6203 19.1195 13.7701C18.9107 13.8204 18.7022 13.8447 18.4939 13.8429C18.3116 13.8413 18.1164 13.8267 17.9083 13.7988C17.7002 13.771 17.5183 13.7174 17.3628 13.6379ZM39.622 23.633C38.831 24.7721 37.9361 25.8843 36.9372 26.9695C35.9385 28.0288 34.8756 28.9833 33.7486 29.8331C32.6477 30.657 31.5092 31.3244 30.3329 31.8352C29.1827 32.3463 28.0607 32.5971 26.967 32.5878C26.3941 32.5829 25.7703 32.4343 25.0957 32.1421C24.4469 31.8761 23.8515 31.4544 23.3096 30.8768C22.7676 30.2992 22.3313 29.5533 22.0005 28.639C21.6958 27.7249 21.6141 26.6174 21.7554 25.3165C21.8687 24.2497 22.2038 23.1327 22.7606 21.9655C23.3437 20.7726 24.0432 19.6847 24.8589 18.7021C25.7006 17.7197 26.6321 16.9073 27.6532 16.2649C28.7004 15.6228 29.7448 15.3062 30.7864 15.3151C31.776 15.3235 32.49 15.577 32.9285 16.0756C33.3669 16.5741 33.557 17.1877 33.4987 17.9164C33.4137 18.723 33.173 19.4632 32.7766 20.1369C32.4062 20.8109 31.9583 21.419 31.4328 21.9614C30.9074 22.5039 30.3433 22.9939 29.7406 23.4314C29.1639 23.8692 28.6136 24.2682 28.0896 24.6283C27.5134 25.014 26.9633 25.387 26.4394 25.7471C25.9157 26.0812 25.4573 26.3898 25.0643 26.6729C25.0848 27.3241 25.1973 27.872 25.4018 28.3164C25.6064 28.7609 25.8637 29.1277 26.1737 29.4168C26.484 29.6799 26.8339 29.8782 27.2234 30.0117C27.6391 30.1195 28.0553 30.1751 28.472 30.1787C29.3574 30.1862 30.2841 29.9207 31.2523 29.3821C32.2207 28.8174 33.164 28.1483 34.082 27.3749C35.0264 26.5756 35.8929 25.7497 36.6814 24.897C37.496 24.0445 38.1664 23.308 38.6925 22.6875C38.8766 22.4807 39.0599 22.3651 39.2424 22.3406C39.4512 22.2903 39.6072 22.3177 39.7105 22.4227C39.84 22.502 39.9038 22.6588 39.9018 22.8931C39.9 23.1015 39.8067 23.3481 39.622 23.633ZM29.6737 17.5322C29.3612 17.5295 28.9823 17.6826 28.5369 17.9913C28.1176 18.3002 27.6971 18.7524 27.2753 19.3477C26.8538 19.9171 26.4571 20.6299 26.0851 21.4861C25.7135 22.3163 25.4318 23.2775 25.2402 24.3696C25.5547 24.1379 25.8952 23.9064 26.2618 23.6752C26.6286 23.4179 26.9955 23.1476 27.3625 22.8642C28.4896 22.0145 29.2772 21.2659 29.7255 20.6187C30.1737 19.9715 30.4259 19.4137 30.482 18.9454C30.5383 18.4511 30.4892 18.0991 30.3348 17.8894C30.1805 17.6537 29.9602 17.5347 29.6737 17.5322ZM56.8449 24.1316C56.4759 24.6493 56.0016 25.2963 55.4221 26.0726C54.8427 26.8229 54.2372 27.586 53.6056 28.3619C53.0002 29.1119 52.3953 29.8099 51.7908 30.4558C51.2125 31.0759 50.727 31.5145 50.3342 31.7716C50.0724 31.9256 49.7719 32.0532 49.4324 32.1545C49.093 32.2558 48.7409 32.3179 48.3761 32.3408C48.0374 32.364 47.7121 32.3352 47.4003 32.2544C47.0882 32.1996 46.8157 32.0931 46.5826 31.9349C46.3498 31.7506 46.1568 31.4885 46.0034 31.1487C45.8756 30.8611 45.7487 30.4824 45.6225 30.0125C45.5223 29.5429 45.4882 28.9567 45.5203 28.2538C44.8864 29.2901 44.1894 30.0915 43.4294 30.6579C42.6695 31.1983 41.95 31.5958 41.2707 31.8505C40.487 32.1302 39.7043 32.2928 38.9227 32.3383C38.5581 32.3351 38.1686 32.2016 37.7542 31.9376C37.3395 31.6997 36.9912 31.3191 36.7092 30.7959C36.4274 30.2466 36.251 29.5549 36.18 28.721C36.1092 27.861 36.2221 26.8463 36.5185 25.6769C36.8966 24.0915 37.4819 22.6511 38.2742 21.3558C39.0926 20.0606 39.9744 18.9613 40.9196 18.0579C41.8651 17.1284 42.7956 16.4332 43.711 15.9723C44.6264 15.5113 45.3834 15.3094 45.9819 15.3666C46.6838 15.5028 47.255 15.7161 47.6952 16.0063C48.0576 16.2698 48.2886 16.6624 48.3883 17.1841C48.5143 17.68 48.3003 18.3423 47.7463 19.1709C48.1116 19.0959 48.4115 19.0464 48.6461 19.0223C48.9067 18.9985 49.1021 18.9872 49.2323 18.9883C49.3886 18.9896 49.4926 19.0035 49.5445 19.03C49.5701 19.0823 49.5821 19.1996 49.5805 19.3819C49.5792 19.5381 49.5376 19.8373 49.4557 20.2793C49.3738 20.7213 49.2515 21.3192 49.0888 22.0731C48.9261 22.8269 48.7094 23.8017 48.4388 24.9973C48.3847 25.2313 48.3308 25.4522 48.2769 25.66C48.2493 25.8421 48.2086 26.0371 48.1547 26.245C48.1271 26.427 48.0862 26.648 48.0319 26.908C47.9776 27.168 47.9097 27.4929 47.8282 27.8829C47.8002 28.117 47.7849 28.3773 47.7825 28.6637C47.8063 28.9244 47.8563 29.1722 47.9324 29.4072C48.0085 29.6423 48.124 29.8386 48.2789 29.9962C48.4601 30.1279 48.7069 30.1951 49.0194 30.1978C49.2798 30.2 49.6197 30.0467 50.039 29.7377C50.4586 29.4028 50.9048 28.9899 51.3778 28.4991C51.8509 27.9823 52.3375 27.4265 52.8374 26.8318C53.3635 26.2113 53.8504 25.6165 54.298 25.0474C54.7455 24.4782 55.1405 23.9738 55.4828 23.534C55.8512 23.0944 56.1143 22.7711 56.2724 22.5641C56.4827 22.3315 56.6921 22.2031 56.9007 22.1788C57.1094 22.1285 57.2652 22.182 57.3681 22.3391C57.4709 22.4962 57.4819 22.7307 57.4011 23.0425C57.3464 23.3546 57.161 23.7176 56.8449 24.1316ZM45.3854 25.7526C45.52 25.2329 45.6815 24.6222 45.8698 23.9207C46.0581 23.2191 46.2201 22.5434 46.3558 21.8935C46.4916 21.2436 46.5873 20.7105 46.6429 20.2943C46.7248 19.8523 46.7136 19.6439 46.6092 19.669C46.4788 19.694 46.3352 19.7318 46.1785 19.7825C46.0479 19.8335 45.8783 19.8711 45.6698 19.8954C45.4612 19.9197 45.2525 19.9569 45.0438 20.0072C45.2557 19.5924 45.3757 19.2548 45.404 18.9947C45.4585 18.7087 45.4734 18.4874 45.4487 18.3309C45.4242 18.1484 45.3734 18.0048 45.2961 17.8999C45.0117 17.6631 44.5022 17.8541 43.7678 18.4729C43.0596 19.0658 42.2297 20.1785 41.2782 21.8111C40.8818 22.4848 40.5631 23.2113 40.3221 23.9905C40.0813 24.7437 39.9059 25.4584 39.796 26.1345C39.7121 26.8109 39.6939 27.4098 39.7416 27.931C39.7894 28.4262 39.8908 28.7526 40.0457 28.9102C40.3297 29.1991 40.654 29.3451 41.0186 29.3482C41.3834 29.3253 41.7488 29.2242 42.115 29.0451C42.5073 28.8401 42.8872 28.5829 43.2544 28.2735C43.6477 27.9644 43.989 27.6417 44.2783 27.3057C44.5937 26.9698 44.8438 26.6594 45.0285 26.3745C45.2393 26.0899 45.3582 25.8825 45.3854 25.7526ZM59.6804 30.6013C59.8358 30.7068 60.0307 30.7606 60.265 30.7626C60.5254 30.7648 60.7733 30.7148 61.0085 30.6126C61.2698 30.5107 61.5054 30.3695 61.7153 30.189C61.9512 30.0087 62.1225 29.7758 62.2291 29.4902C62.3357 29.2047 62.3391 28.801 62.2394 28.2793C62.1399 27.7316 61.9755 27.1572 61.7463 26.5563C61.5433 25.9295 61.3143 25.3026 61.0592 24.6754C60.8041 24.0482 60.5877 23.4734 60.4098 22.951C60.2569 22.5591 60.1298 22.1934 60.0286 21.854C59.9268 21.5666 59.825 21.2923 59.7231 21.031C59.6474 20.7439 59.584 20.548 59.5328 20.4434C59.4008 20.6506 59.1635 20.9872 58.821 21.453C58.5045 21.9191 58.1487 22.4109 57.7537 22.9283C57.3849 23.42 57.0293 23.8857 56.687 24.3255C56.3449 24.7393 56.1081 25.0237 55.9766 25.1789C55.7663 25.4115 55.5567 25.5529 55.3479 25.6032C55.1654 25.6277 55.0095 25.5873 54.8802 25.482C54.7511 25.3507 54.6744 25.1808 54.6502 24.9722C54.6522 24.7379 54.7587 24.4653 54.9697 24.1546C55.1277 23.9476 55.3648 23.6241 55.6811 23.1841C55.9976 22.718 56.3141 22.252 56.6306 21.7859C56.9473 21.2938 57.2374 20.8666 57.5009 20.5042C57.7647 20.1158 57.9099 19.8827 57.9366 19.8048C57.9905 19.5969 57.9147 19.3228 57.7092 18.9825C57.5298 18.6424 57.5071 18.2516 57.6411 17.81C57.7484 17.4463 57.9863 17.0317 58.3549 16.566C58.7237 16.0744 59.1571 15.6354 59.6552 15.249C60.1533 14.8626 60.6636 14.5805 61.186 14.4026C61.7085 14.1988 62.1773 14.2028 62.5922 14.4146C62.9289 14.6259 63.2003 14.8626 63.4064 15.1247C63.6128 15.3609 63.6888 15.6089 63.6345 15.8689C63.5813 15.9987 63.5017 16.1673 63.3958 16.3747C63.2898 16.5821 63.1314 16.8412 62.9204 17.1519C62.7096 17.4366 62.4069 17.8116 62.0123 18.277C62.0853 18.8766 62.1848 19.4244 62.3108 19.9203C62.4628 20.4164 62.6023 20.8473 62.7294 21.2129C62.8819 21.657 63.0477 22.062 63.2269 22.4282C63.4573 22.8989 63.7005 23.3828 63.9567 23.8798C64.2129 24.3768 64.443 24.8735 64.6472 25.3701C64.8515 25.8406 65.017 26.2847 65.1436 26.7025C65.2703 27.1203 65.3063 27.4721 65.2518 27.7581C65.1699 28.2002 64.931 28.732 64.535 29.3536C64.1651 29.9755 63.6912 30.5835 63.1131 31.1775C62.5614 31.7457 61.9192 32.2351 61.1865 32.6455C60.4798 33.0561 59.7359 33.2581 58.9547 33.2515C58.4078 33.2468 57.8754 33.073 57.3575 32.73C56.8656 32.3872 56.4393 31.993 56.0785 31.5472C55.744 31.0755 55.4874 30.6176 55.3089 30.1734C55.1565 29.7293 55.1463 29.3907 55.2785 29.1574C55.4375 28.8463 55.5828 28.6001 55.7146 28.4189C55.8463 28.2378 56.0434 28.0311 56.3058 27.799C56.4106 27.7217 56.5416 27.6317 56.6987 27.5289C56.8296 27.4519 57.0126 27.3753 57.2476 27.2992C57.4826 27.2231 57.7568 27.1342 58.0702 27.0328C58.3237 27.8422 58.5527 28.4822 58.757 28.9527C58.9615 29.3972 59.1278 29.7502 59.2558 30.0117C59.4096 30.2995 59.5511 30.496 59.6804 30.6013ZM79.8386 25.8904C79.5697 26.8777 79.2103 27.7992 78.7603 28.6547C78.3102 29.5103 77.7701 30.2479 77.1397 30.8675C76.5355 31.4874 75.8413 31.9633 75.0572 32.2951C74.2989 32.6533 73.464 32.8284 72.5526 32.8206C71.4849 32.8115 70.6406 32.5699 70.0196 32.0959C69.4245 31.6481 68.9735 31.0843 68.6668 30.4046C68.3862 29.7251 68.2232 28.9815 68.178 28.1738C68.1068 27.3658 68.0742 26.6103 68.0802 25.9072C68.0844 25.4124 68.1542 24.8661 68.2895 24.2683C68.3988 23.6703 68.5602 23.0596 68.7739 22.4364C68.9876 21.8132 69.2533 21.1905 69.5711 20.5682C69.915 19.9461 70.3105 19.3765 70.7576 18.8595C70.9177 18.4181 71.1554 18.0295 71.4707 17.6937C71.8122 17.358 72.1921 17.0878 72.6105 16.8831C73.0552 16.6525 73.5254 16.4872 74.021 16.3873C74.5169 16.2613 74.9992 16.2003 75.468 16.2043C75.5461 16.205 75.6111 16.2185 75.6629 16.245C75.7408 16.2717 75.8187 16.2984 75.8966 16.3251C76.2349 16.3541 76.6505 16.4878 77.1433 16.7264C77.6621 16.9652 78.1538 17.321 78.6186 17.7937C79.1094 18.2667 79.5209 18.8692 79.8532 19.6012C80.1857 20.3072 80.3477 21.168 80.339 22.1836C80.3372 22.3919 80.322 22.6522 80.2933 22.9645C80.2648 23.2507 80.2366 23.4979 80.2088 23.706C80.8097 23.4767 81.4372 23.1956 82.0911 22.8626C82.745 22.5297 83.3729 22.1834 83.975 21.824C84.6033 21.4387 85.1795 21.053 85.7037 20.6668C86.2278 20.2807 86.6475 19.9327 86.9626 19.6228C87.2251 19.3907 87.4475 19.2624 87.63 19.2379C87.8125 19.2134 87.9423 19.2666 88.0193 19.3975C88.0963 19.5284 88.1078 19.7108 88.0537 19.9447C87.9996 20.1786 87.8542 20.4378 87.6173 20.7222C87.4858 20.8774 87.1446 21.187 86.5938 21.651C86.0689 22.1153 85.4396 22.6178 84.7058 23.1584C83.972 23.699 83.1732 24.2261 82.3094 24.7396C81.4456 25.253 80.622 25.6367 79.8386 25.8904ZM73.2879 19.8968C73.2078 20.1305 73.1666 20.3775 73.1644 20.6379C73.1609 21.0546 73.1831 21.4975 73.2312 21.9667C73.2795 22.4098 73.4063 22.8145 73.6115 23.1809C73.8167 23.5472 74.1395 23.8625 74.58 24.1267C75.0467 24.3651 75.6837 24.4877 76.491 24.4946C76.6212 24.4957 76.7514 24.4968 76.8816 24.4979C77.012 24.473 77.1425 24.4481 77.2729 24.4231C77.3539 24.0853 77.4216 23.7864 77.4759 23.5264C77.5564 23.2406 77.5976 22.9936 77.5994 22.7852C77.6557 22.2909 77.66 21.7831 77.6124 21.2618C77.5647 20.7406 77.4646 20.271 77.3119 19.853C77.1855 19.4092 77.0062 19.0561 76.774 18.7937C76.5682 18.5054 76.309 18.36 75.9965 18.3573C75.5017 18.3531 75.0187 18.4922 74.5476 18.7747C74.1026 19.0313 73.6828 19.4053 73.2879 19.8968ZM70.7293 26.7502C70.7253 27.2189 70.7474 27.6879 70.7955 28.157C70.8438 28.6002 70.9445 29.0047 71.0976 29.3706C71.251 29.7105 71.4568 29.9987 71.7153 30.2353C71.9739 30.4458 72.3115 30.5529 72.7282 30.5564C73.1969 30.5604 73.6275 30.4599 74.0199 30.2549C74.4125 30.0239 74.7665 29.7405 75.0818 29.4046C75.3974 29.0427 75.6743 28.6414 75.9125 28.2007C76.1769 27.7342 76.4023 27.2543 76.5888 26.7611C76.4063 26.7856 76.2238 26.8101 76.0413 26.8346C75.8851 26.8332 75.7028 26.8317 75.4945 26.8299C74.5049 26.8215 73.648 26.5277 72.9238 25.9486C72.2258 25.3436 71.6854 24.5838 71.3025 23.669C71.1416 24.2145 71.0069 24.7473 70.8983 25.2672C70.7896 25.7871 70.7333 26.2814 70.7293 26.7502ZM95.5579 33.2123C94.959 33.2072 94.4391 33.0856 93.9985 32.8474C93.5836 32.6356 93.2475 32.3462 92.9902 31.9794C92.7329 31.6126 92.5672 31.1945 92.4931 30.7251C92.4192 30.2297 92.4497 29.7091 92.5845 29.1634C92.6658 28.7995 92.8001 28.3188 92.9875 27.7214C93.1751 27.098 93.3631 26.4355 93.5513 25.734C93.7659 25.0066 93.9543 24.2921 94.1165 23.5903C94.3051 22.8627 94.4278 22.2127 94.4848 21.6403C94.542 21.0418 94.52 20.5598 94.419 20.1943C94.3181 19.8028 94.0985 19.6056 93.7599 19.6027C93.3433 19.5992 92.9124 19.7387 92.4673 20.0214C92.0223 20.278 91.5635 20.6387 91.0908 21.1035C90.6441 21.5684 90.1837 22.1114 89.7096 22.7323C89.2618 23.3275 88.8138 23.9487 88.3656 24.5959C88.1236 25.4793 87.9217 26.2589 87.7596 26.9346C87.5978 27.5843 87.4495 28.182 87.3146 28.7277C87.206 29.2477 87.0979 29.7155 86.9901 30.1313C86.8826 30.521 86.7883 30.8978 86.707 31.2617C86.6267 31.5215 86.3901 31.7799 85.9973 32.0369C85.6047 32.268 85.1863 32.4597 84.7423 32.6122C84.2983 32.7646 83.92 32.8395 83.6075 32.8369C83.269 32.834 83.1268 32.7156 83.1809 32.4817C83.2082 32.3256 83.3024 31.9749 83.4633 31.4293C83.5982 30.8836 83.7729 30.2471 83.9874 29.5197C84.1762 28.7661 84.3783 27.9735 84.5937 27.142C84.8091 26.3104 85.0112 25.5179 85.1999 24.7642C85.3353 24.1664 85.4842 23.5036 85.6466 22.7758C85.7822 22.1519 85.9446 21.4241 86.134 20.5924C86.3495 19.7608 86.5916 18.8514 86.8605 17.8641C87.0441 17.7094 87.2274 17.5938 87.4103 17.5172C87.6195 17.4148 87.8285 17.3385 88.0373 17.2882C88.2463 17.2118 88.4681 17.1617 88.7027 17.1376C88.911 17.1394 89.1192 17.1542 89.3273 17.182C89.5094 17.2096 89.6912 17.2632 89.8728 17.3429C90.0807 17.3968 90.2622 17.4895 90.4174 17.621C90.3377 17.8026 90.2443 18.0623 90.1373 18.3999C90.0304 18.7115 89.9234 19.0491 89.8161 19.4128C89.7084 19.8286 89.5745 20.2571 89.4145 20.6985C89.757 20.2327 90.1386 19.7672 90.5593 19.302C91.0062 18.811 91.4787 18.3723 91.9768 17.9859C92.5009 17.5997 93.0505 17.2919 93.6254 17.0624C94.2005 16.8069 94.7875 16.6817 95.3865 16.6868C95.8812 16.6911 96.3227 16.8381 96.7109 17.1278C97.099 17.4176 97.395 17.8238 97.5989 18.3464C97.8291 18.8432 97.9542 19.4432 97.9742 20.1465C98.0203 20.8501 97.9226 21.6175 97.6811 22.4488L97.2368 24.1638C97.1019 24.7096 96.9271 25.3592 96.7123 26.1126C96.5238 26.8401 96.2825 27.6454 95.9885 28.5283C95.8274 29.0999 95.7581 29.5941 95.7805 30.011C95.8291 30.4281 96.0877 30.6386 96.5564 30.6426C97.0252 30.6466 97.6135 30.3652 98.3215 29.7983C99.0555 29.2316 99.7906 28.5478 100.527 27.7467C101.263 26.9457 101.96 26.1313 102.618 25.3036C103.276 24.4498 103.777 23.7639 104.12 23.246C104.357 22.9095 104.58 22.69 104.79 22.5876C104.999 22.4852 105.155 22.4736 105.259 22.5526C105.388 22.6318 105.452 22.8146 105.449 23.1011C105.447 23.3615 105.34 23.6991 105.128 24.114C104.943 24.477 104.652 24.9563 104.256 25.5519C103.887 26.1478 103.439 26.782 102.912 27.4546C102.385 28.1272 101.82 28.8125 101.215 29.5105C100.61 30.1824 99.9797 30.8021 99.3238 31.3694C98.6681 31.9107 98.0133 32.3478 97.3594 32.6808C96.7313 33.0401 96.1308 33.2172 95.5579 33.2123ZM120.674 33.4267C120.049 33.4214 119.4 33.2336 118.726 32.8632C118.078 32.5191 117.484 31.9541 116.943 31.1682C116.429 30.3565 115.996 29.2981 115.642 27.993C115.315 26.688 115.146 25.085 115.136 23.1838C115.121 21.9857 115.275 20.6588 115.6 19.2032C115.925 17.7476 116.367 16.28 116.927 14.8003C117.513 13.2948 118.202 11.8423 118.995 10.4428C119.789 9.04328 120.646 7.80055 121.566 6.71462C122.513 5.62891 123.497 4.76488 124.518 4.12254C125.566 3.45437 126.636 3.12495 127.73 3.13429C128.954 3.14474 129.785 3.41226 130.223 3.93685C130.687 4.46167 130.981 5.1543 131.104 6.01476C131.153 6.37977 131.175 6.78362 131.172 7.22632C131.194 7.64319 131.151 8.05951 131.044 8.47527C130.962 8.89126 130.816 9.28064 130.604 9.64344C130.393 9.98019 130.104 10.2512 129.738 10.4564C129.424 10.61 129.11 10.7245 128.797 10.7999C128.51 10.8756 128.184 10.9119 127.82 10.9088C127.455 10.9057 127.078 10.8373 126.689 10.7038C127.138 9.97844 127.482 9.29125 127.722 8.64223C127.962 7.96718 128.097 7.38237 128.128 6.88782C128.184 6.36745 128.122 5.96326 127.943 5.67526C127.789 5.36144 127.543 5.20308 127.204 5.20019C126.736 5.19619 126.16 5.49077 125.478 6.08393C124.822 6.67731 124.125 7.51774 123.386 8.60522C122.674 9.66689 121.973 10.95 121.283 12.4546C120.593 13.9592 120.019 15.634 119.56 17.4791C120.536 16.0812 121.56 15.1003 122.632 14.5365C123.705 13.9467 124.632 13.6551 125.413 13.6618C125.856 13.6656 126.363 13.748 126.935 13.9091C127.506 14.0703 128.037 14.4003 128.528 14.8993C129.019 15.3723 129.43 16.0399 129.761 16.9021C130.118 17.7646 130.291 18.8989 130.279 20.3051C130.267 21.7113 130.007 23.1935 129.499 24.7517C128.991 26.2839 128.288 27.6972 127.392 28.9917C126.522 30.2864 125.497 31.3584 124.318 32.2078C123.165 33.0313 121.95 33.4376 120.674 33.4267ZM119.071 19.8969C118.934 20.7291 118.822 21.6006 118.736 22.5114C118.676 23.3963 118.643 24.3075 118.635 25.245C118.632 25.5314 118.667 26.0005 118.74 26.6522C118.812 27.3038 118.937 27.956 119.114 28.6085C119.316 29.2613 119.585 29.8366 119.919 30.3342C120.254 30.8319 120.694 31.0831 121.241 31.0877C121.97 31.094 122.69 30.6834 123.4 29.8561C124.11 29.0028 124.744 27.9665 125.302 26.7472C125.885 25.5022 126.339 24.2039 126.663 22.8525C127.013 21.4752 127.193 20.2527 127.202 19.1851C127.185 18.1172 127.023 17.2824 126.716 16.6808C126.435 16.0534 125.969 15.7369 125.318 15.7313C124.771 15.7267 124.274 15.9047 123.829 16.2655C123.409 16.6265 123.027 17.066 122.684 17.5839C122.342 18.0758 122.051 18.5942 121.812 19.139C121.573 19.6839 121.373 20.151 121.214 20.5402C120.922 21.2149 120.684 21.5774 120.501 21.628C120.345 21.6527 120.099 21.4813 119.764 21.1138C119.582 20.9821 119.441 20.8116 119.338 20.6024C119.236 20.3671 119.147 20.132 119.071 19.8969Z" fill="url(#paint0_linear_918_32582)"/>
<defs>
<linearGradient id="paint0_linear_918_32582" x1="68.128" y1="2.0005" x2="67.8719" y2="31.9994" gradientUnits="userSpaceOnUse">
<stop stop-color="#A07941"/>
<stop offset="0.568353" stop-color="#EBEAB5"/>
<stop offset="1" stop-color="#C6A560"/>
</linearGradient>
</defs>
</svg>
