<svg width="110" height="92" viewBox="0 0 110 92" fill="none" xmlns="http://www.w3.org/2000/svg">
<g filter="url(#filter0_d_920_32740)">
<path d="M24.8708 52.5033L25.1354 52.4868L25.1515 50.9775C25.1693 49.9198 25.2857 48.6761 25.8493 47.85C26.6487 46.6781 27.9869 46.4085 29.1204 47.1818C30.1002 47.8502 30.1662 49.528 28.5696 52.8588L28.8194 53.0292C30.2119 51.8959 31.7118 50.9765 33.0019 50.3646C32.3254 49.0866 31.15 48.0033 30.2278 47.3742C28.1145 45.9325 26.5423 46.3802 25.6249 47.7251C25.0089 48.628 24.9107 49.9687 24.9 50.9749L24.8708 52.5033ZM15.0445 57.5397C18.2721 59.7414 21.6391 59.758 23.4477 57.1067C24.2472 55.9348 24.3217 55.0003 24.371 53.4011L24.4502 50.8088C24.4741 49.7834 24.5067 48.5388 25.2144 47.5014C25.7648 46.6945 26.3895 46.1915 27.552 46.0556L27.5416 45.8232C24.7487 44.5936 21.9283 45.3441 20.5915 47.3037C19.8575 48.3796 19.7752 49.4495 19.7749 50.688L19.7568 52.9842C19.7477 54.4419 19.6436 55.131 18.9752 56.1108C18.0316 57.4941 16.3868 58.0894 15.2917 57.3423C13.7932 56.3201 14.0993 54.8397 16.0655 50.7194L15.8611 50.5237C14.3656 51.6431 12.8605 52.4462 11.2776 53.2808C12.334 55.2402 13.7189 56.6353 15.0445 57.5397Z" fill="url(#paint0_linear_920_32740)"/>
<path d="M24.8708 52.5033L24.2895 52.4922L24.2774 53.1229L24.907 53.0836L24.8708 52.5033ZM25.1354 52.4868L25.1717 53.0671L25.7111 53.0334L25.7168 52.493L25.1354 52.4868ZM25.1515 50.9775L24.5702 50.9678L24.5702 50.9713L25.1515 50.9775ZM28.5696 52.8588L28.0453 52.6075L27.8295 53.0578L28.242 53.3391L28.5696 52.8588ZM28.8194 53.0292L28.4917 53.5095L28.85 53.7539L29.1864 53.4801L28.8194 53.0292ZM33.0019 50.3646L33.2511 50.8899L33.8001 50.6295L33.5158 50.0925L33.0019 50.3646ZM24.9 50.9749L25.4813 50.986L25.4814 50.9811L24.9 50.9749ZM24.371 53.4011L24.9521 53.419L24.9521 53.4188L24.371 53.4011ZM24.4502 50.8088L25.0314 50.8266L25.0315 50.8223L24.4502 50.8088ZM27.552 46.0556L27.6196 46.633L28.1571 46.5702L28.1328 46.0295L27.552 46.0556ZM27.5416 45.8232L28.1224 45.7972L28.1062 45.4366L27.7759 45.2911L27.5416 45.8232ZM19.7749 50.688L20.3563 50.6926L20.3563 50.6881L19.7749 50.688ZM19.7568 52.9842L19.1754 52.9796L19.1754 52.9806L19.7568 52.9842ZM16.0655 50.7194L16.5902 50.9698L16.7713 50.5903L16.4676 50.2995L16.0655 50.7194ZM15.8611 50.5237L16.2633 50.1038L15.9073 49.7629L15.5127 50.0582L15.8611 50.5237ZM11.2776 53.2808L11.0065 52.7665L10.4874 53.0402L10.7659 53.5567L11.2776 53.2808ZM24.907 53.0836L25.1717 53.0671L25.0992 51.9065L24.8346 51.923L24.907 53.0836ZM25.7168 52.493L25.7329 50.9837L24.5702 50.9713L24.5541 52.4806L25.7168 52.493ZM25.7329 50.9873C25.7507 49.9228 25.8746 48.8446 26.3296 48.1777L25.369 47.5224C24.6968 48.5077 24.5878 49.9168 24.5702 50.9678L25.7329 50.9873ZM26.3296 48.1777C26.6546 47.7012 27.0651 47.4397 27.4755 47.3562C27.8842 47.273 28.3438 47.3558 28.7927 47.6621L29.448 46.7015C28.7634 46.2345 27.9872 46.0654 27.2437 46.2167C26.5017 46.3677 25.8434 46.8269 25.369 47.5224L26.3296 48.1777ZM28.7927 47.6621C29.0583 47.8432 29.283 48.1942 29.231 48.9837C29.1776 49.7934 28.8319 50.9665 28.0453 52.6075L29.0939 53.1101C29.9039 51.4204 30.3235 50.0892 30.3913 49.0601C30.4605 48.0108 30.1623 47.1887 29.448 46.7015L28.7927 47.6621ZM28.242 53.3391L28.4917 53.5095L29.147 52.5489L28.8973 52.3785L28.242 53.3391ZM29.1864 53.4801C30.5425 52.3764 32.0028 51.482 33.2511 50.8899L32.7528 49.8393C31.4207 50.4711 29.8812 51.4153 28.4524 52.5783L29.1864 53.4801ZM33.5158 50.0925C32.7811 48.7049 31.5269 47.5566 30.5555 46.8939L29.9002 47.8545C30.7731 48.45 31.8696 49.4683 32.4881 50.6366L33.5158 50.0925ZM30.5555 46.8939C29.4259 46.1233 28.3624 45.8041 27.4033 45.9281C26.4326 46.0536 25.6754 46.6193 25.1446 47.3974L26.1051 48.0527C26.4918 47.486 26.9794 47.1554 27.5524 47.0813C28.1372 47.0057 28.9165 47.1834 29.9002 47.8545L30.5555 46.8939ZM25.1446 47.3974C24.4181 48.4622 24.3292 49.9721 24.3186 50.9687L25.4814 50.9811C25.4922 49.9652 25.5996 48.7938 26.1051 48.0527L25.1446 47.3974ZM24.3187 50.9638L24.2895 52.4922L25.4521 52.5144L25.4813 50.986L24.3187 50.9638ZM14.7169 58.0199C16.4011 59.1689 18.1699 59.7818 19.7988 59.7241C21.4494 59.6658 22.9164 58.9173 23.928 57.4344L22.9675 56.7791C22.1704 57.9474 21.0497 58.5163 19.7577 58.562C18.444 58.6085 16.9155 58.1122 15.3722 57.0594L14.7169 58.0199ZM23.928 57.4344C24.8285 56.1145 24.9024 55.0313 24.9521 53.419L23.7898 53.3832C23.7409 54.9692 23.666 55.7552 22.9675 56.7791L23.928 57.4344ZM24.9521 53.4188L25.0314 50.8266L23.8691 50.791L23.7898 53.3833L24.9521 53.4188ZM25.0315 50.8223C25.0559 49.7724 25.0982 48.7034 25.6947 47.829L24.7341 47.1737C23.9151 48.3742 23.8922 49.7944 23.869 50.7953L25.0315 50.8223ZM25.6947 47.829C25.9444 47.4629 26.1877 47.2004 26.4732 47.0126C26.7553 46.827 27.1121 46.6924 27.6196 46.633L27.4845 45.4781C26.8294 45.5547 26.2926 45.7395 25.8341 46.0411C25.3791 46.3405 25.0348 46.7329 24.7341 47.1737L25.6947 47.829ZM28.1328 46.0295L28.1224 45.7972L26.9608 45.8493L26.9712 46.0816L28.1328 46.0295ZM27.7759 45.2911C24.7783 43.9714 21.6356 44.7414 20.1112 46.9761L21.0718 47.6314C22.2209 45.9468 24.7192 45.2159 27.3073 46.3554L27.7759 45.2911ZM20.1112 46.9761C19.2731 48.2046 19.1938 49.427 19.1935 50.6879L20.3563 50.6881C20.3566 49.472 20.442 48.5545 21.0718 47.6314L20.1112 46.9761ZM19.1935 50.6834L19.1754 52.9796L20.3382 52.9888L20.3563 50.6926L19.1935 50.6834ZM19.1754 52.9806C19.1709 53.7052 19.1419 54.1861 19.0469 54.5953C18.9557 54.9883 18.7974 55.3398 18.4949 55.7832L19.4555 56.4385C19.8215 55.902 20.0494 55.4191 20.1796 54.8582C20.3061 54.3135 20.3337 53.7209 20.3382 52.9878L19.1754 52.9806ZM18.4949 55.7832C18.0871 56.381 17.5382 56.7915 17.0017 56.9755C16.4671 57.1587 15.9822 57.1095 15.6194 56.862L14.9641 57.8226C15.6963 58.3221 16.5814 58.3488 17.3788 58.0754C18.1744 57.8027 18.9198 57.2239 19.4555 56.4385L18.4949 55.7832ZM15.6194 56.862C15.3073 56.6491 15.1327 56.4429 15.0369 56.2232C14.9401 56.0014 14.8975 55.7057 14.9556 55.2694C15.0765 54.3622 15.6006 53.0436 16.5902 50.9698L15.5407 50.469C14.5641 52.5155 13.9521 53.9972 13.803 55.1158C13.7262 55.6924 13.7651 56.2161 13.971 56.6881C14.1778 57.1623 14.5269 57.5244 14.9641 57.8226L15.6194 56.862ZM16.4676 50.2995L16.2633 50.1038L15.459 50.9436L15.6633 51.1393L16.4676 50.2995ZM15.5127 50.0582C14.0585 51.1467 12.5915 51.9308 11.0065 52.7665L11.5488 53.7951C13.1295 52.9617 14.6727 52.1394 16.2095 50.9892L15.5127 50.0582ZM10.7659 53.5567C11.8685 55.6019 13.3182 57.0658 14.7169 58.0199L15.3722 57.0594C14.1196 56.2049 12.7995 54.8784 11.7894 53.0049L10.7659 53.5567Z" fill="#6A3051"/>
<path d="M29.6121 64.6555C31.5097 65.1197 33.6906 64.7195 35.3958 62.8383L35.2202 62.6756C33.9126 64.0077 32.7067 64.2394 31.7579 64.0073C30.6736 63.742 29.8464 63.0129 30.2719 61.2735C30.609 59.8955 31.4021 58.3177 32.7151 56.963C33.6355 56.0389 34.5011 55.4367 35.3627 55.1447L35.3502 54.9022C33.7011 54.4987 32.3305 54.5226 30.9338 54.947C28.1348 55.8185 26.7302 58.0367 26.2826 59.8665C25.7907 61.8771 26.7206 63.9481 29.6121 64.6555ZM30.8653 61.4905C31.4369 59.6431 32.4393 58.1884 33.3205 57.3266C33.9491 56.7142 34.5004 56.4181 34.7715 56.4845C35.0426 56.5508 35.1229 56.8098 35.0068 57.2842C34.7913 58.1653 33.4465 59.9432 32.1478 59.6734L32.0584 59.843C34.844 60.7879 38.2202 60.297 38.8668 57.654C39.1542 56.4793 38.5243 55.7266 37.2141 55.4061C35.949 55.0966 34.4242 55.8488 33.1222 57.1584C32.0391 58.2581 31.1161 59.7801 30.6394 61.4352L30.8653 61.4905Z" fill="url(#paint1_linear_920_32740)"/>
<path d="M35.3958 62.8383L35.8266 63.2287L36.213 62.8025L35.7909 62.4117L35.3958 62.8383ZM35.2202 62.6756L35.6152 62.249L35.2008 61.8652L34.8052 62.2683L35.2202 62.6756ZM32.7151 56.963L32.3031 56.5527L32.2976 56.5584L32.7151 56.963ZM35.3627 55.1447L35.5493 55.6953L35.966 55.5541L35.9433 55.1147L35.3627 55.1447ZM35.3502 54.9022L35.9308 54.8722L35.9085 54.4402L35.4883 54.3374L35.3502 54.9022ZM30.9338 54.947L30.7647 54.3907L30.7609 54.3919L30.9338 54.947ZM30.8653 61.4905L30.7271 62.0552L31.2589 62.1853L31.4207 61.6623L30.8653 61.4905ZM33.3205 57.3266L32.9148 56.9101L32.914 56.9109L33.3205 57.3266ZM32.1478 59.6734L32.2661 59.1041L31.8375 59.015L31.6334 59.4023L32.1478 59.6734ZM32.0584 59.843L31.544 59.572L31.2265 60.1748L31.8717 60.3936L32.0584 59.843ZM33.1222 57.1584L32.7099 56.7484L32.708 56.7504L33.1222 57.1584ZM30.6394 61.4352L30.0807 61.2743L29.9131 61.8561L30.5012 61.9999L30.6394 61.4352ZM29.474 65.2203C31.5558 65.7296 33.9628 65.2849 35.8266 63.2287L34.9651 62.4478C33.4184 64.1542 31.4636 64.5099 29.7503 64.0908L29.474 65.2203ZM35.7909 62.4117L35.6152 62.249L34.8251 63.1022L35.0008 63.2648L35.7909 62.4117ZM34.8052 62.2683C33.6116 63.4844 32.6076 63.6166 31.8961 63.4425L31.6198 64.5721C32.8058 64.8622 34.2136 64.5311 35.6351 63.0828L34.8052 62.2683ZM31.8961 63.4425C31.4294 63.3284 31.1095 63.1356 30.9322 62.8702C30.7621 62.6157 30.6485 62.1811 30.8367 61.4116L29.7072 61.1353C29.4699 62.1053 29.557 62.905 29.9653 63.5162C30.3663 64.1165 31.0021 64.421 31.6198 64.5721L31.8961 63.4425ZM30.8367 61.4116C31.1497 60.1321 31.8927 58.6469 33.1326 57.3677L32.2976 56.5584C30.9114 57.9886 30.0684 59.6588 29.7072 61.1353L30.8367 61.4116ZM33.1271 57.3733C34.0127 56.4841 34.8041 55.9479 35.5493 55.6953L35.176 54.594C34.1982 54.9255 33.2583 55.5938 32.3032 56.5527L33.1271 57.3733ZM35.9433 55.1147L35.9308 54.8722L34.7695 54.9321L34.782 55.1746L35.9433 55.1147ZM35.4883 54.3374C33.7505 53.9123 32.273 53.9324 30.7647 54.3907L31.1028 55.5033C32.3881 55.1127 33.6516 55.0852 35.212 55.4669L35.4883 54.3374ZM30.7609 54.3919C27.726 55.3369 26.2027 57.7464 25.7178 59.7284L26.8473 60.0047C27.2578 58.327 28.5437 56.3002 31.1066 55.5021L30.7609 54.3919ZM25.7178 59.7284C25.4408 60.8608 25.5573 62.0461 26.1846 63.0564C26.8134 64.069 27.9129 64.8384 29.474 65.2203L29.7503 64.0908C28.4198 63.7653 27.6086 63.1454 27.1725 62.443C26.735 61.7383 26.6325 60.8828 26.8473 60.0047L25.7178 59.7284ZM31.4207 61.6623C31.963 59.9099 32.913 58.5383 33.727 57.7423L32.914 56.9109C31.9655 57.8385 30.9109 59.3763 30.3099 61.3186L31.4207 61.6623ZM33.7262 57.7431C34.0164 57.4604 34.2722 57.2675 34.4674 57.1565C34.5653 57.1009 34.6349 57.0733 34.6761 57.0617C34.724 57.0482 34.6997 57.0654 34.6334 57.0492L34.9097 55.9197C34.7078 55.8703 34.513 55.8997 34.3615 55.9422C34.2035 55.9866 34.0452 56.0589 33.8928 56.1456C33.5875 56.3191 33.2532 56.5805 32.9148 56.9101L33.7262 57.7431ZM34.6334 57.0492C34.6212 57.0462 34.5826 57.0334 34.5417 56.9952C34.5001 56.9563 34.4826 56.9158 34.4772 56.8974C34.473 56.8835 34.4787 56.8932 34.4764 56.9397C34.4742 56.9852 34.4649 57.0526 34.4421 57.1461L35.5716 57.4224C35.638 57.1508 35.6752 56.8459 35.5915 56.5653C35.491 56.228 35.2386 56.0002 34.9097 55.9197L34.6334 57.0492ZM34.4421 57.1461C34.3665 57.4547 34.0467 58.0291 33.5742 58.4974C33.0884 58.979 32.6198 59.1776 32.2661 59.1041L32.0295 60.2426C32.9745 60.439 33.8276 59.8835 34.3928 59.3233C34.9713 58.7499 35.4315 57.9948 35.5716 57.4224L34.4421 57.1461ZM31.6334 59.4023L31.544 59.572L32.5728 60.114L32.6622 59.9444L31.6334 59.4023ZM31.8717 60.3936C33.3496 60.8949 35.0081 61.0258 36.4127 60.6562C37.8323 60.2827 39.0445 59.3745 39.4316 57.7921L38.3021 57.5158C38.0426 58.5765 37.2433 59.2352 36.1168 59.5317C34.9752 59.8321 33.5528 59.736 32.2452 59.2924L31.8717 60.3936ZM39.4316 57.7921C39.6076 57.0729 39.5158 56.4012 39.1023 55.8577C38.7054 55.336 38.0764 55.0185 37.3523 54.8413L37.0759 55.9708C37.662 56.1142 38.0031 56.3333 38.1768 56.5617C38.3341 56.7684 38.4135 57.0603 38.3021 57.5158L39.4316 57.7921ZM37.3523 54.8413C35.7802 54.4567 34.053 55.3976 32.7099 56.7484L33.5345 57.5683C34.7954 56.3001 36.1179 55.7364 37.0759 55.9708L37.3523 54.8413ZM32.708 56.7504C31.558 57.9181 30.5847 59.5246 30.0807 61.2743L31.1981 61.5961C31.6476 60.0356 32.5203 58.5982 33.5365 57.5663L32.708 56.7504ZM30.5012 61.9999L30.7271 62.0552L31.0035 60.9257L30.7775 60.8704L30.5012 61.9999Z" fill="#6A3051"/>
<path d="M42.7272 66.4103C44.4084 66.1742 45.3433 64.4695 46.2502 62.0642C47.2465 59.4584 47.7918 56.9864 47.656 56.0191C47.5331 55.144 46.59 54.7832 45.2082 54.9772C43.9185 55.1583 43.1084 55.5773 42.2183 56.4303C40.2535 58.3266 39.2658 61.4948 39.6086 63.9361C39.8447 65.6173 40.9769 66.6561 42.7272 66.4103ZM49.7054 65.4305C51.2024 65.2203 51.6545 64.5932 52.3118 63.4206L52.0819 63.2885C51.6327 64.1031 51.2303 64.5823 50.8848 64.6308C50.6775 64.6599 50.5462 64.5609 50.5106 64.3076C50.4654 63.9852 50.5688 63.3835 51.003 61.9605L53.3901 54.0398L53.1372 53.9109C51.8628 54.536 50.5271 54.7236 48.919 54.6441L47.148 60.7639C46.75 62.1114 46.5869 62.9563 46.7033 63.7854C46.8941 65.1442 48.1394 65.6504 49.7054 65.4305ZM44.2536 64.9043C43.9542 64.9464 43.7804 64.7124 43.7255 64.3209C43.525 62.893 44.5567 59.202 45.5946 57.0601C46.0309 56.1534 46.4697 55.5986 46.8151 55.5501C47.1606 55.5016 47.3113 55.7387 47.3695 56.1533C47.5183 57.2127 46.937 59.5958 46.007 62.0044C45.2988 63.8182 44.8063 64.8267 44.2536 64.9043Z" fill="url(#paint2_linear_920_32740)"/>
<path d="M46.2502 62.0642L45.7072 61.8565L45.7062 61.859L46.2502 62.0642ZM42.2183 56.4303L41.816 56.0106L41.8146 56.012L42.2183 56.4303ZM52.3118 63.4206L52.819 63.7049L53.1003 63.2031L52.6015 62.9165L52.3118 63.4206ZM52.0819 63.2885L52.3716 62.7844L51.8586 62.4896L51.5728 63.0077L52.0819 63.2885ZM51.003 61.9605L51.5591 62.1302L51.5597 62.1282L51.003 61.9605ZM53.3901 54.0398L53.9468 54.2075L54.087 53.7423L53.6541 53.5217L53.3901 54.0398ZM53.1372 53.9109L53.4011 53.3928L53.1421 53.2609L52.8811 53.3889L53.1372 53.9109ZM48.919 54.6441L48.9477 54.0634L48.4883 54.0407L48.3605 54.4824L48.919 54.6441ZM47.148 60.7639L47.7056 60.9285L47.7065 60.9255L47.148 60.7639ZM45.5946 57.0601L46.1178 57.3136L46.1185 57.3122L45.5946 57.0601ZM46.007 62.0044L46.5486 62.2158L46.5494 62.2138L46.007 62.0044ZM42.808 66.9861C43.8504 66.8397 44.6296 66.2338 45.2472 65.3956C45.8548 64.5709 46.338 63.4793 46.7943 62.2693L45.7062 61.859C45.2555 63.0544 44.8178 64.0179 44.311 64.7059C43.814 65.3803 43.2852 65.7448 42.6463 65.8345L42.808 66.9861ZM46.7933 62.2718C47.3 60.9465 47.6938 59.651 47.9444 58.557C48.1887 57.4906 48.3159 56.5378 48.2317 55.9383L47.0802 56.1C47.1318 56.4677 47.0544 57.2346 46.8109 58.2974C46.5737 59.3327 46.1967 60.5761 45.7072 61.8565L46.7933 62.2718ZM48.2317 55.9383C48.1378 55.2691 47.7134 54.8028 47.1264 54.56C46.5698 54.3297 45.8723 54.2969 45.1274 54.4014L45.289 55.553C45.9259 55.4636 46.3909 55.5141 46.682 55.6345C46.9427 55.7423 47.0513 55.894 47.0802 56.1L48.2317 55.9383ZM45.1274 54.4014C43.712 54.6002 42.7907 55.0765 41.816 56.0106L42.6206 56.8501C43.4261 56.0782 44.125 55.7164 45.289 55.553L45.1274 54.4014ZM41.8146 56.012C39.7116 58.0416 38.665 61.3972 39.0328 64.0169L40.1844 63.8552C39.8666 61.5925 40.7954 58.6117 42.6221 56.8487L41.8146 56.012ZM39.0328 64.0169C39.1659 64.9648 39.5609 65.7913 40.2297 66.344C40.906 66.9029 41.7975 67.1279 42.808 66.9861L42.6463 65.8345C41.9065 65.9384 41.3568 65.767 40.9704 65.4476C40.5765 65.1221 40.2873 64.5886 40.1844 63.8552L39.0328 64.0169ZM49.7863 66.0063C50.6108 65.8905 51.2133 65.6492 51.7032 65.2268C52.1723 64.8223 52.493 64.2865 52.819 63.7049L51.8047 63.1363C51.4734 63.7273 51.2393 64.0914 50.9439 64.3461C50.6691 64.583 50.2971 64.7603 49.6246 64.8547L49.7863 66.0063ZM52.6015 62.9165L52.3716 62.7844L51.7923 63.7926L52.0222 63.9247L52.6015 62.9165ZM51.5728 63.0077C51.3573 63.3986 51.1678 63.6808 51.0076 63.8633C50.8309 64.0645 50.7624 64.0609 50.804 64.0551L50.9657 65.2066C51.3526 65.1522 51.6581 64.8848 51.8813 64.6306C52.121 64.3576 52.3574 63.993 52.591 63.5693L51.5728 63.0077ZM50.804 64.0551C50.8056 64.0548 50.9046 64.0441 51.006 64.1289C51.0962 64.2042 51.0935 64.2775 51.0864 64.2268L49.9349 64.3884C49.9633 64.5911 50.0441 64.8405 50.2606 65.0214C50.4885 65.2116 50.7568 65.2359 50.9657 65.2066L50.804 64.0551ZM51.0864 64.2268C51.0777 64.1648 51.0763 64.0116 51.1469 63.6619C51.2158 63.3208 51.3439 62.8356 51.5591 62.1302L50.447 61.7908C50.2279 62.5084 50.0871 63.0356 50.0071 63.4316C49.9288 63.8191 49.8983 64.128 49.9349 64.3884L51.0864 64.2268ZM51.5597 62.1282L53.9468 54.2075L52.8334 53.872L50.4464 61.7927L51.5597 62.1282ZM53.6541 53.5217L53.4011 53.3928L52.8732 54.4289L53.1262 54.5578L53.6541 53.5217ZM52.8811 53.3889C51.7211 53.9579 50.491 54.1397 48.9477 54.0634L48.8902 55.2248C50.5632 55.3075 52.0046 55.1141 53.3932 54.4329L52.8811 53.3889ZM48.3605 54.4824L46.5895 60.6023L47.7065 60.9255L49.4775 54.8057L48.3605 54.4824ZM46.5903 60.5992C46.1909 61.9521 45.9922 62.9027 46.1275 63.8662L47.279 63.7045C47.1815 63.0098 47.3092 62.2707 47.7056 60.9285L46.5903 60.5992ZM46.1275 63.8662C46.2493 64.7339 46.7252 65.3637 47.4259 65.7186C48.0986 66.0593 48.9328 66.1261 49.7863 66.0063L49.6246 64.8547C48.912 64.9548 48.3405 64.8784 47.9513 64.6813C47.5902 64.4984 47.348 64.1957 47.279 63.7045L46.1275 63.8662ZM44.1727 64.3286C44.181 64.3274 44.2132 64.3253 44.256 64.3413C44.299 64.3574 44.3265 64.3819 44.339 64.3964C44.3492 64.4083 44.344 64.4071 44.3333 64.3785C44.3228 64.3505 44.3104 64.3055 44.3012 64.2401L43.1497 64.4018C43.1846 64.65 43.2662 64.9321 43.4568 65.154C43.6755 65.4087 43.9915 65.5282 44.3344 65.4801L44.1727 64.3286ZM44.3012 64.2401C44.2628 63.9661 44.2799 63.5331 44.3623 62.9692C44.443 62.4164 44.5804 61.7765 44.7577 61.1071C45.1132 59.765 45.6188 58.3434 46.1178 57.3136L45.0714 56.8065C44.5325 57.9186 44.0033 59.4135 43.6336 60.8094C43.4483 61.509 43.3004 62.1935 43.2117 62.8012C43.1245 63.3979 43.0879 63.9618 43.1497 64.4018L44.3012 64.2401ZM46.1185 57.3122C46.3262 56.8806 46.5228 56.5582 46.6921 56.3474C46.8863 56.1059 46.9596 56.1169 46.896 56.1258L46.7343 54.9743C46.3251 55.0317 46.0064 55.3444 45.7857 55.619C45.5403 55.9245 45.2993 56.3328 45.0707 56.8079L46.1185 57.3122ZM46.896 56.1258C46.9123 56.1235 46.891 56.1294 46.8501 56.1153C46.8301 56.1084 46.8103 56.0984 46.7923 56.0857C46.7745 56.0732 46.7622 56.0608 46.7546 56.0517C46.7409 56.0353 46.7459 56.034 46.7577 56.0681C46.7694 56.1016 46.7826 56.1549 46.7938 56.2341L47.9453 56.0724C47.9119 55.8345 47.8409 55.5373 47.6454 55.3043C47.409 55.0226 47.0737 54.9266 46.7343 54.9743L46.896 56.1258ZM46.7938 56.2341C46.8518 56.6476 46.7685 57.4159 46.5269 58.4393C46.2911 59.4384 45.9218 60.6108 45.4646 61.795L46.5494 62.2138C47.0221 60.9894 47.4085 59.7659 47.6586 58.7065C47.903 57.6713 48.036 56.7184 47.9453 56.0724L46.7938 56.2341ZM45.4654 61.7929C45.1107 62.7013 44.8244 63.3694 44.5679 63.8158C44.4399 64.0385 44.3345 64.1787 44.2518 64.2606C44.17 64.3417 44.1446 64.3325 44.1727 64.3286L44.3344 65.4801C44.6389 65.4373 44.8824 65.273 45.0705 65.0864C45.2577 64.9008 45.4234 64.6609 45.5761 64.3951C45.8811 63.8644 46.1951 63.1213 46.5486 62.2158L45.4654 61.7929Z" fill="#6A3051"/>
<path d="M60.7787 53.9913L60.8643 53.7594L59.9349 53.3649C59.1538 53.0485 58.514 52.6023 58.2361 52.0916C57.9694 51.6013 57.9923 51.0593 58.4622 50.8037C59.1363 50.437 60.4461 50.9953 62.5728 52.9094L62.818 52.776C62.4354 51.3427 62.2084 50.1954 62.1337 48.9388C60.8323 49.2232 59.5825 49.7971 58.8879 50.175C57.703 50.8196 57.6447 51.5397 57.9892 52.173C58.2781 52.7041 58.866 53.1521 59.9123 53.6154L60.7787 53.9913ZM60.6903 61.6642C63.3257 60.2306 64.5918 58.324 63.4804 56.281C63.0581 55.5047 62.3552 55.0399 61.2476 54.6099L59.8969 54.0739C59.0844 53.7482 58.0696 53.2941 57.5695 52.3748C57.3917 52.048 57.3289 51.7379 57.2719 51.2924L57.1884 51.2849C55.4849 52.5822 54.9109 54.6418 55.7333 56.1536C56.1334 56.889 56.827 57.3854 57.8214 57.8505L59.0587 58.4217C59.9473 58.8385 60.7359 59.0714 61.136 59.8068C61.5249 60.5218 61.2329 61.1043 60.7426 61.371C59.5781 62.0045 58.0199 61.1842 56.0939 59.055L55.8691 59.1773C56.2277 60.5178 56.4598 62.1124 56.5105 63.2762C57.5965 63.0825 59.6893 62.2088 60.6903 61.6642Z" fill="url(#paint3_linear_920_32740)"/>
<path d="M60.7787 53.9913L60.5473 54.5247L61.1112 54.7694L61.3241 54.1927L60.7787 53.9913ZM60.8643 53.7594L61.4097 53.9608L61.6017 53.4408L61.0915 53.2242L60.8643 53.7594ZM59.9349 53.3649L60.1621 52.8296L60.1532 52.826L59.9349 53.3649ZM62.5728 52.9094L62.1839 53.3416L62.4895 53.6166L62.8507 53.4201L62.5728 52.9094ZM62.818 52.776L63.0958 53.2868L63.4977 53.0681L63.3797 52.6261L62.818 52.776ZM62.1337 48.9388L62.7141 48.9043L62.6737 48.2256L62.0096 48.3708L62.1337 48.9388ZM59.9123 53.6154L59.6769 54.1471L59.6809 54.1488L59.9123 53.6154ZM61.2476 54.6099L61.0331 55.1504L61.0372 55.1519L61.2476 54.6099ZM59.8969 54.0739L59.6806 54.6136L59.6825 54.6143L59.8969 54.0739ZM57.2719 51.2924L57.8486 51.2186L57.7892 50.7552L57.324 50.7133L57.2719 51.2924ZM57.1884 51.2849L57.2405 50.7058L57.0157 50.6856L56.8361 50.8223L57.1884 51.2849ZM57.8214 57.8505L57.575 58.3772L57.5777 58.3784L57.8214 57.8505ZM59.0587 58.4217L59.3056 57.8953L59.3024 57.8938L59.0587 58.4217ZM56.0939 59.055L56.525 58.665L56.218 58.3256L55.816 58.5443L56.0939 59.055ZM55.8691 59.1773L55.5913 58.6665L55.1892 58.8853L55.3075 59.3275L55.8691 59.1773ZM56.5105 63.2762L55.9296 63.3015L55.9585 63.9652L56.6125 63.8486L56.5105 63.2762ZM61.3241 54.1927L61.4097 53.9608L60.3189 53.558L60.2333 53.7899L61.3241 54.1927ZM61.0915 53.2242L60.162 52.8297L59.7077 53.9001L60.6371 54.2946L61.0915 53.2242ZM60.1532 52.826C59.4151 52.527 58.9281 52.1469 58.7469 51.8138L57.7254 52.3694C58.0999 53.0578 58.8925 53.5699 59.7166 53.9038L60.1532 52.826ZM58.7469 51.8138C58.6556 51.646 58.6388 51.5129 58.649 51.438C58.6537 51.404 58.6632 51.3836 58.6722 51.3703C58.6808 51.3576 58.6986 51.337 58.74 51.3145L58.1843 50.293C57.7809 50.5125 57.5519 50.8759 57.4968 51.2813C57.4448 51.6639 57.5499 52.0469 57.7254 52.3694L58.7469 51.8138ZM58.74 51.3145C58.8175 51.2723 59.0816 51.2111 59.7163 51.523C60.3238 51.8216 61.1367 52.3991 62.1839 53.3416L62.9618 52.4772C61.8822 51.5056 60.9768 50.8469 60.2292 50.4794C59.5088 50.1254 58.781 49.9684 58.1843 50.293L58.74 51.3145ZM62.8507 53.4201L63.0958 53.2868L62.5402 52.2653L62.295 52.3987L62.8507 53.4201ZM63.3797 52.6261C63.0026 51.2133 62.7856 50.1074 62.7141 48.9043L61.5533 48.9733C61.6312 50.2834 61.8682 51.4721 62.2563 52.926L63.3797 52.6261ZM62.0096 48.3708C60.6363 48.6708 59.3333 49.2708 58.6101 49.6643L59.1657 50.6857C59.8317 50.3235 61.0282 49.7755 62.2578 49.5068L62.0096 48.3708ZM58.6101 49.6643C57.952 50.0223 57.5029 50.4562 57.3166 50.9851C57.1251 51.5289 57.2562 52.0423 57.4784 52.4508L58.4999 51.8951C58.3776 51.6703 58.3656 51.507 58.4134 51.3713C58.4664 51.2208 58.6389 50.9723 59.1657 50.6857L58.6101 49.6643ZM57.4784 52.4508C57.8618 53.1556 58.5985 53.6695 59.6769 54.1471L60.1477 53.0838C59.1335 52.6347 58.6944 52.2527 58.4999 51.8951L57.4784 52.4508ZM59.6809 54.1488L60.5473 54.5247L61.0101 53.458L60.1437 53.0821L59.6809 54.1488ZM60.9681 62.175C62.3335 61.4322 63.4159 60.5307 63.9984 59.4838C64.6012 58.4005 64.6431 57.2016 63.9911 56.0032L62.9697 56.5589C63.4291 57.4034 63.3936 58.1792 62.9823 58.9184C62.5508 59.694 61.6825 60.4626 60.4124 61.1535L60.9681 62.175ZM63.9911 56.0032C63.4713 55.0476 62.6137 54.5166 61.458 54.0679L61.0372 55.1519C62.0966 55.5632 62.6449 55.9619 62.9697 56.5589L63.9911 56.0032ZM61.4621 54.0695L60.1114 53.5335L59.6825 54.6143L61.0331 55.1503L61.4621 54.0695ZM60.1133 53.5342C59.2832 53.2015 58.4681 52.8099 58.0802 52.097L57.0588 52.6527C57.6711 53.7783 58.8855 54.2948 59.6806 54.6135L60.1133 53.5342ZM58.0802 52.097C57.9557 51.8681 57.9034 51.6465 57.8486 51.2186L56.6952 51.3662C56.7544 51.8293 56.8276 52.2278 57.0588 52.6527L58.0802 52.097ZM57.324 50.7133L57.2405 50.7058L57.1362 51.864L57.2197 51.8715L57.324 50.7133ZM56.8361 50.8223C54.967 52.2458 54.2285 54.6041 55.2226 56.4314L56.244 55.8757C55.5933 54.6796 56.0027 52.9187 57.5406 51.7474L56.8361 50.8223ZM55.2226 56.4314C55.7115 57.3301 56.5413 57.8936 57.575 58.3772L58.0677 57.3239C57.1127 56.8771 56.5553 56.4479 56.244 55.8757L55.2226 56.4314ZM57.5777 58.3784L58.815 58.9496L59.3024 57.8938L58.065 57.3226L57.5777 58.3784ZM58.8118 58.9481C59.3096 59.1815 59.6593 59.3117 59.9947 59.501C60.2982 59.6724 60.4956 59.8464 60.6252 60.0846L61.6467 59.529C61.3762 59.0318 60.9793 58.7216 60.5664 58.4885C60.1853 58.2733 59.6965 58.0786 59.3056 57.8953L58.8118 58.9481ZM60.6252 60.0846C60.7556 60.3244 60.7456 60.4848 60.7151 60.5802C60.6817 60.6848 60.599 60.7872 60.4647 60.8603L61.0204 61.8818C61.3764 61.6881 61.6849 61.3659 61.8229 60.9339C61.9638 60.4926 61.9053 60.0043 61.6467 59.529L60.6252 60.0846ZM60.4647 60.8603C60.1052 61.0559 59.6361 61.0687 58.966 60.7301C58.2835 60.3852 57.469 59.7085 56.525 58.665L55.6627 59.4451C56.6448 60.5308 57.5725 61.3288 58.4416 61.768C59.3233 62.2135 60.2155 62.3196 61.0204 61.8818L60.4647 60.8603ZM55.816 58.5443L55.5913 58.6665L56.147 59.688L56.3717 59.5658L55.816 58.5443ZM55.3075 59.3275C55.6551 60.627 55.8808 62.1797 55.9296 63.3015L57.0913 63.2509C57.0388 62.045 56.8003 60.4085 56.4308 59.027L55.3075 59.3275ZM56.6125 63.8486C57.2162 63.7409 58.0562 63.4555 58.8464 63.1423C59.6448 62.826 60.441 62.4617 60.9681 62.175L60.4124 61.1535C59.9386 61.4113 59.1878 61.7562 58.4181 62.0613C57.6402 62.3695 56.8907 62.6178 56.4084 62.7038L56.6125 63.8486Z" fill="#6A3051"/>
<path d="M72.5426 53.1012C75.7135 49.541 75.645 44.6527 72.5189 41.8684C70.9733 40.4918 69.1983 40.5615 68.0382 41.864C66.9864 43.0449 67.2303 44.4145 68.0259 46.4934C68.5499 47.8633 69.292 49.3029 70.21 50.6499L70.3801 50.4589C69.4622 49.1118 68.7181 47.6394 68.2674 46.3971C67.6588 44.7027 67.6053 44.0634 67.8683 43.7681C68.0694 43.5424 68.3185 43.5774 68.7179 43.9332C70.0552 45.1242 73.3434 51.8524 72.3844 52.9291C72.1523 53.1896 71.8666 53.0909 71.5366 52.797C69.8868 51.3275 66.9689 47.0158 66.8219 43.3345L66.6211 43.2802C65.4399 44.5016 64.8225 45.7892 64.6108 46.971C64.0789 49.7361 65.0229 52.1029 66.8811 53.758C68.4442 55.1501 70.6091 55.272 72.5426 53.1012Z" fill="url(#paint4_linear_920_32740)"/>
<path d="M68.0259 46.4934L68.5689 46.2857L68.5689 46.2856L68.0259 46.4934ZM70.21 50.6499L69.7295 50.9773L70.1489 51.5927L70.6442 51.0366L70.21 50.6499ZM70.3801 50.4589L70.8143 50.8456L71.1162 50.5066L70.8606 50.1315L70.3801 50.4589ZM68.2674 46.3971L67.7202 46.5937L67.7209 46.5954L68.2674 46.3971ZM66.8219 43.3345L67.4029 43.3113L67.3859 42.8846L66.9736 42.7732L66.8219 43.3345ZM66.6211 43.2802L66.7728 42.7189L66.4417 42.6294L66.2032 42.876L66.6211 43.2802ZM64.6108 46.971L65.1818 47.0808L65.1831 47.0735L64.6108 46.971ZM72.9767 53.4879C76.3223 49.7316 76.3129 44.469 72.9056 41.4343L72.1322 42.3026C74.977 44.8363 75.1047 49.3504 72.1084 52.7145L72.9767 53.4879ZM72.9056 41.4343C72.0472 40.6697 71.082 40.2702 70.1279 40.2802C69.168 40.2902 68.2832 40.7148 67.604 41.4773L68.4724 42.2507C68.9533 41.7107 69.536 41.4492 70.1401 41.4429C70.7499 41.4366 71.445 41.6905 72.1322 42.3026L72.9056 41.4343ZM67.604 41.4773C66.9711 42.1879 66.724 42.9752 66.7583 43.8644C66.7912 44.7168 67.0827 45.6556 67.4829 46.7012L68.5689 46.2856C68.1735 45.2524 67.9453 44.4669 67.9203 43.8195C67.8967 43.209 68.0535 42.721 68.4724 42.2507L67.604 41.4773ZM67.4829 46.7011C68.023 48.1132 68.7861 49.593 69.7295 50.9773L70.6905 50.3225C69.7979 49.0127 69.0768 47.6133 68.5689 46.2857L67.4829 46.7011ZM70.6442 51.0366L70.8143 50.8456L69.946 50.0722L69.7758 50.2632L70.6442 51.0366ZM70.8606 50.1315C69.9684 48.8223 69.2472 47.393 68.814 46.1988L67.7209 46.5954C68.189 47.8858 68.9559 49.4014 69.8997 50.7863L70.8606 50.1315ZM68.8146 46.2006C68.5124 45.3592 68.3647 44.8234 68.3169 44.4782C68.2677 44.1227 68.344 44.1083 68.3025 44.1548L67.4341 43.3814C67.1297 43.7233 67.1012 44.1762 67.1651 44.6377C67.2304 45.1095 67.4138 45.7406 67.7202 46.5937L68.8146 46.2006ZM68.3025 44.1548C68.3089 44.1477 68.2906 44.1707 68.2437 44.1893C68.1916 44.2099 68.143 44.2098 68.1146 44.2046C68.0936 44.2008 68.1018 44.1976 68.145 44.2236C68.1873 44.2491 68.2485 44.2936 68.3312 44.3673L69.1046 43.499C68.8865 43.3047 68.6241 43.1154 68.3229 43.0606C68.1571 43.0304 67.9835 43.0416 67.8157 43.1081C67.6531 43.1724 67.5283 43.2758 67.4341 43.3814L68.3025 44.1548ZM68.3312 44.3673C68.5907 44.5984 69.0075 45.1698 69.4892 45.9855C69.9582 46.7797 70.4544 47.7457 70.8805 48.7092C71.3082 49.6763 71.6562 50.6202 71.8391 51.3738C71.931 51.7526 71.975 52.0588 71.9756 52.2838C71.9762 52.5323 71.9238 52.5721 71.9502 52.5424L72.8185 53.3158C73.0847 53.017 73.1393 52.611 73.1384 52.2808C73.1375 51.9271 73.0715 51.5217 72.9691 51.0997C72.7634 50.2517 72.3856 49.2373 71.944 48.2388C71.5008 47.2368 70.9841 46.2302 70.4905 45.3942C70.0095 44.5797 69.5138 43.8634 69.1046 43.499L68.3312 44.3673ZM71.9502 52.5424C71.9443 52.5491 71.9619 52.5273 72.007 52.5114C72.0542 52.4947 72.0948 52.4975 72.1133 52.5012C72.1264 52.5039 72.1153 52.5042 72.0768 52.4809C72.0392 52.4581 71.9883 52.4207 71.9233 52.3628L71.1499 53.2311C71.3364 53.3972 71.5852 53.5804 71.8812 53.6406C72.0414 53.6733 72.2175 53.6702 72.3939 53.608C72.5681 53.5465 72.7084 53.4394 72.8185 53.3158L71.9502 52.5424ZM71.9233 52.3628C71.1608 51.6837 70.0567 50.2962 69.1243 48.6134C68.1912 46.9294 67.4713 45.0234 67.4029 43.3113L66.241 43.3577C66.3196 45.3268 67.1321 47.4174 68.1072 49.177C69.0828 50.9377 70.2626 52.4408 71.1499 53.2311L71.9233 52.3628ZM66.9736 42.7732L66.7728 42.7189L66.4694 43.8415L66.6702 43.8958L66.9736 42.7732ZM66.2032 42.876C64.949 44.1728 64.2723 45.5631 64.0385 46.8684L65.1831 47.0735C65.3727 46.0153 65.9308 44.8303 67.0391 43.6844L66.2032 42.876ZM64.0399 46.8611C63.4674 49.8371 64.4907 52.4076 66.4944 54.1922L67.2678 53.3239C65.5551 51.7983 64.6904 49.6352 65.1818 47.0808L64.0399 46.8611ZM66.4944 54.1922C67.3693 54.9714 68.4497 55.4253 69.6126 55.3458C70.7768 55.2662 71.9342 54.6584 72.9767 53.4879L72.1084 52.7145C71.2174 53.7148 70.3256 54.1315 69.5333 54.1857C68.7396 54.2399 67.956 53.9367 67.2678 53.3239L66.4944 54.1922Z" fill="#6A3051"/>
<path d="M83.3906 34.598C83.7952 33.4337 83.6593 32.5494 82.9397 31.2899L82.6953 31.4266C83.1482 32.2487 83.3174 32.8245 83.1953 33.176C83.1266 33.3738 82.9566 33.4378 82.737 33.3615C82.2537 33.1935 81.6881 32.5539 81.0499 31.8397L78.7512 29.2437C78.0624 28.4627 77.3211 27.762 76.5741 27.5025C75.3879 27.0903 74.2505 27.4584 73.6475 29.1938C73.2506 30.3362 73.3389 31.4994 74.3287 32.902C74.8705 33.6811 75.7036 34.6846 76.9093 35.8913L81.1366 40.093L81.2282 39.8294L77.0591 35.6726C74.5389 33.1474 74.32 32.4312 74.5032 31.9039C74.61 31.5964 74.8392 31.5037 75.1468 31.6105C75.5202 31.7403 75.8833 32.1126 76.3113 32.5814L78.2192 34.6723C78.9156 35.4313 79.7296 36.2065 80.4984 36.4737C81.8165 36.9317 82.7723 36.3774 83.3906 34.598ZM79.8707 44.2325C79.982 42.991 80.3722 41.7971 80.9763 40.5544L72.7843 32.3161L72.5542 32.4824C72.5298 33.828 72.0632 35.2416 71.2968 36.5264L79.6558 44.3549L79.8707 44.2325Z" fill="url(#paint5_linear_920_32740)"/>
<path d="M82.9397 31.2899L83.4445 31.0015L83.1588 30.5014L82.656 30.7824L82.9397 31.2899ZM82.6953 31.4266L82.4116 30.9191L81.9072 31.2011L82.186 31.7072L82.6953 31.4266ZM81.0499 31.8397L80.6146 32.2251L80.6164 32.2271L81.0499 31.8397ZM78.7512 29.2437L78.3152 29.6283L78.3159 29.6292L78.7512 29.2437ZM74.3287 32.902L74.8061 32.5701L74.8038 32.5668L74.3287 32.902ZM76.9093 35.8913L76.4979 36.3023L76.4994 36.3037L76.9093 35.8913ZM81.1366 40.093L80.7268 40.5054L81.3824 41.1571L81.6858 40.2839L81.1366 40.093ZM81.2282 39.8294L81.7774 40.0202L81.8972 39.6754L81.6387 39.4177L81.2282 39.8294ZM77.0591 35.6726L76.6476 36.0833L76.6486 36.0843L77.0591 35.6726ZM76.3113 32.5814L76.7408 32.1895L76.7406 32.1894L76.3113 32.5814ZM78.2192 34.6723L77.7897 35.0642L77.7908 35.0654L78.2192 34.6723ZM79.8707 44.2325L80.1583 44.7378L80.4226 44.5874L80.4498 44.2845L79.8707 44.2325ZM80.9763 40.5544L81.4992 40.8086L81.6798 40.4372L81.3886 40.1444L80.9763 40.5544ZM72.7843 32.3161L73.1965 31.9062L72.8463 31.554L72.4438 31.8448L72.7843 32.3161ZM72.5542 32.4824L72.2137 32.0111L71.9781 32.1813L71.9728 32.4718L72.5542 32.4824ZM71.2968 36.5264L70.7974 36.2285L70.5575 36.6306L70.8993 36.9507L71.2968 36.5264ZM79.6558 44.3549L79.2584 44.7792L79.5711 45.0721L79.9435 44.8601L79.6558 44.3549ZM83.9398 34.7888C84.1654 34.1396 84.2513 33.5333 84.1625 32.8991C84.075 32.2738 83.8237 31.6651 83.4445 31.0015L82.4349 31.5784C82.7753 32.1742 82.9517 32.6374 83.0109 33.0602C83.0688 33.4741 83.0204 33.8921 82.8414 34.4072L83.9398 34.7888ZM82.656 30.7824L82.4116 30.9191L82.979 31.9341L83.2234 31.7974L82.656 30.7824ZM82.186 31.7072C82.4023 32.0997 82.5354 32.4066 82.6022 32.6386C82.672 32.881 82.6498 32.9746 82.6461 32.9852L83.7445 33.3669C83.863 33.026 83.8172 32.6559 83.7197 32.317C83.6191 31.9677 83.4412 31.5756 83.2045 31.146L82.186 31.7072ZM82.6461 32.9852C82.6501 32.9737 82.6622 32.9453 82.6913 32.9126C82.7217 32.8785 82.762 32.8495 82.8082 32.8311C82.8991 32.795 82.9529 32.821 82.9278 32.8123L82.5461 33.9107C82.7408 33.9783 82.9893 34.0104 83.2373 33.9119C83.5005 33.8074 83.6653 33.5949 83.7445 33.3669L82.6461 32.9852ZM82.9278 32.8123C82.8126 32.7722 82.6268 32.6476 82.354 32.3859C82.0922 32.1346 81.8079 31.8154 81.4834 31.4523L80.6164 32.2271C80.9301 32.5782 81.2477 32.9359 81.549 33.2249C81.8394 33.5036 82.178 33.7828 82.5461 33.9107L82.9278 32.8123ZM81.4852 31.4543L79.1865 28.8583L78.3159 29.6292L80.6146 32.2251L81.4852 31.4543ZM79.1873 28.8591C78.4993 28.0792 77.6701 27.2678 76.765 26.9533L76.3833 28.0517C76.972 28.2562 77.6255 28.8463 78.3152 29.6283L79.1873 28.8591ZM76.765 26.9533C76.0687 26.7114 75.3163 26.676 74.6293 27.0242C73.945 27.3709 73.4313 28.0448 73.0983 29.003L74.1967 29.3847C74.4668 28.6074 74.8232 28.2295 75.1549 28.0614C75.4839 27.8947 75.8933 27.8814 76.3833 28.0517L76.765 26.9533ZM73.0983 29.003C72.8741 29.6483 72.7802 30.322 72.8938 31.041C73.0069 31.7569 73.3197 32.4805 73.8537 33.2372L74.8038 32.5668C74.3479 31.9209 74.1217 31.3616 74.0424 30.8596C73.9636 30.3608 74.024 29.8817 74.1967 29.3847L73.0983 29.003ZM73.8514 33.2339C74.4174 34.0479 75.2745 35.0777 76.4979 36.3023L77.3206 35.4804C76.1327 34.2915 75.3236 33.3143 74.8061 32.5701L73.8514 33.2339ZM76.4994 36.3037L80.7268 40.5054L81.5465 39.6807L77.3191 35.479L76.4994 36.3037ZM81.6858 40.2839L81.7774 40.0202L80.679 39.6386L80.5874 39.9022L81.6858 40.2839ZM81.6387 39.4177L77.4696 35.2609L76.6486 36.0843L80.8177 40.2411L81.6387 39.4177ZM77.4707 35.2619C76.2136 34.0024 75.5707 33.2323 75.2618 32.7331C75.1098 32.4874 75.0583 32.3379 75.0422 32.2522C75.0289 32.1822 75.0361 32.1417 75.0524 32.0948L73.954 31.7131C73.8787 31.9298 73.8445 32.1765 73.8995 32.468C73.9517 32.7438 74.0781 33.03 74.273 33.3449C74.6578 33.967 75.3844 34.8176 76.6476 36.0833L77.4707 35.2619ZM75.0524 32.0948C75.0613 32.0692 75.0653 32.0696 75.0547 32.0825C75.0424 32.0975 75.019 32.1184 74.9849 32.1335C74.9145 32.1647 74.8868 32.1357 74.9559 32.1597L75.3376 31.0613C75.0992 30.9785 74.8031 30.9424 74.5145 31.0701C74.2173 31.2016 74.0436 31.455 73.954 31.7131L75.0524 32.0948ZM74.9559 32.1597C75.0405 32.1891 75.1585 32.2594 75.3246 32.4055C75.489 32.55 75.6676 32.7387 75.8819 32.9734L76.7406 32.1894C76.527 31.9554 76.31 31.7235 76.0925 31.5322C75.8767 31.3425 75.6265 31.1617 75.3376 31.0613L74.9559 32.1597ZM75.8818 32.9733L77.7897 35.0642L78.6486 34.2804L76.7408 32.1895L75.8818 32.9733ZM77.7908 35.0654C78.1466 35.4532 78.5442 35.8582 78.9595 36.2042C79.3699 36.546 79.8281 36.8563 80.3076 37.0229L80.6893 35.9245C80.3999 35.8239 80.0667 35.613 79.7038 35.3107C79.3458 35.0125 78.9881 34.6504 78.6475 34.2792L77.7908 35.0654ZM80.3076 37.0229C81.0816 37.2918 81.8456 37.2907 82.5174 36.8665C83.1599 36.4607 83.6121 35.7321 83.9398 34.7888L82.8414 34.4072C82.5509 35.2434 82.216 35.6815 81.8965 35.8833C81.6064 36.0665 81.2334 36.1135 80.6893 35.9245L80.3076 37.0229ZM80.4498 44.2845C80.553 43.1328 80.916 42.0083 81.4992 40.8086L80.4534 40.3002C79.8284 41.5858 79.411 42.8492 79.2916 44.1806L80.4498 44.2845ZM81.3886 40.1444L73.1965 31.9062L72.372 32.7261L80.5641 40.9643L81.3886 40.1444ZM72.4438 31.8448L72.2137 32.0111L72.8946 32.9536L73.1248 32.7874L72.4438 31.8448ZM71.9728 32.4718C71.9507 33.695 71.5241 35.0105 70.7974 36.2285L71.7961 36.8243C72.6023 35.4727 73.1089 33.9611 73.1355 32.4929L71.9728 32.4718ZM70.8993 36.9507L79.2584 44.7792L80.0533 43.9305L71.6942 36.102L70.8993 36.9507ZM79.9435 44.8601L80.1583 44.7378L79.583 43.7273L79.3682 43.8496L79.9435 44.8601Z" fill="#6A3051"/>
<path d="M85.0701 20.5548C84.7601 15.844 81.8183 13.2874 78.3838 13.5134C76.1328 13.6615 74.7005 15.2707 74.8471 17.4985C74.9967 19.7728 77.4124 20.7092 80.8695 21.1809L80.8512 20.9024C77.5626 20.5129 75.8169 19.4857 75.7634 18.6735C75.7207 18.0237 76.4975 17.7861 77.7506 17.7037C80.489 17.5235 84.6847 18.9487 84.7749 20.3179C84.8222 21.0373 83.8533 21.5439 82.3449 21.6431C79.7226 21.8157 76.1082 20.7251 73.2737 19.4433C71.1597 18.487 69.6012 17.4709 69.5249 16.3105C69.4607 15.3359 70.9374 14.3997 74.5578 13.8118L74.538 13.5101C72.9001 13.0585 71.4326 12.3627 70.0765 11.5896C69.5138 12.9551 69.1624 15.0525 69.2372 16.1896C69.4052 18.7423 70.1784 20.9289 72.304 22.7701C74.38 24.5679 77.8644 25.8069 80.6259 25.6252C83.2482 25.4526 85.2992 24.0358 85.0701 20.5548Z" fill="url(#paint6_linear_920_32740)"/>
<path d="M80.8695 21.1809L80.7909 21.757L81.4964 21.8532L81.4497 21.1427L80.8695 21.1809ZM80.8512 20.9024L81.4313 20.8642L81.3996 20.3819L80.9196 20.325L80.8512 20.9024ZM73.2737 19.4433L73.034 19.973L73.0341 19.9731L73.2737 19.4433ZM74.5578 13.8118L74.651 14.3857L75.1727 14.301L75.138 13.7736L74.5578 13.8118ZM74.538 13.5101L75.1181 13.4719L75.091 13.0595L74.6925 12.9496L74.538 13.5101ZM70.0765 11.5896L70.3645 11.0845L69.7906 10.7573L69.539 11.3681L70.0765 11.5896ZM72.304 22.7701L71.9233 23.2096L71.9233 23.2096L72.304 22.7701ZM85.6503 20.5167C85.4879 18.0485 84.6312 16.0889 83.3091 14.771C81.9837 13.4497 80.2247 12.8096 78.3456 12.9332L78.422 14.0935C79.9775 13.9912 81.4066 14.5163 82.4882 15.5945C83.5732 16.6761 84.3424 18.3503 84.49 20.593L85.6503 20.5167ZM78.3456 12.9332C77.0879 13.016 76.0171 13.512 75.2816 14.34C74.5456 15.1687 74.1846 16.286 74.2669 17.5367L75.4272 17.4604C75.3629 16.4832 75.6448 15.6821 76.151 15.1122C76.6579 14.5416 77.4287 14.1589 78.422 14.0935L78.3456 12.9332ZM74.2669 17.5367C74.3581 18.9227 75.1592 19.88 76.3388 20.5257C77.4901 21.1558 79.0453 21.5188 80.7909 21.757L80.9481 20.6048C79.2365 20.3713 77.8554 20.0302 76.8971 19.5057C75.9673 18.9967 75.4857 18.3486 75.4272 17.4604L74.2669 17.5367ZM81.4497 21.1427L81.4313 20.8642L80.271 20.9406L80.2893 21.2191L81.4497 21.1427ZM80.9196 20.325C79.3166 20.1352 78.1243 19.7933 77.3442 19.4216C76.9531 19.2352 76.6867 19.0513 76.524 18.893C76.3553 18.7288 76.3438 18.6388 76.3436 18.6353L75.1833 18.7117C75.2098 19.1143 75.4365 19.4572 75.713 19.7263C75.9954 20.0012 76.381 20.2507 76.844 20.4713C77.7724 20.9137 79.0971 21.2801 80.7828 21.4798L80.9196 20.325ZM76.3436 18.6353C76.3422 18.6135 76.3448 18.6061 76.3444 18.6078C76.3437 18.6101 76.3425 18.6113 76.3444 18.6088C76.3507 18.6005 76.3868 18.5598 76.5038 18.5086C76.7503 18.401 77.1706 18.3245 77.7888 18.2838L77.7124 17.1235C77.0775 17.1653 76.4828 17.2489 76.0383 17.443C75.8099 17.5428 75.5815 17.6885 75.4149 17.9101C75.239 18.1441 75.1641 18.4206 75.1833 18.7117L76.3436 18.6353ZM77.7888 18.2838C79.0597 18.2002 80.712 18.4919 82.0589 18.9768C82.7307 19.2187 83.2949 19.4975 83.6845 19.7782C84.1066 20.0823 84.1904 20.2902 84.1947 20.3561L85.355 20.2797C85.3143 19.661 84.8398 19.1773 84.3642 18.8347C83.8562 18.4687 83.1834 18.1458 82.4528 17.8827C80.9946 17.3577 79.1799 17.0269 77.7124 17.1235L77.7888 18.2838ZM84.1947 20.3561C84.197 20.3912 84.1951 20.5246 83.8675 20.7013C83.5436 20.8758 83.0161 21.0163 82.3068 21.063L82.3831 22.2233C83.1822 22.1707 83.8933 22.0083 84.4192 21.7249C84.9412 21.4435 85.4 20.9639 85.355 20.2797L84.1947 20.3561ZM82.3068 21.063C79.8302 21.226 76.3228 20.1841 73.5132 18.9136L73.0341 19.9731C75.8936 21.2661 79.6151 22.4055 82.3831 22.2233L82.3068 21.063ZM73.5133 18.9136C72.4695 18.4414 71.6016 17.9709 70.9933 17.4954C70.3689 17.0073 70.1265 16.5991 70.105 16.2724L68.9447 16.3487C68.9996 17.1823 69.5746 17.8623 70.2771 18.4115C70.9956 18.9732 71.9639 19.4889 73.034 19.973L73.5133 18.9136ZM70.105 16.2724C70.0966 16.1439 70.1721 15.8308 70.931 15.4303C71.6626 15.0442 72.8647 14.6757 74.651 14.3857L74.4646 13.2379C72.6305 13.5357 71.284 13.9293 70.3883 14.4019C69.5197 14.8602 68.889 15.5025 68.9447 16.3487L70.105 16.2724ZM75.138 13.7736L75.1181 13.4719L73.9578 13.5483L73.9777 13.85L75.138 13.7736ZM74.6925 12.9496C73.1163 12.5151 71.6948 11.8429 70.3645 11.0845L69.7886 12.0947C71.1704 12.8825 72.6838 13.602 74.3834 14.0706L74.6925 12.9496ZM69.539 11.3681C69.2371 12.1007 68.999 13.0093 68.8454 13.8735C68.6925 14.7335 68.6153 15.5936 68.6571 16.2278L69.8174 16.1515C69.7843 15.6486 69.8454 14.8914 69.9902 14.077C70.1343 13.2668 70.3533 12.444 70.6141 11.8111L69.539 11.3681ZM68.6571 16.2278C68.8324 18.8925 69.6513 21.2415 71.9233 23.2096L72.6846 22.3306C70.7055 20.6163 69.978 18.5921 69.8174 16.1515L68.6571 16.2278ZM71.9233 23.2096C74.1088 25.1021 77.7418 26.3977 80.6641 26.2054L80.5877 25.045C77.987 25.2162 74.6513 24.0337 72.6846 22.3306L71.9233 23.2096ZM80.6641 26.2054C82.0598 26.1135 83.383 25.6861 84.3282 24.742C85.2865 23.7848 85.773 22.3806 85.6503 20.5167L84.49 20.593C84.5964 22.21 84.1719 23.2547 83.5064 23.9193C82.8278 24.597 81.8144 24.9643 80.5877 25.045L80.6641 26.2054Z" fill="#6A3051"/>
</g>
<defs>
<filter id="filter0_d_920_32740" x="8.16556" y="10.6458" width="79.5434" height="60.7974" filterUnits="userSpaceOnUse" color-interpolation-filters="sRGB">
<feFlood flood-opacity="0" result="BackgroundImageFix"/>
<feColorMatrix in="SourceAlpha" type="matrix" values="0 0 0 0 0 0 0 0 0 0 0 0 0 0 0 0 0 0 127 0" result="hardAlpha"/>
<feOffset dy="2.32565"/>
<feGaussianBlur stdDeviation="1.16282"/>
<feComposite in2="hardAlpha" operator="out"/>
<feColorMatrix type="matrix" values="0 0 0 0 0 0 0 0 0 0 0 0 0 0 0 0 0 0 0.25 0"/>
<feBlend mode="normal" in2="BackgroundImageFix" result="effect1_dropShadow_920_32740"/>
<feBlend mode="normal" in="SourceGraphic" in2="effect1_dropShadow_920_32740" result="shape"/>
</filter>
<linearGradient id="paint0_linear_920_32740" x1="29.6904" y1="39.3509" x2="12.2207" y2="64.9596" gradientUnits="userSpaceOnUse">
<stop stop-color="#633F1C"/>
<stop offset="0.534899" stop-color="#E4D68A"/>
<stop offset="0.609244" stop-color="#EEECB3"/>
<stop offset="0.677083" stop-color="#C6AE68"/>
<stop offset="1" stop-color="#64401C"/>
</linearGradient>
<linearGradient id="paint1_linear_920_32740" x1="36.4878" y1="42.3241" x2="29.1211" y2="72.4361" gradientUnits="userSpaceOnUse">
<stop stop-color="#633F1C"/>
<stop offset="0.534899" stop-color="#E4D68A"/>
<stop offset="0.609244" stop-color="#EEECB3"/>
<stop offset="0.677083" stop-color="#C6AE68"/>
<stop offset="1" stop-color="#64401C"/>
</linearGradient>
<linearGradient id="paint2_linear_920_32740" x1="44.2855" y1="42.6371" x2="48.5959" y2="73.336" gradientUnits="userSpaceOnUse">
<stop stop-color="#633F1C"/>
<stop offset="0.534899" stop-color="#E4D68A"/>
<stop offset="0.609244" stop-color="#EEECB3"/>
<stop offset="0.677083" stop-color="#C6AE68"/>
<stop offset="1" stop-color="#64401C"/>
</linearGradient>
<linearGradient id="paint3_linear_920_32740" x1="51.0757" y1="40.3409" x2="65.8897" y2="67.5722" gradientUnits="userSpaceOnUse">
<stop stop-color="#633F1C"/>
<stop offset="0.534899" stop-color="#E4D68A"/>
<stop offset="0.609244" stop-color="#EEECB3"/>
<stop offset="0.677083" stop-color="#C6AE68"/>
<stop offset="1" stop-color="#64401C"/>
</linearGradient>
<linearGradient id="paint4_linear_920_32740" x1="56.7636" y1="35.7465" x2="79.9129" y2="56.3647" gradientUnits="userSpaceOnUse">
<stop stop-color="#633F1C"/>
<stop offset="0.534899" stop-color="#E4D68A"/>
<stop offset="0.609244" stop-color="#EEECB3"/>
<stop offset="0.677083" stop-color="#C6AE68"/>
<stop offset="1" stop-color="#64401C"/>
</linearGradient>
<linearGradient id="paint5_linear_920_32740" x1="60.6319" y1="29.0295" x2="89.9147" y2="39.204" gradientUnits="userSpaceOnUse">
<stop stop-color="#633F1C"/>
<stop offset="0.534899" stop-color="#E4D68A"/>
<stop offset="0.609244" stop-color="#EEECB3"/>
<stop offset="0.677083" stop-color="#C6AE68"/>
<stop offset="1" stop-color="#64401C"/>
</linearGradient>
<linearGradient id="paint6_linear_920_32740" x1="61.7185" y1="20.9265" x2="92.6516" y2="18.8907" gradientUnits="userSpaceOnUse">
<stop stop-color="#633F1C"/>
<stop offset="0.534899" stop-color="#E4D68A"/>
<stop offset="0.609244" stop-color="#EEECB3"/>
<stop offset="0.677083" stop-color="#C6AE68"/>
<stop offset="1" stop-color="#64401C"/>
</linearGradient>
</defs>
</svg>
