<svg width="50" height="51" viewBox="0 0 50 51" fill="none" xmlns="http://www.w3.org/2000/svg">
<circle cx="25" cy="25" r="25" transform="matrix(-1 0 0 1 50 0.5)" fill="#CE9AB8"/>
<path fill-rule="evenodd" clip-rule="evenodd" d="M20.5697 16.5722C20.4998 16.6418 20.4443 16.7246 20.4065 16.8158C20.3686 16.907 20.3491 17.0047 20.3491 17.1034C20.3491 17.2021 20.3686 17.2999 20.4065 17.391C20.4443 17.4822 20.4998 17.565 20.5697 17.6347L29.0385 26.1034L20.5685 34.5722C20.4276 34.713 20.3484 34.9041 20.3484 35.1034C20.3484 35.3027 20.4276 35.4938 20.5685 35.6347C20.7094 35.7755 20.9005 35.8547 21.0997 35.8547C21.299 35.8547 21.4901 35.7755 21.631 35.6347L30.631 26.6347C30.7009 26.565 30.7564 26.4822 30.7942 26.391C30.8321 26.2999 30.8516 26.2021 30.8516 26.1034C30.8516 26.0047 30.8321 25.907 30.7942 25.8158C30.7564 25.7246 30.7009 25.6418 30.631 25.5722L21.631 16.5722C21.5613 16.5022 21.4785 16.4468 21.3873 16.4089C21.2962 16.371 21.1984 16.3516 21.0997 16.3516C21.001 16.3516 20.9033 16.371 20.8121 16.4089C20.7209 16.4468 20.6394 16.5022 20.5697 16.5722Z" fill="white"/>
</svg>
