<svg width="70" height="70" viewBox="0 0 70 70" fill="none" xmlns="http://www.w3.org/2000/svg">
<circle cx="35" cy="35" r="35" fill="#D9D9D9"/>
<path d="M25.8227 43.5219L25.8633 43.8009L32.1335 43.7337L32.0633 40.6003C32.0509 40.067 31.8356 39.5645 31.4571 39.186L29.6014 37.3303C29.302 37.0309 28.9075 36.8273 28.4907 36.7567L27.3822 36.565C27.3693 36.5628 27.3598 36.5551 27.3474 36.5516C27.3235 36.5449 27.3011 36.5366 27.2784 36.5247C27.2563 36.5133 27.2371 36.5001 27.2177 36.4844C27.2077 36.4762 27.1953 36.4727 27.1858 36.4632L24.3678 33.6432C23.9915 33.2669 23.3275 33.2671 22.951 33.6432C22.5602 34.0339 22.5602 34.6693 22.951 35.06L26.1883 38.2974C26.331 38.44 26.331 38.671 26.1883 38.8133C26.1169 38.8848 26.0238 38.9203 25.9305 38.9203C25.8369 38.9203 25.7438 38.8848 25.6727 38.8133L22.4353 35.5759C21.7603 34.901 21.7603 33.8024 22.4353 33.1272C22.5463 33.0162 22.6732 32.9291 22.8064 32.8532L22.3298 30.9229C22.3255 30.9062 22.3295 30.89 22.3275 30.8736C22.3258 30.8564 22.3186 30.8412 22.3191 30.8236L22.3999 28.3246C22.4286 27.3808 21.6842 26.5869 20.7404 26.5555C20.5888 26.5466 20.4368 26.6113 20.3265 26.721C20.223 26.8246 20.1655 26.9562 20.1605 27.1026L20 32.1622L20.3686 35.6575C20.4639 36.5686 20.8756 37.4297 21.5274 38.0818L24.6615 41.2159C25.2902 41.8441 25.6914 42.6415 25.8228 43.5217L25.8227 43.5219Z" fill="#A54A7C"/>
<path d="M33.2521 44.826C33.0079 44.5869 32.7001 44.4632 32.3479 44.4609L25.6676 44.5324C24.9643 44.5398 24.3989 45.118 24.4063 45.8211L24.4494 49.8474C24.4529 50.1859 24.5895 50.5047 24.8339 50.7436C25.0783 50.9828 25.3901 51.1097 25.738 51.1087L32.4183 51.0373C32.7573 51.0338 33.0756 50.8972 33.3145 50.6528C33.5537 50.4084 33.6834 50.0873 33.6799 49.7486L33.6368 45.7223C33.6331 45.3836 33.4965 45.065 33.2521 44.826Z" fill="#A54A7C"/>
<path d="M50.2618 27.1008C50.2569 26.9562 50.1994 26.8243 50.0963 26.7213C49.9858 26.611 49.8397 26.5478 49.6777 26.5553C48.7382 26.5864 47.994 27.38 48.0227 28.3246L48.1035 30.8228C48.1043 30.8403 48.0971 30.8557 48.0951 30.8729C48.0933 30.8895 48.0973 30.9057 48.0928 30.9221L47.6162 32.8524C47.7494 32.9281 47.8763 33.0155 47.9873 33.1265C48.6623 33.8014 48.6623 34.9 47.9873 35.5752L44.7499 38.8126C44.6785 38.884 44.5854 38.9196 44.4921 38.9196C44.3985 38.9196 44.3054 38.884 44.2343 38.8126C44.0916 38.67 44.0916 38.439 44.2343 38.2967L47.4716 35.0593C47.8624 34.6685 47.8624 34.0332 47.4716 33.6424C47.0953 33.2661 46.4313 33.2656 46.0548 33.6424L43.2368 36.4625C43.2276 36.4717 43.2151 36.4754 43.2049 36.4836C43.186 36.4991 43.1663 36.5123 43.1442 36.524C43.1218 36.5357 43.0991 36.5439 43.0752 36.5508C43.063 36.5543 43.0531 36.5623 43.0404 36.5643L41.9329 36.7554C41.5148 36.8261 41.1205 37.0302 40.8212 37.3296L38.9655 39.1852C38.587 39.5638 38.3717 40.0662 38.3593 40.5998L38.2891 43.7327L44.5593 43.7999L44.5996 43.5219C44.7313 42.6404 45.1327 41.8428 45.7609 41.2146L48.895 38.0805C49.5473 37.4282 49.959 36.5673 50.0538 35.6564L50.4224 32.1612L50.2618 27.1008Z" fill="#A54A7C"/>
<path d="M44.7543 44.5324L38.074 44.4609H38.0601C37.7266 44.4609 37.4108 44.5904 37.1698 44.8263C36.9254 45.0655 36.7888 45.384 36.7853 45.7225L36.7423 49.7488C36.7388 50.0873 36.8684 50.4086 37.1076 50.653C37.3468 50.8974 37.6648 51.034 38.0038 51.0375L44.6841 51.1087C45.0173 51.1109 45.3438 50.9827 45.5882 50.7436C45.8326 50.5044 45.9693 50.1858 45.9728 49.8474L46.0158 45.821C46.023 45.1182 45.4576 44.5398 44.7542 44.5323L44.7543 44.5324Z" fill="#A54A7C"/>
<path d="M36.9219 33.688C37.4545 33.5442 37.9612 33.3349 38.4351 33.0616L39.2743 33.9008C39.4649 34.0915 39.7148 34.1866 39.9655 34.1866C40.2156 34.1866 40.4657 34.0912 40.6561 33.9008L41.6897 32.8672C42.0708 32.4862 42.0708 31.8665 41.6897 31.4854L40.8505 30.6462C41.1235 30.1723 41.3333 29.6656 41.4767 29.133H42.6616C43.2012 29.133 43.6399 28.6943 43.6399 28.1547V26.6968C43.6399 26.1572 43.2011 25.7185 42.6616 25.7185H41.4767C41.3328 25.1859 41.1235 24.6792 40.8505 24.2053L41.6897 23.3661C42.0708 22.985 42.0708 22.3653 41.6897 21.9842L40.6561 20.9502C40.2751 20.5694 39.6554 20.5699 39.2743 20.9502L38.4351 21.7897C37.9612 21.5166 37.4545 21.3068 36.9219 21.1632V19.9783C36.9219 19.4387 36.4829 19 35.9436 19H34.4856C33.9461 19 33.5073 19.4388 33.5073 19.9783V21.1632C32.9747 21.3071 32.4681 21.5164 31.9942 21.7897L31.1549 20.9502C30.7739 20.5694 30.1542 20.5699 29.7731 20.9502L28.7395 21.9842C28.3585 22.3653 28.3585 22.985 28.7395 23.3661L29.5787 24.2053C29.3057 24.6791 29.0959 25.1859 28.9526 25.7185H27.7674C27.2278 25.7185 26.7891 26.1572 26.7891 26.6968V28.1547C26.7891 28.6943 27.2278 29.133 27.7674 29.133H28.9526C29.0964 29.6656 29.3057 30.1723 29.5787 30.6462L28.7395 31.4854C28.3585 31.8665 28.3585 32.4862 28.7395 32.8672L29.7731 33.9008C29.9638 34.0915 30.2136 34.1866 30.4638 34.1866C30.7141 34.1866 30.9643 34.0912 31.1549 33.9008L31.9942 33.0616C32.468 33.3346 32.9748 33.5444 33.5073 33.688V34.873C33.5073 35.4126 33.9461 35.8513 34.4856 35.8513H35.9436C36.4832 35.8513 36.9219 35.4125 36.9219 34.873V33.688ZM38.3704 27.4255C38.3704 29.1656 36.9545 30.5813 35.2146 30.5813C33.4745 30.5813 32.0588 29.1654 32.0588 27.4255C32.0588 25.6856 33.4745 24.2698 35.2146 24.2698C36.9547 24.2698 38.3704 25.6856 38.3704 27.4255Z" fill="#A54A7C"/>
</svg>
