<svg width="33" height="27" viewBox="0 0 33 27" fill="none" xmlns="http://www.w3.org/2000/svg">
<g clip-path="url(#clip0_20_115)">
<path d="M29.4006 6.63848C29.4206 6.92779 29.4206 7.2171 29.4206 7.50908C29.4206 16.4056 22.6609 26.6661 10.3005 26.6661V26.6608C6.64924 26.6661 3.07379 25.6182 0 23.6424C0.530928 23.7064 1.06452 23.7384 1.59944 23.7397C4.62533 23.7424 7.56472 22.7251 9.94529 20.8519C7.06972 20.7973 4.54815 18.9188 3.66726 16.1763C4.67456 16.371 5.71246 16.331 6.70113 16.0603C3.56613 15.4257 1.31069 12.6659 1.31069 9.46092C1.31069 9.43159 1.31069 9.40359 1.31069 9.37559C2.2448 9.89685 3.29069 10.1861 4.36053 10.2181C1.40783 8.24102 0.497662 4.30534 2.28073 1.22825C5.6925 5.43458 10.7263 7.9917 16.1301 8.26235C15.5885 5.92387 16.3284 3.4734 18.0742 1.82954C20.7807 -0.719592 25.0374 -0.588936 27.5816 2.12151C29.0866 1.8242 30.529 1.27091 31.849 0.486977C31.3474 2.04552 30.2975 3.36941 28.895 4.21068C30.2269 4.05336 31.5283 3.69605 32.7538 3.15076C31.8517 4.50532 30.7153 5.68522 29.4006 6.63848Z" fill="white"/>
</g>
<defs>
<clipPath id="clip0_20_115">
<rect width="33" height="27" fill="white"/>
</clipPath>
</defs>
</svg>
