<svg width="33" height="27" viewBox="0 0 33 27" fill="none" xmlns="http://www.w3.org/2000/svg">
<path d="M29.5334 6.83843C29.5534 7.12774 29.5534 7.41705 29.5534 7.70903C29.5534 16.6056 22.7937 26.8661 10.4333 26.8661V26.8608C6.78205 26.8661 3.2066 25.8182 0.132812 23.8424C0.66374 23.9064 1.19733 23.9384 1.73225 23.9397C4.75814 23.9424 7.69753 22.9251 10.0781 21.0519C7.20253 20.9973 4.68096 19.1188 3.80007 16.3763C4.80737 16.571 5.84527 16.531 6.83394 16.2603C3.69894 15.6257 1.4435 12.8659 1.4435 9.66087C1.4435 9.63154 1.4435 9.60354 1.4435 9.57554C2.37761 10.0968 3.4235 10.3861 4.49334 10.4181C1.54064 8.44097 0.630474 4.50529 2.41354 1.4282C5.82531 5.63453 10.8591 8.19165 16.2629 8.4623C15.7213 6.12382 16.4612 3.67335 18.207 2.02949C20.9135 -0.519641 25.1702 -0.388985 27.7144 2.32146C29.2194 2.02415 30.6618 1.47086 31.9818 0.686928C31.4802 2.24547 30.4303 3.56936 29.0278 4.41063C30.3597 4.25331 31.6611 3.896 32.8866 3.35071C31.9845 4.70527 30.8481 5.88517 29.5334 6.83843Z" fill="#6A3051"/>
</svg>
