<svg width="31" height="22" viewBox="0 0 31 22" fill="none" xmlns="http://www.w3.org/2000/svg">
<path d="M30.3522 3.39861C29.9957 2.06071 28.9454 1.00717 27.6115 0.649609C25.194 -0.000209808 15.5 -0.000209808 15.5 -0.000209808C15.5 -0.000209808 5.80604 -0.000209808 3.38849 0.649609C2.05474 1.00717 1.00425 2.06071 0.647782 3.39861C0 5.82346 0 10.8828 0 10.8828C0 10.8828 0 15.942 0.647782 18.3671C1.00425 19.7048 2.05474 20.7584 3.38849 21.1161C5.80604 21.7657 15.5 21.7657 15.5 21.7657C15.5 21.7657 25.194 21.7657 27.6115 21.1161C28.9454 20.7584 29.9957 19.7048 30.3522 18.3671C31 15.942 31 10.8828 31 10.8828C31 10.8828 31 5.82346 30.3522 3.39861Z" fill="#6A3051"/>
<path d="M12.3291 15.476L20.4314 10.8827L12.3291 6.28905V15.476Z" fill="#D4A7C1"/>
</svg>
