<svg width="31" height="22" viewBox="0 0 31 22" fill="none" xmlns="http://www.w3.org/2000/svg">
<g clip-path="url(#clip0_20_117)">
<path d="M30.3522 3.39882C29.9957 2.06092 28.9454 1.00738 27.6115 0.649819C25.194 0 15.5 0 15.5 0C15.5 0 5.80604 0 3.38849 0.649819C2.05474 1.00738 1.00425 2.06092 0.647782 3.39882C0 5.82367 0 10.883 0 10.883C0 10.883 0 15.9422 0.647782 18.3673C1.00425 19.705 2.05474 20.7586 3.38849 21.1163C5.80604 21.7659 15.5 21.7659 15.5 21.7659C15.5 21.7659 25.194 21.7659 27.6115 21.1163C28.9454 20.7586 29.9957 19.705 30.3522 18.3673C31 15.9422 31 10.883 31 10.883C31 10.883 31 5.82367 30.3522 3.39882Z" fill="white"/>
<path d="M12.3291 15.476L20.4314 10.8827L12.3291 6.28906V15.476Z" fill="#A5A5A5"/>
</g>
<defs>
<clipPath id="clip0_20_117">
<rect width="31" height="22" fill="white"/>
</clipPath>
</defs>
</svg>
