<svg width="31" height="34" viewBox="0 0 31 34" fill="none" xmlns="http://www.w3.org/2000/svg">
<path d="M29.3263 9.0353H23.6524C23.617 9.70722 23.2977 10.3083 22.7305 10.6973H28.3333V22.1541L30 23.2858V9.70728C30 9.3183 29.7163 9.03536 29.3262 9.03536L29.3263 9.0353ZM20.4965 32.8331H18.546L17.7305 28.2717H22.5179L22.0924 24.7709H1.6668V10.662H7.26966C6.70223 10.3082 6.34774 9.67185 6.34774 9H0.673825C0.28374 9 0 9.28292 0 9.67192V27.5645C0 27.9182 0.283721 28.2364 0.673825 28.2364H12.2342L11.4186 32.7978H9.46819C9.32645 32.7978 9.18447 32.9039 9.18447 33.0807V33.7171C9.18447 33.8584 9.29083 34 9.46819 34H20.4611C20.6029 34 20.7449 33.8939 20.7449 33.7171V33.0807C20.7802 32.9394 20.6739 32.8333 20.4965 32.8333L20.4965 32.8331ZM15.2129 27.2108H14.8228C14.4681 27.2108 14.149 26.8926 14.149 26.5389C14.149 26.1499 14.4681 25.867 14.8228 25.867H15.2129C15.5676 25.867 15.8867 26.1852 15.8867 26.5389C15.8867 26.8926 15.5674 27.2108 15.2129 27.2108Z" fill="#6A3051"/>
<path d="M30.7661 24.7661L23.8009 20.0912C23.4399 19.8468 22.9347 20.126 23.007 20.5448L23.9812 28.708C24.0172 29.1266 24.5587 29.3011 24.8474 29.022L26.6158 27.3823L28.0955 29.7544C28.2398 29.9988 28.5647 30.0683 28.8172 29.9289L29.6112 29.4753C29.8639 29.3359 29.9359 29.0217 29.7917 28.7777L28.312 26.3707L30.6576 25.638C31.0546 25.4986 31.1269 24.9754 30.7659 24.7661L30.7661 24.7661Z" fill="#6A3051"/>
<path d="M11.0393 1.28052C11.1427 0.658616 11.6252 0.182922 12.1766 0.073234C13.1072 -0.10974 13.9688 0.658642 13.9688 1.60978C13.9688 2.26816 13.5897 2.81706 13.0382 3.07302V6.40226L14.9681 7.64606L16.967 6.36548V3.03624C16.4155 2.81677 16.0364 2.23138 16.0364 1.573C16.0364 0.731621 16.6913 0 17.5182 0C18.3454 0 19 0.695168 19 1.573C19 2.23138 18.6209 2.78028 18.0694 3.03624V6.69467C18.0694 6.91414 17.9661 7.09711 17.7937 7.20684L15.519 8.70686L15.5193 17.4146C15.5193 17.7438 15.2779 18 14.9678 18C14.6577 18 14.4163 17.7438 14.4163 17.4146L14.4166 8.67093L12.2109 7.20769C12.0386 7.09796 11.9352 6.91498 11.9352 6.69552V3.03709C11.2803 2.78087 10.8669 2.08576 11.0392 1.28084L11.0393 1.28052Z" fill="#6A3051"/>
<path d="M7 5.53664C7 4.57239 7.94694 3.8226 9.00751 4.0368C9.61361 4.14391 10.1058 4.60822 10.2197 5.17966C10.4092 5.9653 9.95445 6.67951 9.27279 6.92955V8.39375L11.6969 9.82204C11.8864 9.92916 12 10.1078 12 10.322V14.4286C12 14.7499 11.7347 15 11.3939 15C11.0531 15 10.7878 14.7499 10.7878 14.4286V10.6433L8.36364 9.21501C8.1742 9.1079 8.06058 8.9293 8.06058 8.71508V6.92955C7.4167 6.71507 7.00001 6.14366 7.00001 5.53658L7 5.53664Z" fill="#6A3051"/>
<path d="M19.6107 14.9999C19.2673 14.9999 19 14.7506 19 14.4303V10.337C19 10.159 19.1145 9.94545 19.3054 9.83869L21.748 8.41502V6.95555C21.0611 6.70626 20.6029 5.99442 20.7938 5.21133C20.9083 4.64175 21.4046 4.17919 22.0153 4.03669C23.0839 3.82315 24 4.57051 24 5.53168C24 6.17227 23.5802 6.70632 22.9694 6.91989V8.69965C22.9694 8.87768 22.855 9.09121 22.6641 9.19797L20.2215 10.6216V14.3947C20.2595 14.751 19.9542 15 19.6107 15L19.6107 14.9999Z" fill="#6A3051"/>
</svg>
