<svg width="37" height="25" viewBox="0 0 37 25" fill="none" xmlns="http://www.w3.org/2000/svg">
<path d="M18.9891 14.6274C18.7358 14.7118 18.5249 14.754 18.2716 14.754C18.0183 14.754 17.7653 14.7118 17.512 14.6274L8.26953 11.7153V17.033C8.26953 19.0587 12.7854 20.7048 18.3563 20.7048C23.9273 20.7048 28.443 19.0589 28.443 17.033L28.4426 11.6309L18.9891 14.6274Z" fill="#6A3051"/>
<path d="M36.2918 6.14503L18.6507 0.531635C18.5663 0.489455 18.482 0.489455 18.4396 0.531635L0.503295 6.14503C0.334361 6.18721 0.25 6.31375 0.25 6.48268V6.6938C0.25 6.86252 0.334361 6.98927 0.503295 7.03145L5.65226 8.67732C4.89259 9.98552 4.42838 11.716 4.30163 13.9106C3.6685 14.2481 3.20429 14.9234 3.20429 15.7252C3.20429 16.3583 3.49976 16.9491 3.96396 17.3289L2.90883 23.1105C2.90883 23.1527 2.86665 23.1949 2.86665 23.237C2.86665 23.7856 3.92178 24.25 5.18781 24.25C6.49601 24.25 7.50898 23.7858 7.50898 23.237C7.50898 23.1949 7.50897 23.1527 7.4668 23.1105L6.58059 17.2442C7.0026 16.8644 7.2981 16.3159 7.2981 15.7249C7.2981 15.0074 6.96044 14.4167 6.41189 14.0369C6.58061 11.9266 7.00286 10.4072 7.76252 9.35234L18.1868 12.6443C18.2711 12.6865 18.3555 12.6865 18.3979 12.6443L36.3342 7.03091C36.5029 6.98873 36.5875 6.86219 36.5875 6.69325V6.48214C36.5451 6.31321 36.4607 6.18667 36.2918 6.14449L36.2918 6.14503Z" fill="#6A3051"/>
</svg>
