<svg width="30" height="30" viewBox="0 0 30 30" fill="none" xmlns="http://www.w3.org/2000/svg">
<path d="M10.0317 5.66615C10.0317 6.93639 9.04678 7.96622 7.8319 7.96622C6.61678 7.96622 5.63184 6.93639 5.63184 5.66615C5.63184 4.39591 6.61678 3.36609 7.8319 3.36609C9.04678 3.36609 10.0317 4.39591 10.0317 5.66615Z" fill="#6A3051"/>
<path d="M8.99753 8.03194L7.86444 8.8984L6.73135 8.03194C6.39797 8.09866 3.73196 8.76515 3.49855 10.8314C3.4653 11.0313 3.56527 11.2313 3.73195 11.3647C4.23178 11.6981 5.46506 12.3646 7.86467 12.3646C10.2643 12.3646 11.4973 11.6981 11.9974 11.3647C12.1641 11.2315 12.264 11.0313 12.2308 10.8314C11.9637 8.76515 9.29742 8.09841 8.99753 8.03194Z" fill="#6A3051"/>
<path d="M24.8291 14.4649C24.8291 15.4222 24.0979 16.1983 23.1959 16.1983C22.2938 16.1983 21.5625 15.4222 21.5625 14.4649C21.5625 13.5076 22.2938 12.7318 23.1959 12.7318C24.0978 12.7318 24.8291 13.5076 24.8291 14.4649Z" fill="#6A3051"/>
<path d="M24.0635 16.2639L23.2302 16.9305L22.3968 16.2639C22.1634 16.3306 20.1635 16.8306 19.9635 18.364C19.9303 18.5307 19.9968 18.6639 20.1303 18.7639C20.4969 19.0306 21.4303 19.4972 23.2302 19.4972C25.03 19.4972 25.9636 18.9973 26.33 18.7639C26.4633 18.6639 26.53 18.5305 26.4968 18.364C26.2968 16.7971 24.2967 16.2971 24.0635 16.2639Z" fill="#6A3051"/>
<path d="M11.0996 21.9299C11.0996 22.8872 10.3684 23.6633 9.46623 23.6633C8.56432 23.6633 7.83301 22.8872 7.83301 21.9299C7.83301 20.9727 8.56426 20.1965 9.46623 20.1965C10.3684 20.1965 11.0996 20.9727 11.0996 21.9299Z" fill="#6A3051"/>
<path d="M10.3321 23.6963L9.49872 24.3629L8.66538 23.6963C8.43194 23.763 6.43204 24.2629 6.2321 25.7964C6.19885 25.9631 6.26535 26.0963 6.39882 26.1963C6.7655 26.463 7.69882 26.9296 9.49871 26.9296C11.2986 26.9296 12.2322 26.4297 12.5986 26.1963C12.7318 26.0963 12.7986 25.9629 12.7653 25.7964C12.5653 24.2629 10.5653 23.763 10.3321 23.6963Z" fill="#6A3051"/>
<path d="M29.9284 25.6958C29.6285 24.596 28.5286 23.9295 27.4288 24.1626L26.3289 21.3964C28.0621 20.3298 29.1951 18.4303 29.1951 16.2973C29.1951 12.9978 26.4956 10.2983 23.1961 10.2983C21.0964 10.2983 19.23 11.3981 18.1637 13.0313L14.9641 11.2981C15.4639 10.265 15.764 9.09845 15.764 7.86538C15.764 7.03218 15.6308 6.19898 15.3641 5.4325L18.7302 4.53259C19.1635 5.19909 19.9967 5.5992 20.8632 5.46577C22.0298 5.29908 22.8295 4.19925 22.6628 3.0329C22.4961 1.8663 21.3963 1.06661 20.2299 1.23331C19.0633 1.4 18.2969 2.49983 18.4303 3.63292L14.9975 4.56586C13.7645 1.86636 11.0315 0 7.86538 0C3.53269 0 0 3.53269 0 7.86538C0 12.1981 3.53269 15.7308 7.86538 15.7308H8.06531L8.33196 18.1304C5.59896 18.6637 3.49948 21.0965 3.49948 23.996C3.49948 27.2955 6.19898 29.995 9.4985 29.995C12.798 29.995 15.4975 27.2955 15.4975 23.996C15.4975 23.0961 15.2976 22.2296 14.931 21.4631L18.197 19.6301C19.2637 21.2297 21.0965 22.2963 23.163 22.2963C23.9629 22.2963 24.7294 22.1297 25.4626 21.8298L26.5292 24.5628C25.8628 25.0626 25.5294 25.9625 25.7628 26.8289C26.0627 27.962 27.2625 28.6285 28.3955 28.3286C29.5617 28.0287 30.2284 26.8289 29.9283 25.6959L29.9284 25.6958ZM1.13308 7.86544C1.13308 4.13278 4.16597 1.13321 7.86531 1.13321C11.5646 1.13321 14.5975 4.1661 14.5975 7.86544C14.5975 11.5648 11.5646 14.5977 7.86531 14.5977C4.16597 14.5977 1.13308 11.598 1.13308 7.86544ZM9.49837 28.862C6.79887 28.862 4.63238 26.6623 4.63238 23.996C4.63238 21.3297 6.83208 19.13 9.49837 19.13C12.1644 19.1303 14.3641 21.3297 14.3641 23.996C14.3641 26.6623 12.1644 28.862 9.49837 28.862ZM14.4641 20.6633C13.3975 19.0637 11.5646 17.997 9.49819 17.997H9.26478L8.99836 15.6642C11.298 15.3308 13.2643 13.9978 14.4973 12.1315L17.7301 13.8646C17.3968 14.5978 17.1968 15.431 17.1968 16.2974C17.1968 17.1974 17.3968 18.0638 17.7634 18.8303L14.4641 20.6633ZM18.3302 16.2974C18.3302 13.5979 20.5299 11.4315 23.1962 11.4315C25.8625 11.4315 28.0622 13.6312 28.0622 16.2974C28.0622 18.9637 25.8625 21.1634 23.1962 21.1634C20.5299 21.1634 18.3302 18.997 18.3302 16.2974Z" fill="#6A3051"/>
</svg>
