<svg width="36" height="30" viewBox="0 0 36 30" fill="none" xmlns="http://www.w3.org/2000/svg">
<path fill-rule="evenodd" clip-rule="evenodd" d="M28.2808 4.03299C28.6217 3.60171 28.8849 3.11448 29.0586 2.59286C28.5198 2.48151 27.9659 2.46544 27.4213 2.54522C26.5941 2.66378 25.7975 2.94022 25.0745 3.35907L25.0454 3.37707C24.3086 3.79588 23.6599 4.35373 23.1355 5.01937C22.7943 5.45065 22.5314 5.93816 22.358 6.45971C22.8968 6.57106 23.4507 6.58713 23.995 6.50763C24.8335 6.38603 25.6401 6.10294 26.3706 5.67386C27.1063 5.25476 27.7536 4.6972 28.2766 4.03156L28.2808 4.03299ZM14.2425 0.0968713C14.4159 0.61901 14.6791 1.1065 15.0201 1.53806C15.5447 2.20396 16.1932 2.76156 16.9303 3.18036C17.6607 3.60943 18.4676 3.8928 19.3061 4.01442C19.8504 4.09391 20.4046 4.07757 20.9434 3.96622C20.7697 3.44463 20.5063 2.95737 20.1653 2.52609C19.6423 1.86047 18.995 1.30259 18.2593 0.883508C17.5288 0.45444 16.7222 0.17135 15.8838 0.0497377C15.3395 -0.0300371 14.7855 -0.0136947 14.2467 0.0976574L14.2425 0.0968713ZM29.1097 15.7909V15.7912C27.7231 13.4661 25.3312 11.9207 22.6419 11.6121C19.9522 11.3032 17.2726 12.2666 15.3948 14.2169C16.349 14.5557 17.2354 15.0609 18.0132 15.7091L24.5459 17.347C24.555 17.347 24.5639 17.3506 24.5725 17.3531V17.3528C25.0783 17.4825 25.5342 17.7586 25.8829 18.147L29.1096 15.7908L29.1097 15.7909ZM5.47015 16.7989L0.5 19.7505L6.58643 30L11.5566 27.0486L10.6829 25.5794L6.19642 18.0224L5.47015 16.7995V16.7989ZM20.1664 21.8277L23.2355 22.61V22.6102C23.9288 22.7845 24.6632 22.6773 25.2781 22.3122C25.8928 21.9471 26.3382 21.3535 26.5169 20.661C26.5196 20.6508 26.5221 20.6408 26.5241 20.6308C26.639 20.153 26.6218 19.6528 26.4742 19.1838L32.9894 14.4264L33.0592 14.3807L33.0595 14.381C33.4105 14.1522 33.834 14.0613 34.2481 14.1264C34.6475 14.184 35.0076 14.3984 35.2492 14.722C35.2492 14.7239 35.2611 14.7405 35.2888 14.7843V14.7846C35.5306 15.146 35.627 15.5856 35.5588 16.0155C35.4824 16.4606 35.2469 16.8631 34.8965 17.1479L24.8038 25.5494L13.658 23.9528C13.5242 23.9334 13.388 23.9603 13.2716 24.0292L11.7011 24.9621L7.46387 17.8264C9.22473 16.2192 10.9074 15.3087 12.5121 15.0954C14.1799 14.8738 15.7959 15.4126 17.3603 16.712V16.7123C17.4288 16.7691 17.5091 16.8098 17.5955 16.8314L24.2569 18.5017L24.2797 18.5081L24.2794 18.5078C24.6658 18.6086 24.9959 18.8604 25.1951 19.2069C25.3976 19.5507 25.4597 19.9595 25.3683 20.3482L25.3627 20.3684C25.263 20.7553 25.014 21.0869 24.6702 21.2908C24.3267 21.4949 23.9162 21.5542 23.5287 21.4564L20.4599 20.6745C20.305 20.6299 20.1386 20.6498 19.9987 20.7302C19.8588 20.8102 19.7574 20.9437 19.7178 21.1C19.6779 21.2565 19.7034 21.4221 19.7879 21.5592C19.8724 21.6966 20.0092 21.7938 20.1666 21.8285L20.1664 21.8277Z" fill="#6A3051"/>
</svg>
