<svg width="36" height="36" viewBox="0 0 36 36" fill="none" xmlns="http://www.w3.org/2000/svg">
<path d="M18.0001 0.5C13.3588 0.5 8.90746 2.34369 5.6255 5.6255C2.34369 8.9076 0.5 13.3583 0.5 18.0001C0.5 22.642 2.34369 27.0928 5.6255 30.3747C8.9076 33.6565 13.3583 35.5002 18.0001 35.5002C18.7532 35.4962 19.4755 35.2011 20.0159 34.6768C20.5562 34.1521 20.8729 33.4392 20.8994 32.6867C20.9259 31.9342 20.6604 31.2004 20.1586 30.639C19.6516 30.0794 19.3833 29.3436 19.4109 28.5889C19.4385 27.834 19.7595 27.1197 20.3061 26.5985C20.8524 26.0769 21.581 25.7895 22.3361 25.7975H25.7779C28.3562 25.7975 30.8291 24.7733 32.6525 22.9501C34.4757 21.1266 35.5 18.6537 35.5 16.0755C35.5 7.46116 27.722 0.500583 18.0001 0.500583V0.5ZM7.30549 17.9999C6.53221 17.9999 5.79022 17.6926 5.24334 17.1457C4.69619 16.5985 4.38884 15.8568 4.38884 15.0832C4.38884 14.3097 4.69617 13.568 5.24334 13.0208C5.79022 12.4739 6.53221 12.1666 7.30549 12.1666C8.07906 12.1666 8.82105 12.4739 9.36792 13.0208C9.9148 13.568 10.2221 14.3097 10.2221 15.0832C10.2221 15.8568 9.91481 16.5985 9.36792 17.1457C8.82105 17.6925 8.07906 17.9999 7.30549 17.9999ZM13.1388 10.2219C12.3655 10.2219 11.6235 9.91459 11.0766 9.36771C10.5295 8.82083 10.2221 8.07884 10.2221 7.30527C10.2221 6.53199 10.5295 5.79 11.0766 5.24313C11.6235 4.69597 12.3655 4.38862 13.1388 4.38862C13.9124 4.38862 14.6543 4.69595 15.2012 5.24313C15.7481 5.79 16.0554 6.53199 16.0554 7.30527C16.0554 8.07884 15.7481 8.82083 15.2012 9.36771C14.6543 9.91458 13.9124 10.2219 13.1388 10.2219ZM22.861 10.2219C22.0874 10.2219 21.3454 9.91459 20.7986 9.36771C20.2517 8.82082 19.9443 8.07884 19.9443 7.30527C19.9443 6.53199 20.2517 5.79 20.7986 5.24313C21.3454 4.69597 22.0874 4.38862 22.861 4.38862C23.6343 4.38862 24.3763 4.69595 24.9231 5.24313C25.4703 5.79 25.7776 6.53199 25.7776 7.30527C25.7776 8.07884 25.4703 8.82083 24.9231 9.36771C24.3763 9.91458 23.6343 10.2219 22.861 10.2219ZM28.6943 17.9999C27.9207 17.9999 27.1787 17.6926 26.6318 17.1457C26.085 16.5985 25.7776 15.8568 25.7776 15.0832C25.7776 14.3097 26.085 13.568 26.6318 13.0208C27.1787 12.4739 27.9207 12.1666 28.6943 12.1666C29.4676 12.1666 30.2096 12.4739 30.7564 13.0208C31.3036 13.568 31.6109 14.3097 31.6109 15.0832C31.6109 15.8568 31.3036 16.5985 30.7564 17.1457C30.2096 17.6925 29.4676 17.9999 28.6943 17.9999Z" fill="#6A3051"/>
</svg>
