<svg width="37" height="37" viewBox="0 0 37 37" fill="none" xmlns="http://www.w3.org/2000/svg">
<path fill-rule="evenodd" clip-rule="evenodd" d="M5.44263 15.4208L1.906 18.9578C1.58463 19.2789 1.06219 19.2789 0.740816 18.9578C0.419728 18.6364 0.419728 18.114 0.740816 17.7926L18.042 0.491436C18.3633 0.169521 18.8858 0.169521 19.2071 0.491436L36.5083 17.7926C36.8294 18.1139 36.8294 18.6364 36.5083 18.9578C36.1869 19.2789 35.6645 19.2789 35.3431 18.9578L31.8065 15.4208V34.0284C31.8065 35.3878 30.6943 36.5 29.3349 36.5H7.91394C6.55457 36.5 5.44235 35.3878 5.44235 34.0284L5.44263 15.4208ZM15.329 34.8525H21.9201V24.1427C21.9201 23.6895 21.5494 23.3188 21.0961 23.3188H16.153C15.6997 23.3188 15.329 23.6895 15.329 24.1427V34.8525Z" fill="#6A3051"/>
</svg>
