<svg width="36" height="36" viewBox="0 0 36 36" fill="none" xmlns="http://www.w3.org/2000/svg">
<path d="M24.607 18.9063C24.6123 19.0074 24.6233 19.1077 24.6308 19.2088C24.6443 19.4084 24.6572 19.6073 24.6777 19.8055C24.6904 19.9271 24.7092 20.0476 24.7243 20.1686C24.7471 20.3447 24.7668 20.5216 24.7943 20.6971C24.8145 20.8263 24.8409 20.9538 24.8639 21.0824C24.8937 21.2481 24.9215 21.4141 24.9563 21.5789C24.9841 21.7115 25.0181 21.8426 25.049 21.974C25.0863 22.133 25.1212 22.2922 25.1627 22.4494C25.1975 22.5823 25.2385 22.7137 25.2764 22.8454C25.3208 22.9998 25.3641 23.1549 25.4126 23.3085C25.455 23.4396 25.5025 23.5696 25.5471 23.7005C25.5991 23.851 25.6494 24.0024 25.7055 24.1518C25.7547 24.2829 25.8092 24.4112 25.8617 24.5418C25.9209 24.6878 25.9779 24.8342 26.0408 24.9788C26.0976 25.1088 26.1588 25.2357 26.2186 25.3641C26.284 25.5059 26.3486 25.648 26.4177 25.7875C26.4809 25.9145 26.5488 26.0394 26.6151 26.165C26.6881 26.3028 26.7594 26.4413 26.8356 26.5772C26.9046 26.7005 26.9785 26.8212 27.0507 26.9428C27.1307 27.0773 27.2099 27.213 27.2936 27.3455C27.3691 27.4654 27.4489 27.582 27.5272 27.7002C27.614 27.8311 27.7005 27.9622 27.7909 28.0911C27.8723 28.2065 27.9577 28.32 28.0425 28.4337C28.1366 28.5598 28.2293 28.687 28.3267 28.8108C28.4143 28.9229 28.5053 29.0313 28.596 29.1414C28.6963 29.263 28.7965 29.3851 28.9001 29.5042C28.9942 29.612 29.0905 29.7165 29.1869 29.8215C29.2941 29.9386 29.4008 30.056 29.5109 30.17C29.6095 30.2722 29.7117 30.3717 29.8128 30.4719C29.8917 30.5491 29.9701 30.6255 30.0498 30.7013C33.4469 27.4756 35.4162 22.9933 35.5011 18.3162L24.5918 18.3159C24.5957 18.5127 24.5974 18.7099 24.6072 18.9064L24.607 18.9063Z" fill="#6A3051"/>
<path d="M11.4093 17.6864C11.4056 17.4893 11.4039 17.2921 11.3938 17.0956C11.3885 16.9945 11.3775 16.8942 11.37 16.7931C11.3565 16.5935 11.3436 16.3946 11.3231 16.1964C11.3104 16.0748 11.2916 15.9543 11.2764 15.8333C11.2537 15.6572 11.234 15.4803 11.2065 15.3048C11.1863 15.1756 11.1599 15.0478 11.1366 14.9189C11.1071 14.7532 11.079 14.5875 11.0448 14.4227C11.017 14.2902 10.983 14.1585 10.9521 14.0268C10.9147 13.8684 10.8799 13.7094 10.8384 13.5522C10.8035 13.4196 10.7625 13.2879 10.7246 13.1562C10.6803 13.0018 10.637 12.8467 10.5884 12.6931C10.546 12.562 10.4986 12.432 10.4539 12.3011C10.402 12.1506 10.3517 11.9992 10.2955 11.8498C10.2464 11.7187 10.1919 11.5904 10.1394 11.4598C10.0802 11.3138 10.0231 11.1675 9.96024 11.0228C9.90352 10.8928 9.8423 10.7659 9.78248 10.6375C9.71705 10.4957 9.65246 10.3536 9.58338 10.2141C9.5202 10.0871 9.45224 9.96218 9.38596 9.83665C9.31295 9.69876 9.24162 9.56032 9.16552 9.4244C9.09644 9.30113 9.02258 9.18037 8.95041 9.05878C8.87038 8.92427 8.79119 8.78863 8.7075 8.65608C8.63168 8.53617 8.55221 8.41907 8.47358 8.30085C8.38681 8.16998 8.30088 8.03912 8.21074 7.91078C8.12902 7.79508 8.04337 7.68136 7.95828 7.56735C7.86477 7.44126 7.77153 7.31405 7.67438 7.19076C7.58676 7.07872 7.49577 6.97032 7.40507 6.86024C7.30482 6.73864 7.20456 6.61649 7.10094 6.49742C7.00686 6.38958 6.91055 6.28512 6.81422 6.18009C6.70695 6.06299 6.60023 5.9456 6.49016 5.83159C6.39159 5.72937 6.28937 5.62996 6.18828 5.52971C6.10936 5.45248 6.03102 5.3761 5.95126 5.30028C2.55418 8.52691 0.58483 13.009 0.5 17.6862L11.4093 17.6864Z" fill="#6A3051"/>
<path d="M18.3148 17.6865H23.9618C23.9654 17.4789 23.9677 17.2714 23.9781 17.0645C23.984 16.9592 23.9952 16.8547 24.0028 16.7499C24.0171 16.5449 24.0298 16.3394 24.0511 16.1347C24.0646 16.0089 24.0837 15.8839 24.0997 15.7589C24.1227 15.5761 24.1432 15.3936 24.1719 15.2122C24.1929 15.0796 24.2196 14.9485 24.2435 14.8162C24.2741 14.6444 24.303 14.4714 24.3389 14.3003C24.3676 14.1642 24.4021 14.0291 24.4341 13.8926C24.4732 13.7278 24.5097 13.5626 24.5524 13.3989C24.5883 13.2613 24.6307 13.126 24.6697 12.9889C24.7158 12.8297 24.7599 12.6693 24.8101 12.5112C24.8537 12.3742 24.9037 12.2386 24.9506 12.1024C25.0039 11.9471 25.0553 11.7915 25.1131 11.6385C25.1643 11.5025 25.2204 11.3689 25.2746 11.2346C25.3358 11.0836 25.3951 10.9319 25.4597 10.7831C25.5181 10.6489 25.581 10.5169 25.6431 10.3843C25.7105 10.2375 25.7773 10.0909 25.8495 9.94568C25.914 9.81453 25.9837 9.68564 26.0519 9.55618C26.1275 9.41268 26.2016 9.26946 26.2808 9.12793C26.3524 9.00016 26.4285 8.87519 26.5026 8.74967C26.5852 8.6101 26.6675 8.47025 26.754 8.33321C26.8323 8.20908 26.914 8.08749 26.9952 7.96533C27.0851 7.83026 27.1744 7.69435 27.2673 7.5618C27.3516 7.44132 27.4397 7.32394 27.5274 7.20544C27.6237 7.07514 27.7203 6.94456 27.8205 6.81622C27.9112 6.70052 28.005 6.58679 28.0985 6.47306C28.2022 6.34725 28.3058 6.22117 28.4131 6.0976C28.5094 5.98639 28.6094 5.87772 28.7088 5.76876C28.8194 5.64745 28.9298 5.52726 29.0438 5.40903C29.1466 5.3026 29.2519 5.19842 29.3575 5.09423C29.4324 5.02038 29.5038 4.94371 29.5796 4.87126C26.4574 2.11501 22.4802 0.57419 18.3145 0.5L18.3148 17.6865Z" fill="#6A3051"/>
<path d="M6.81785 29.8227C6.91389 29.7174 7.01077 29.6129 7.10457 29.5054C7.20819 29.3863 7.30788 29.2642 7.4087 29.1426C7.4994 29.0328 7.59038 28.9241 7.678 28.812C7.77517 28.6879 7.8684 28.5607 7.96219 28.4349C8.04644 28.3212 8.13209 28.2077 8.21381 28.0923C8.30451 27.9637 8.39072 27.8323 8.4775 27.7014C8.55584 27.5835 8.6356 27.4666 8.71114 27.3467C8.79455 27.2142 8.87373 27.0788 8.95405 26.944C9.02622 26.8224 9.10007 26.7017 9.16916 26.5784C9.24582 26.4425 9.31715 26.304 9.3896 26.1662C9.45587 26.0403 9.52327 25.9154 9.58702 25.7887C9.6561 25.6492 9.72041 25.5068 9.78611 25.3653C9.84621 25.2369 9.90743 25.11 9.96388 24.98C10.0265 24.8353 10.0838 24.689 10.143 24.543C10.1956 24.4127 10.25 24.2844 10.2992 24.153C10.3553 24.0036 10.4056 23.8522 10.4576 23.7017C10.5025 23.5708 10.5502 23.4414 10.5921 23.3097C10.6407 23.1566 10.6839 23.0013 10.7283 22.8466C10.7665 22.7149 10.8072 22.5837 10.842 22.4506C10.8838 22.2934 10.9187 22.1342 10.9557 21.9752C10.9863 21.8441 11.0203 21.7126 11.0484 21.5801C11.0832 21.4152 11.1105 21.2493 11.1408 21.0836C11.1638 20.955 11.1902 20.8275 11.2104 20.6983C11.2382 20.5231 11.2579 20.3462 11.2804 20.1698C11.2955 20.0485 11.3143 19.9283 11.327 19.8067C11.348 19.6085 11.3604 19.4096 11.3739 19.21C11.3815 19.1094 11.3924 19.0092 11.3977 18.9075C11.4079 18.711 11.4095 18.5138 11.4132 18.3167H0.503906C0.588715 22.9938 2.5578 27.4762 5.95517 30.7019C6.03492 30.626 6.11355 30.5497 6.19218 30.4724C6.29327 30.3727 6.39521 30.2728 6.49406 30.1706C6.60443 30.0565 6.71085 29.9394 6.81813 29.8226L6.81785 29.8227Z" fill="#6A3051"/>
<path d="M6.64404 5.09612C6.74963 5.20058 6.85494 5.30449 6.95772 5.41092C7.07145 5.52914 7.18209 5.64961 7.29274 5.77065C7.39215 5.8796 7.49184 5.98885 7.58844 6.09949C7.69572 6.22276 7.79934 6.34914 7.90296 6.47495C7.99647 6.58867 8.09055 6.70213 8.18097 6.8181C8.28122 6.94644 8.37755 7.07674 8.47415 7.20732C8.56176 7.32555 8.64994 7.4435 8.73419 7.56368C8.8277 7.69623 8.917 7.83215 9.0063 7.96722C9.08718 8.08938 9.16946 8.21097 9.24753 8.33509C9.33402 8.47213 9.41574 8.61199 9.49886 8.75155C9.57356 8.87736 9.6491 9.00233 9.72071 9.12982C9.79962 9.27106 9.87432 9.41456 9.94958 9.55806C10.0178 9.68752 10.0875 9.81642 10.152 9.94756C10.2242 10.0927 10.2908 10.2393 10.3584 10.3862C10.4202 10.5188 10.4834 10.6507 10.5418 10.785C10.6064 10.9338 10.666 11.0857 10.7269 11.2365C10.7811 11.3708 10.8373 11.5044 10.8884 11.6403C10.9462 11.7934 10.9979 11.949 11.051 12.1043C11.0978 12.2402 11.1473 12.3755 11.1914 12.5131C11.2416 12.6712 11.2857 12.8313 11.3318 12.9908C11.3711 13.1276 11.4132 13.2629 11.4491 13.4008C11.4924 13.5642 11.5283 13.7296 11.5674 13.8945C11.5988 14.0304 11.6336 14.1655 11.6626 14.3022C11.6985 14.4733 11.7272 14.6462 11.758 14.8181C11.7819 14.9501 11.8089 15.0815 11.8297 15.2141C11.8583 15.3957 11.8788 15.578 11.9018 15.7608C11.9178 15.8863 11.9369 16.0113 11.9504 16.1366C11.9717 16.3407 11.9844 16.5465 11.9987 16.7518C12.0063 16.8566 12.0175 16.961 12.0234 17.0663C12.0338 17.273 12.0361 17.4806 12.0397 17.6884L17.687 17.6875V0.500813C13.5216 0.575513 9.54405 2.11611 6.42188 4.87286C6.4977 4.94503 6.56907 5.02226 6.64404 5.09612Z" fill="#6A3051"/>
<path d="M30.0498 5.30142C29.97 5.37725 29.8914 5.45363 29.8128 5.53085C29.7117 5.63054 29.6098 5.73051 29.5109 5.83273C29.4003 5.94674 29.2936 6.06413 29.1868 6.18123C29.0908 6.28654 28.9939 6.39101 28.9001 6.49856C28.7965 6.61763 28.6968 6.73979 28.596 6.86138C28.5053 6.97118 28.4143 7.07986 28.3267 7.19191C28.2298 7.31576 28.1363 7.44269 28.0428 7.56849C27.958 7.6825 27.8726 7.79624 27.7903 7.91193C27.7002 8.04027 27.6143 8.17113 27.5275 8.30199C27.4486 8.41993 27.3694 8.53732 27.2936 8.65723C27.2102 8.78978 27.131 8.92513 27.0506 9.05993C26.9785 9.18152 26.9046 9.30227 26.8355 9.42555C26.7589 9.56147 26.6875 9.69991 26.6151 9.8378C26.5488 9.9636 26.4814 10.0886 26.4177 10.2152C26.3486 10.3548 26.2843 10.4972 26.2186 10.6387C26.1585 10.767 26.0973 10.894 26.0408 11.024C25.9782 11.1686 25.9209 11.3149 25.8617 11.4609C25.8091 11.5912 25.7547 11.7196 25.7055 11.851C25.6494 12.0004 25.5991 12.1517 25.5471 12.3023C25.5022 12.4331 25.4545 12.5626 25.4126 12.6943C25.364 12.8473 25.3208 13.0026 25.2764 13.1574C25.2382 13.2891 25.1975 13.4208 25.1627 13.5533C25.1209 13.7106 25.086 13.8695 25.049 14.0279C25.0184 14.1596 24.9844 14.2913 24.9563 14.4239C24.922 14.5887 24.8942 14.7544 24.8645 14.9201C24.8409 15.0487 24.8145 15.1767 24.7945 15.3059C24.7667 15.4811 24.7471 15.6581 24.7246 15.8344C24.7095 15.9557 24.6906 16.0759 24.678 16.1975C24.6569 16.3958 24.6446 16.5946 24.6311 16.7943C24.6235 16.8948 24.6126 16.995 24.6072 17.0967C24.5971 17.2933 24.5954 17.4904 24.5918 17.6875L35.5011 17.687C35.4163 13.0097 33.4469 8.5275 30.0498 5.30109L30.0498 5.30142Z" fill="#6A3051"/>
<path d="M29.0437 30.5917C28.93 30.4735 28.8194 30.353 28.7087 30.2319C28.6093 30.123 28.5096 30.0137 28.413 29.9031C28.3057 29.7798 28.2021 29.6535 28.0985 29.5277C28.005 29.4139 27.9109 29.3005 27.8205 29.1845C27.7202 29.0562 27.6239 28.9259 27.5273 28.7953C27.4397 28.6771 27.3515 28.5591 27.2673 28.4389C27.1738 28.3064 27.0845 28.1704 26.9952 28.0354C26.9143 27.9132 26.832 27.7916 26.7539 27.6675C26.6674 27.5305 26.5857 27.3906 26.5026 27.251C26.4279 27.1252 26.3524 27.0003 26.2808 26.8728C26.2018 26.7315 26.1271 26.588 26.0519 26.4445C25.9836 26.3151 25.914 26.1862 25.8494 26.055C25.7772 25.9099 25.7107 25.7633 25.643 25.6164C25.5812 25.4838 25.518 25.3519 25.4596 25.2176C25.3951 25.0688 25.3355 24.9169 25.2746 24.7661C25.2204 24.6318 25.1642 24.4982 25.1131 24.3623C25.0553 24.2092 25.0036 24.0536 24.9505 23.8983C24.9036 23.7624 24.8542 23.6271 24.8101 23.4895C24.7598 23.3314 24.7158 23.1713 24.6697 23.0118C24.6304 22.875 24.5883 22.7397 24.5523 22.6018C24.5091 22.4384 24.4731 22.273 24.4341 22.1081C24.4026 21.9722 24.3678 21.8371 24.3389 21.7004C24.303 21.5293 24.2743 21.3564 24.2434 21.1845C24.2196 21.0525 24.1926 20.9211 24.1718 20.7885C24.1432 20.6069 24.1227 20.4246 24.0996 20.2418C24.0836 20.1163 24.0645 19.9913 24.0511 19.866C24.0297 19.6619 24.0171 19.4561 24.0028 19.2508C23.9952 19.146 23.9839 19.0416 23.978 18.9363C23.9677 18.7296 23.9654 18.522 23.9618 18.3142L18.3145 18.3151V35.5018C22.4798 35.4271 26.4574 33.8865 29.5796 31.1297C29.5032 31.0573 29.4319 30.9803 29.3575 30.9068C29.2519 30.8023 29.1466 30.6984 29.0438 30.592L29.0437 30.5917Z" fill="#6A3051"/>
<path d="M12.0234 18.938C12.0175 19.0433 12.0063 19.1478 11.9987 19.2526C11.9843 19.4576 11.9717 19.6631 11.9504 19.8678C11.9369 19.9936 11.9178 20.1186 11.9018 20.2436C11.8788 20.4264 11.8583 20.6089 11.8296 20.7903C11.8086 20.9229 11.7819 21.054 11.758 21.1863C11.7274 21.3582 11.6985 21.5311 11.6625 21.7022C11.6339 21.8384 11.5993 21.9734 11.5673 22.1099C11.5283 22.2748 11.4918 22.4399 11.4491 22.6036C11.4132 22.7412 11.3708 22.8765 11.3317 23.0136C11.2857 23.1728 11.2416 23.3332 11.1913 23.4913C11.1478 23.6283 11.0978 23.7639 11.0509 23.9001C10.9976 24.0554 10.9462 24.211 10.8883 24.364C10.8372 24.5 10.781 24.6336 10.7268 24.7679C10.6656 24.9189 10.6064 25.0706 10.5418 25.2194C10.4834 25.3537 10.4205 25.4856 10.3584 25.6182C10.291 25.7651 10.2242 25.9116 10.152 26.0568C10.0874 26.188 10.0178 26.3169 9.94954 26.4463C9.874 26.5898 9.79986 26.733 9.72067 26.8746C9.64906 27.0023 9.57296 27.1273 9.49882 27.2528C9.41627 27.3924 9.33398 27.5323 9.24749 27.6693C9.16914 27.7934 9.08742 27.915 9.00626 28.0372C8.9164 28.1722 8.8271 28.3082 8.73415 28.4407C8.6499 28.5612 8.56173 28.6786 8.47411 28.7971C8.37779 28.9274 8.28118 29.0579 8.18093 29.1863C8.09023 29.302 7.99644 29.4157 7.90292 29.5294C7.7993 29.6553 7.69568 29.7813 7.5884 29.9049C7.49209 30.0161 7.39211 30.1248 7.2927 30.2337C7.18205 30.3551 7.07169 30.4752 6.95768 30.5935C6.8549 30.6999 6.74959 30.8041 6.644 30.9083C6.56902 30.9821 6.49769 31.0588 6.42188 31.1312C9.54434 33.8881 13.5221 35.4289 17.687 35.5033L17.6867 18.3159H12.0397C12.0358 18.5234 12.0341 18.7309 12.0234 18.9379L12.0234 18.938Z" fill="#6A3051"/>
</svg>
