<svg width="36" height="36" viewBox="0 0 36 36" fill="none" xmlns="http://www.w3.org/2000/svg">
<path d="M35.1829 8.72244L28.178 16.3241C28.1692 16.3329 28.1595 16.3414 28.1499 16.3502C26.9801 17.5026 25.4569 18.0784 23.9328 18.0784C23.0238 18.0784 22.1141 17.8734 21.2797 17.4634L15.2759 23.4672L15.7175 23.9089L4.8822 34.7442C4.44377 35.1826 3.88646 35.4289 3.31358 35.484C3.23157 35.4919 3.14928 35.4957 3.06669 35.4957C3.02598 35.4957 2.98468 35.4948 2.94398 35.4928C2.69797 35.4811 2.45313 35.4339 2.21795 35.3516C2.179 35.3381 2.13976 35.3232 2.1011 35.3074C1.79241 35.1818 1.50276 34.9943 1.25209 34.7436C1.00141 34.4929 0.813657 34.2036 0.688314 33.8946C0.672792 33.8565 0.657563 33.8173 0.644091 33.7778C0.561792 33.5426 0.51464 33.2983 0.502929 33.0517C0.497071 32.9287 0.5 32.8051 0.511715 32.6827C0.566189 32.1104 0.813076 31.5528 1.2515 31.1141L12.0861 20.2795L12.5277 20.7212L18.5316 14.7173C17.4286 12.4719 17.8091 9.68204 19.6764 7.81412L19.6791 7.81675L27.2777 0.816596C27.512 0.5823 27.7747 0.5 28.002 0.5C28.2266 0.5 28.4167 0.580245 28.5101 0.673379L20.5246 8.65893L20.5255 8.65981L28.5103 0.675007C28.6974 0.862152 28.8327 1.44177 28.3676 1.90744L21.3672 9.50312L23.0872 11.2231L30.6836 4.22296C30.9179 3.98866 31.1806 3.90636 31.4079 3.90665C31.6325 3.90665 31.8226 3.9869 31.916 4.08003L23.9312 12.0656L23.9321 12.0665L31.9176 4.08091C32.1048 4.26806 32.2401 4.84768 31.775 5.31334L24.7742 12.9098L26.4969 14.6325L34.0934 7.63261C34.3277 7.39832 34.5904 7.31602 34.8176 7.31631C35.0423 7.31631 35.2323 7.39655 35.3258 7.48969L27.3402 15.4752L27.3411 15.4761L35.3266 7.49057C35.5138 7.67742 35.6494 8.25703 35.1837 8.7224L35.1829 8.72244ZM22.89 20.2813L22.4478 20.7235L21.2274 19.5032L18.4821 22.2485L19.7021 23.4686L19.2605 23.9102L30.0951 34.7448C31.0973 35.747 32.7221 35.7467 33.7243 34.7448C34.7265 33.7426 34.7262 32.1178 33.7243 31.1156L22.89 20.2813ZM12.5105 18.754L16.4951 14.7694L15.2738 13.5482L7.46743 5.74258C6.6676 4.94275 4.3832 3.19869 3.40621 4.08114C3.40591 4.08143 3.40503 4.08231 3.40503 4.08231C1.69786 5.79413 4.0142 10.881 8.57978 15.4462C9.87752 16.7445 11.2177 17.86 12.5104 18.7536L12.5105 18.754Z" fill="#6A3051"/>
</svg>
