<svg width="14" height="35" viewBox="0 0 14 35" fill="none" xmlns="http://www.w3.org/2000/svg">
<path d="M11.5302 10.1456C11.5302 9.77448 11.2263 9.47062 10.8552 9.47062H10.3691L10.3695 4.68479C9.98124 5.13463 9.52712 5.57924 9.01598 6.002C8.31666 6.58333 6.49883 7.93845 4.78122 7.93845C4.36598 7.93845 3.9781 7.85738 3.63368 7.70348V9.47052H3.14758C2.77651 9.47052 2.47266 9.77437 2.47266 10.1454V17.8395H11.5302L11.5302 10.1456Z" fill="#6A3051"/>
<path d="M13.2497 19.865V32.8844C13.2497 33.7211 12.5678 34.403 11.7311 34.403H2.26859C1.43185 34.403 0.75 33.7211 0.75 32.8844V19.865C0.75 19.487 1.04693 19.1901 1.42493 19.1901H12.5747C12.9461 19.1901 13.25 19.487 13.25 19.865H13.2497Z" fill="#6A3051"/>
<path d="M4.77959 6.58881C5.73791 6.58881 7.04069 5.88686 8.15423 4.96214C9.2477 4.05783 10.0644 3.03852 10.3343 2.23544C10.3389 2.22061 10.3379 2.20347 10.3415 2.18798C10.4743 1.77076 10.4377 1.4534 10.3497 1.23026C10.3181 1.04768 10.2084 0.891804 10.0512 0.788979C9.1805 0.026386 7.32538 0.87796 5.81211 2.12103C4.22594 3.42373 2.97724 5.17863 3.78732 6.1706C4.02361 6.46061 4.36795 6.58881 4.77959 6.58881Z" fill="#6A3051"/>
</svg>
