<svg width="32" height="35" viewBox="0 0 32 35" fill="none" xmlns="http://www.w3.org/2000/svg">
<path d="M29.655 9.2854H23.9175C23.8817 9.96678 23.5588 10.5763 22.9852 10.9708H28.6509V22.589L30.3363 23.7366V9.96684C30.3363 9.57238 30.0494 9.28546 29.6549 9.28546L29.655 9.2854ZM20.7262 33.4183H18.7539L17.9292 28.7926H22.7703L22.3401 25.2426H1.68548V10.935H7.35115C6.77735 10.5763 6.41889 9.93092 6.41889 9.2496H0.681378C0.28692 9.2496 0 9.5365 0 9.93098V28.0755C0 28.4341 0.286901 28.7568 0.681378 28.7568H12.3713L11.5466 33.3825H9.57432C9.43099 33.3825 9.28742 33.49 9.28742 33.6694V34.3147C9.28742 34.458 9.39498 34.6016 9.57432 34.6016H20.6905C20.8338 34.6016 20.9774 34.494 20.9774 34.3147V33.6694C21.0132 33.526 20.9056 33.4185 20.7263 33.4185L20.7262 33.4183ZM15.3834 27.7168H14.9889C14.6303 27.7168 14.3076 27.3941 14.3076 27.0354C14.3076 26.641 14.6302 26.354 14.9889 26.354H15.3834C15.7421 26.354 16.0648 26.6767 16.0648 27.0354C16.0648 27.3941 15.7419 27.7168 15.3834 27.7168Z" fill="white"/>
<path d="M30.9441 25.7091L24.0234 20.9039C23.6647 20.6527 23.1627 20.9396 23.2345 21.3701L24.2025 29.761C24.2382 30.1912 24.7762 30.3706 25.0631 30.0837L26.8203 28.3983L28.2905 30.8366C28.4339 31.0877 28.7568 31.1593 29.0076 31.0159L29.7965 30.5497C30.0477 30.4064 30.1192 30.0835 29.9759 29.8326L28.5056 27.3585L30.8363 26.6054C31.2307 26.4621 31.3025 25.9243 30.9438 25.7092L30.9441 25.7091Z" fill="white"/>
<path d="M11.08 1.75502C11.1875 1.14545 11.6895 0.679194 12.2633 0.571682C13.2316 0.392338 14.128 1.14548 14.128 2.07774C14.128 2.72307 13.7336 3.26108 13.1598 3.51196V6.77516L15.1678 7.99429L17.2476 6.73911V3.47591C16.6738 3.2608 16.2793 2.68702 16.2793 2.04169C16.2793 1.21701 16.9607 0.499901 17.8211 0.499901C18.6818 0.499901 19.3629 1.18128 19.3629 2.04169C19.3629 2.68702 18.9685 3.22503 18.3947 3.47591V7.06177C18.3947 7.27689 18.2871 7.45623 18.1078 7.56378L15.741 9.03405L15.7413 17.569C15.7413 17.8917 15.4902 18.1428 15.1675 18.1428C14.8448 18.1428 14.5937 17.8917 14.5937 17.569L14.594 8.99883L12.299 7.56462C12.1197 7.45706 12.0121 7.27771 12.0121 7.06261V3.47674C11.3307 3.22561 10.9005 2.54429 11.0798 1.75534L11.08 1.75502Z" fill="white"/>
<path d="M6.99121 6.02162C6.99121 5.05337 7.88768 4.30047 8.89172 4.51556C9.46551 4.62311 9.93149 5.08935 10.0393 5.66316C10.2187 6.45205 9.78819 7.16922 9.14286 7.4203V8.89057L11.4378 10.3248C11.6172 10.4323 11.7247 10.6117 11.7247 10.8268V14.9504C11.7247 15.2731 11.4736 15.5242 11.1509 15.5242C10.8283 15.5242 10.5771 15.2731 10.5771 14.9504V11.1495L8.28217 9.71524C8.10282 9.60768 7.99527 9.42834 7.99527 9.21323V7.4203C7.3857 7.20494 6.99122 6.63115 6.99122 6.02156L6.99121 6.02162Z" fill="white"/>
<path d="M19.2574 15.5248C18.9347 15.5248 18.6836 15.2736 18.6836 14.951V10.8274C18.6836 10.648 18.7912 10.4329 18.9705 10.3254L21.2654 8.89113V7.42087C20.6201 7.16973 20.1896 6.45262 20.369 5.66373C20.4765 5.08993 20.9428 4.62396 21.5166 4.48039C22.5206 4.26528 23.3813 5.01817 23.3813 5.98646C23.3813 6.63178 22.9868 7.16979 22.4131 7.38494V9.17788C22.4131 9.35722 22.3055 9.57233 22.1262 9.67988L19.8312 11.1141V14.9151C19.867 15.274 19.5801 15.5249 19.2574 15.5249L19.2574 15.5248Z" fill="white"/>
</svg>
