<svg width="36" height="32" viewBox="0 0 36 32" fill="none" xmlns="http://www.w3.org/2000/svg">
<path d="M32.8142 3.97001C28.9113 0.0668472 22.702 -0.287765 18.267 2.90557C13.2997 -0.64268 6.38102 0.244457 2.65546 5.21176C-0.537866 9.64684 -0.18295 15.8562 3.71991 19.7589L14.3643 30.4033C16.4932 32.5322 19.8639 32.5322 21.8154 30.4033L32.4599 19.7589C37.0723 15.3238 37.0723 8.40509 32.8145 3.97016L32.8142 3.97001ZM21.8154 18.1621H20.0415V19.9361C20.0415 21.0005 19.3319 21.71 18.2675 21.71C17.2031 21.71 16.4935 21.0005 16.4935 19.9361V18.1621H14.7196C13.6551 18.1621 12.9456 17.4526 12.9456 16.3881C12.9456 15.3237 13.6551 14.6141 14.7196 14.6141H16.4935V12.8402C16.4935 11.7757 17.2031 11.0662 18.2675 11.0662C19.3319 11.0662 20.0415 11.7757 20.0415 12.8402V14.6141H21.8154C22.8799 14.6141 23.5894 15.3237 23.5894 16.3881C23.5894 17.4526 22.8799 18.1621 21.8154 18.1621Z" fill="white"/>
</svg>
