<svg width="28" height="36" viewBox="0 0 28 36" fill="none" xmlns="http://www.w3.org/2000/svg">
<path d="M17.3528 16.1559V16.9231H23.1926C23.3226 16.9196 23.4488 16.9685 23.5424 17.0595C23.6357 17.1503 23.6885 17.275 23.6885 17.4053C23.6885 17.5356 23.6357 17.6605 23.5424 17.7513C23.4488 17.842 23.3226 17.8912 23.1926 17.8877H17.3528V18.5243L23.1926 18.5241C23.3226 18.5205 23.4488 18.5697 23.5424 18.6605C23.6357 18.7512 23.6885 18.8762 23.6885 19.0065C23.6885 19.1367 23.6357 19.2614 23.5424 19.3522C23.4488 19.4432 23.3226 19.4922 23.1926 19.4886H17.3528V20.2558H25.765C26.0314 20.2558 26.2474 20.4717 26.2474 20.7382V21.6849C26.7652 21.8404 27.176 22.2364 27.3506 22.7481C27.525 23.2596 27.4421 23.824 27.1275 24.2639C26.8129 24.7035 26.3055 24.9645 25.7649 24.9645C25.2244 24.9645 24.717 24.7034 24.4024 24.2639C24.0878 23.8241 24.0049 23.2596 24.1793 22.7481C24.354 22.2364 24.7647 21.8404 25.2825 21.6849V21.2203H17.3527V21.55C17.353 21.678 17.3022 21.8006 17.2117 21.8912C17.1212 21.9817 16.9985 22.0324 16.8708 22.0324C15.5037 22.0324 14.2403 21.3029 13.5568 20.1192C12.8734 18.9353 12.8734 17.4765 13.5568 16.2926C14.2404 15.1088 15.5037 14.3794 16.8708 14.3794C16.9985 14.3794 17.1212 14.4301 17.2117 14.5206C17.3022 14.6112 17.353 14.7338 17.3527 14.8618V15.1915H25.2819V14.7269C24.764 14.5714 24.3533 14.1754 24.1787 13.6637C24.0043 13.1523 24.0871 12.5878 24.4018 12.1479C24.7164 11.7083 25.2238 11.4473 25.7643 11.4473C26.3048 11.4473 26.8122 11.7084 27.1268 12.1479C27.4415 12.5877 27.5243 13.1522 27.3499 13.6637C27.1753 14.1754 26.7645 14.5714 26.2467 14.7269V15.6736C26.2467 15.9398 26.0313 16.1555 25.7651 16.156L17.3528 16.1559ZM26.5645 32.6481V31.4097C26.5645 31.2819 26.5138 31.1593 26.4233 31.0688C26.3328 30.9783 26.2101 30.9275 26.0821 30.9278H17.3527V29.4778H22.178C22.3335 29.9925 22.728 30.4008 23.2372 30.5741C23.7461 30.7473 24.3075 30.6644 24.7448 30.3513C25.1821 30.0382 25.4414 29.5334 25.4414 28.9956C25.4414 28.4579 25.1821 27.953 24.7448 27.6399C24.3075 27.3268 23.7461 27.2439 23.2372 27.4171C22.728 27.5904 22.3335 27.9984 22.178 28.5134H17.3527V27.5405H20.9261C21.1925 27.5405 21.4085 27.3245 21.4085 27.0581V26.2075C21.9263 26.052 22.3371 25.6561 22.5117 25.1443C22.6864 24.6326 22.6035 24.0681 22.2889 23.6285C21.9745 23.1887 21.4668 22.9279 20.9263 22.9279C20.3858 22.9279 19.8781 23.1887 19.5638 23.6285C19.2492 24.0681 19.1663 24.6326 19.3409 25.1443C19.5156 25.6561 19.9263 26.052 20.4442 26.2075V26.5757H17.3527V25.3685C17.3527 25.102 17.137 24.8863 16.8708 24.8863C14.4841 24.8863 12.2786 23.613 11.0851 21.546C9.89186 19.479 9.89186 16.9323 11.0851 14.8655C12.2786 12.7984 14.484 11.5251 16.8708 11.5251C17.137 11.5251 17.3527 11.3094 17.3527 11.043V9.83572H20.4439V10.2039H20.4441C19.9263 10.3594 19.5155 10.7554 19.3409 11.2671C19.1663 11.7788 19.2491 12.3433 19.5638 12.7829C19.8781 13.2227 20.3858 13.4835 20.9263 13.4835C21.4668 13.4835 21.9745 13.2227 22.2889 12.7829C22.6035 12.3433 22.6863 11.7788 22.5117 11.2671C22.337 10.7554 21.9263 10.3594 21.4085 10.2039V9.35334C21.4085 9.0869 21.1925 8.87094 20.9261 8.87094H17.3527V7.898H22.178C22.3335 8.41304 22.728 8.82101 23.2372 8.99437C23.7461 9.16749 24.3075 9.08463 24.7448 8.77153C25.1821 8.45843 25.4414 7.95361 25.4414 7.41584C25.4414 6.87811 25.1821 6.37326 24.7448 6.06015C24.3075 5.74705 23.7461 5.66419 23.2372 5.83731C22.728 6.01068 22.3335 6.41889 22.178 6.93367H17.3527V5.48367H26.0828C26.2108 5.48367 26.3334 5.43293 26.4237 5.34267C26.5142 5.25215 26.5649 5.12952 26.5649 5.00177V3.76338C27.0797 3.60785 27.4879 3.21367 27.661 2.70448C27.8344 2.19531 27.7513 1.6339 27.4385 1.19684C27.1254 0.759572 26.6205 0.5 26.0828 0.5C25.5448 0.5 25.0402 0.759559 24.7271 1.19684C24.414 1.63385 24.3311 2.1953 24.5042 2.70448C24.6774 3.21365 25.0856 3.60784 25.6003 3.76338V4.51909L17.3526 4.51934V3.4658H22.2416C22.508 3.4658 22.724 3.24959 22.724 2.9834C22.724 2.71697 22.508 2.50075 22.2416 2.50075H17.3526V2.06527C17.3526 1.79909 17.1369 1.58338 16.8708 1.58338C15.7703 1.58313 14.6727 1.69149 13.5937 1.90693C13.3683 1.95206 13.2061 2.14992 13.2059 2.3799V6.16695V6.16669C12.4257 6.40432 11.6702 6.71742 10.9507 7.10138L8.27349 4.4242L8.27375 4.42446C8.11108 4.26154 7.85586 4.2363 7.66438 4.36429C5.8266 5.5861 4.25088 7.16176 3.0288 8.99961C2.90081 9.19083 2.92605 9.44605 3.08898 9.60872L5.76641 12.2862C5.38218 13.0054 5.06879 13.7606 4.83146 14.5411H1.04441C0.814436 14.5411 0.616578 14.7032 0.571449 14.9286C0.14285 17.0928 0.14285 19.3202 0.571449 21.4845C0.616578 21.7099 0.814436 21.8721 1.04441 21.8721H4.83146C5.06884 22.6525 5.38219 23.4074 5.76641 24.127L3.08898 26.8044C2.92605 26.9671 2.90081 27.2223 3.0288 27.4135C4.25114 29.2506 5.8268 30.8257 7.66438 32.0473C7.85586 32.1753 8.11109 32.15 8.27375 31.9871L10.9509 29.3099L10.9507 29.3102C11.6702 29.6942 12.4257 30.0073 13.2059 30.2449V34.0319V34.0317C13.2059 34.2614 13.368 34.4593 13.5932 34.5046C14.6722 34.7201 15.7701 34.8284 16.8702 34.8282C17.1364 34.8282 17.3524 34.6125 17.3524 34.3463V33.9108H22.2411C22.3714 33.9144 22.4976 33.8652 22.5909 33.7744C22.6845 33.6836 22.737 33.5587 22.737 33.4284C22.737 33.2981 22.6845 33.1735 22.5909 33.0827C22.4976 32.9917 22.3714 32.9427 22.2411 32.9463H17.3526V31.8923H25.6003V32.6483C25.0855 32.8038 24.6773 33.198 24.5039 33.7072C24.3308 34.2163 24.4137 34.7777 24.7268 35.2148C25.0399 35.6521 25.5447 35.9116 26.0824 35.9116C26.6202 35.9116 27.125 35.6521 27.4381 35.2148C27.7512 34.7778 27.8341 34.2163 27.661 33.7072C27.4876 33.198 27.0797 32.8038 26.5646 32.6483L26.5645 32.6481Z" fill="white"/>
</svg>
