<svg width="36" height="36" viewBox="0 0 36 36" fill="none" xmlns="http://www.w3.org/2000/svg">
<path d="M24.606 18.9063C24.6113 19.0074 24.6223 19.1077 24.6299 19.2088C24.6433 19.4084 24.6563 19.6073 24.6768 19.8055C24.6894 19.9271 24.7082 20.0476 24.7234 20.1686C24.7461 20.3447 24.7658 20.5216 24.7933 20.6971C24.8135 20.8263 24.8399 20.9538 24.8629 21.0824C24.8927 21.2481 24.9205 21.4141 24.9553 21.5789C24.9831 21.7114 25.0171 21.8426 25.048 21.974C25.0854 22.1329 25.1202 22.2922 25.1617 22.4494C25.1966 22.5823 25.2376 22.7137 25.2755 22.8454C25.3198 22.9998 25.3631 23.1548 25.4117 23.3085C25.4541 23.4396 25.5015 23.5696 25.5462 23.7005C25.5981 23.851 25.6484 24.0024 25.7046 24.1518C25.7537 24.2829 25.8082 24.4112 25.8607 24.5418C25.9199 24.6878 25.977 24.8341 26.0399 24.9788C26.0966 25.1088 26.1578 25.2357 26.2176 25.3641C26.283 25.5059 26.3476 25.648 26.4167 25.7875C26.4799 25.9145 26.5479 26.0394 26.6141 26.1649C26.6871 26.3028 26.7585 26.4413 26.8346 26.5772C26.9037 26.7005 26.9775 26.8212 27.0497 26.9428C27.1297 27.0773 27.2089 27.213 27.2926 27.3455C27.3681 27.4654 27.4479 27.582 27.5262 27.7002C27.613 27.8311 27.6995 27.9622 27.7899 28.0911C27.8714 28.2065 27.9567 28.32 28.0415 28.4337C28.1356 28.5598 28.2283 28.687 28.3257 28.8108C28.4133 28.9229 28.5043 29.0313 28.595 29.1414C28.6953 29.263 28.7955 29.3851 28.8992 29.5042C28.9932 29.612 29.0896 29.7165 29.1859 29.8215C29.2932 29.9386 29.3999 30.056 29.5099 30.17C29.6085 30.2722 29.7107 30.3716 29.8118 30.4719C29.8907 30.5491 29.9691 30.6255 30.0488 30.7013C33.4459 27.4756 35.4153 22.9933 35.5001 18.3161L24.5908 18.3159C24.5948 18.5127 24.5964 18.7099 24.6063 18.9064L24.606 18.9063Z" fill="white"/>
<path d="M11.4093 17.6864C11.4056 17.4893 11.4039 17.2921 11.3938 17.0956C11.3885 16.9945 11.3775 16.8942 11.37 16.7931C11.3565 16.5935 11.3436 16.3946 11.3231 16.1964C11.3104 16.0748 11.2916 15.9543 11.2764 15.8333C11.2537 15.6572 11.234 15.4803 11.2065 15.3048C11.1863 15.1756 11.1599 15.0478 11.1366 14.9189C11.1071 14.7532 11.079 14.5875 11.0448 14.4227C11.017 14.2902 10.983 14.1585 10.9521 14.0268C10.9147 13.8684 10.8799 13.7094 10.8384 13.5522C10.8035 13.4196 10.7625 13.2879 10.7246 13.1562C10.6803 13.0018 10.637 12.8467 10.5884 12.6931C10.546 12.562 10.4986 12.432 10.4539 12.3011C10.402 12.1506 10.3517 11.9992 10.2955 11.8498C10.2464 11.7187 10.1919 11.5904 10.1394 11.4598C10.0802 11.3138 10.0231 11.1675 9.96024 11.0228C9.90352 10.8928 9.8423 10.7659 9.78248 10.6375C9.71705 10.4957 9.65246 10.3536 9.58338 10.2141C9.5202 10.0871 9.45224 9.96218 9.38596 9.83665C9.31295 9.69876 9.24162 9.56032 9.16552 9.4244C9.09644 9.30113 9.02258 9.18037 8.95041 9.05878C8.87038 8.92427 8.79119 8.78863 8.7075 8.65608C8.63168 8.53617 8.55221 8.41907 8.47358 8.30085C8.38681 8.16998 8.30088 8.03912 8.21074 7.91078C8.12902 7.79508 8.04337 7.68136 7.95828 7.56735C7.86477 7.44126 7.77153 7.31405 7.67438 7.19076C7.58676 7.07872 7.49577 6.97032 7.40507 6.86024C7.30482 6.73864 7.20456 6.61649 7.10094 6.49742C7.00686 6.38958 6.91055 6.28512 6.81422 6.18009C6.70695 6.06299 6.60023 5.9456 6.49016 5.83159C6.39159 5.72937 6.28937 5.62996 6.18828 5.52971C6.10936 5.45248 6.03102 5.3761 5.95126 5.30028C2.55418 8.52691 0.58483 13.009 0.5 17.6862L11.4093 17.6864Z" fill="white"/>
<path d="M18.3148 17.6865H23.9618C23.9654 17.4789 23.9677 17.2714 23.9781 17.0645C23.984 16.9592 23.9952 16.8547 24.0028 16.7499C24.0171 16.5449 24.0298 16.3394 24.0511 16.1347C24.0646 16.0089 24.0837 15.8839 24.0997 15.7589C24.1227 15.5761 24.1432 15.3936 24.1719 15.2122C24.1929 15.0796 24.2196 14.9485 24.2435 14.8162C24.2741 14.6444 24.303 14.4714 24.3389 14.3003C24.3676 14.1642 24.4021 14.0291 24.4341 13.8926C24.4732 13.7278 24.5097 13.5626 24.5524 13.3989C24.5883 13.2613 24.6307 13.126 24.6697 12.9889C24.7158 12.8297 24.7599 12.6693 24.8101 12.5112C24.8537 12.3742 24.9037 12.2386 24.9506 12.1024C25.0039 11.9471 25.0553 11.7915 25.1131 11.6385C25.1643 11.5025 25.2204 11.3689 25.2746 11.2346C25.3358 11.0836 25.3951 10.9319 25.4597 10.7831C25.5181 10.6489 25.581 10.5169 25.6431 10.3843C25.7105 10.2375 25.7773 10.0909 25.8495 9.94568C25.914 9.81453 25.9837 9.68564 26.0519 9.55618C26.1275 9.41268 26.2016 9.26946 26.2808 9.12793C26.3524 9.00016 26.4285 8.87519 26.5026 8.74967C26.5852 8.6101 26.6675 8.47025 26.754 8.33321C26.8323 8.20908 26.914 8.08749 26.9952 7.96533C27.0851 7.83026 27.1744 7.69435 27.2673 7.5618C27.3516 7.44132 27.4397 7.32394 27.5274 7.20544C27.6237 7.07514 27.7203 6.94456 27.8205 6.81622C27.9112 6.70052 28.005 6.58679 28.0985 6.47306C28.2022 6.34725 28.3058 6.22117 28.4131 6.0976C28.5094 5.98639 28.6094 5.87772 28.7088 5.76876C28.8194 5.64745 28.9298 5.52726 29.0438 5.40903C29.1466 5.3026 29.2519 5.19842 29.3575 5.09423C29.4324 5.02038 29.5038 4.94371 29.5796 4.87126C26.4574 2.11501 22.4802 0.57419 18.3145 0.5L18.3148 17.6865Z" fill="white"/>
<path d="M6.81687 29.8227C6.91291 29.7174 7.0098 29.6129 7.10359 29.5054C7.20721 29.3863 7.3069 29.2642 7.40772 29.1426C7.49842 29.0328 7.58941 28.9241 7.67703 28.812C7.77419 28.6879 7.86742 28.5607 7.96122 28.4349C8.04546 28.3212 8.13111 28.2077 8.21283 28.0923C8.30353 27.9637 8.38974 27.8323 8.47652 27.7014C8.55487 27.5835 8.63462 27.4666 8.71016 27.3467C8.79357 27.2142 8.87276 27.0788 8.95307 26.944C9.02524 26.8224 9.09909 26.7017 9.16818 26.5784C9.24484 26.4425 9.31617 26.304 9.38862 26.1662C9.4549 26.0403 9.5223 25.9154 9.58604 25.7887C9.65512 25.6492 9.71943 25.5068 9.78514 25.3653C9.84523 25.2369 9.90645 25.11 9.9629 24.98C10.0255 24.8353 10.0828 24.689 10.1421 24.543C10.1946 24.4127 10.2491 24.2844 10.2982 24.153C10.3544 24.0036 10.4046 23.8522 10.4566 23.7017C10.5015 23.5708 10.5493 23.4414 10.5911 23.3097C10.6397 23.1566 10.6829 23.0013 10.7273 22.8466C10.7655 22.7149 10.8062 22.5837 10.841 22.4506C10.8829 22.2934 10.9177 22.1342 10.9547 21.9752C10.9854 21.8441 11.0193 21.7126 11.0474 21.5801C11.0822 21.4152 11.1095 21.2493 11.1398 21.0836C11.1628 20.955 11.1892 20.8275 11.2095 20.6983C11.2373 20.5231 11.2569 20.3462 11.2794 20.1698C11.2945 20.0485 11.3134 19.9283 11.326 19.8067C11.3471 19.6085 11.3594 19.4096 11.3729 19.21C11.3805 19.1094 11.3914 19.0092 11.3968 18.9075C11.4069 18.711 11.4086 18.5138 11.4122 18.3167H0.50293C0.587738 22.9938 2.55682 27.4762 5.95419 30.7019C6.03395 30.626 6.11257 30.5497 6.19121 30.4724C6.2923 30.3727 6.39424 30.2728 6.49309 30.1706C6.60345 30.0565 6.70988 29.9394 6.81715 29.8226L6.81687 29.8227Z" fill="white"/>
<path d="M6.64404 5.09612C6.74963 5.20058 6.85494 5.30448 6.95772 5.41091C7.07145 5.52914 7.18209 5.64961 7.29274 5.77064C7.39215 5.8796 7.49184 5.98884 7.58844 6.09948C7.69572 6.22276 7.79934 6.34913 7.90296 6.47494C7.99647 6.58867 8.09055 6.70213 8.18097 6.8181C8.28122 6.94644 8.37755 7.07674 8.47415 7.20732C8.56176 7.32554 8.64994 7.44349 8.73419 7.56368C8.8277 7.69623 8.917 7.83214 9.0063 7.96722C9.08718 8.08937 9.16946 8.21097 9.24753 8.33509C9.33402 8.47213 9.41574 8.61198 9.49886 8.75155C9.57356 8.87736 9.6491 9.00232 9.72071 9.12981C9.79962 9.27106 9.87432 9.41456 9.94958 9.55806C10.0178 9.68752 10.0875 9.81642 10.152 9.94756C10.2242 10.0927 10.2908 10.2393 10.3584 10.3862C10.4202 10.5188 10.4834 10.6507 10.5418 10.785C10.6064 10.9338 10.666 11.0857 10.7269 11.2365C10.7811 11.3708 10.8373 11.5044 10.8884 11.6403C10.9462 11.7934 10.9979 11.949 11.051 12.1043C11.0978 12.2402 11.1473 12.3755 11.1914 12.5131C11.2416 12.6712 11.2857 12.8313 11.3318 12.9908C11.3711 13.1276 11.4132 13.2629 11.4491 13.4008C11.4924 13.5642 11.5283 13.7296 11.5674 13.8945C11.5988 14.0304 11.6336 14.1655 11.6626 14.3022C11.6985 14.4732 11.7272 14.6462 11.758 14.8181C11.7819 14.9501 11.8089 15.0815 11.8297 15.214C11.8583 15.3957 11.8788 15.578 11.9018 15.7608C11.9178 15.8863 11.9369 16.0113 11.9504 16.1365C11.9717 16.3407 11.9844 16.5465 11.9987 16.7518C12.0063 16.8566 12.0175 16.961 12.0234 17.0663C12.0338 17.273 12.0361 17.4805 12.0397 17.6884L17.687 17.6875V0.500809C13.5216 0.575509 9.54405 2.1161 6.42188 4.87286C6.4977 4.94503 6.56907 5.02226 6.64404 5.09612Z" fill="white"/>
<path d="M30.0488 5.30142C29.9691 5.37725 29.8904 5.45363 29.8118 5.53085C29.7107 5.63054 29.6088 5.73051 29.5099 5.83273C29.3993 5.94674 29.2926 6.06413 29.1859 6.18123C29.0898 6.28654 28.9929 6.39101 28.8991 6.49856C28.7955 6.61763 28.6958 6.73979 28.595 6.86138C28.5043 6.97118 28.4133 7.07986 28.3257 7.19191C28.2288 7.31576 28.1353 7.44269 28.0418 7.56849C27.957 7.6825 27.8716 7.79624 27.7893 7.91193C27.6992 8.04027 27.6133 8.17113 27.5265 8.30199C27.4476 8.41993 27.3684 8.53732 27.2926 8.65723C27.2092 8.78978 27.13 8.92513 27.0497 9.05993C26.9775 9.18152 26.9037 9.30227 26.8346 9.42555C26.7579 9.56147 26.6866 9.69991 26.6141 9.8378C26.5478 9.9636 26.4805 10.0886 26.4167 10.2152C26.3476 10.3548 26.2833 10.4972 26.2176 10.6387C26.1575 10.767 26.0963 10.894 26.0398 11.024C25.9772 11.1686 25.9199 11.3149 25.8607 11.4609C25.8082 11.5912 25.7537 11.7196 25.7045 11.851C25.6484 12.0004 25.5981 12.1517 25.5462 12.3023C25.5012 12.4331 25.4535 12.5626 25.4116 12.6943C25.3631 12.8473 25.3198 13.0026 25.2755 13.1574C25.2373 13.2891 25.1965 13.4208 25.1617 13.5533C25.1199 13.7106 25.0851 13.8695 25.048 14.0279C25.0174 14.1596 24.9834 14.2913 24.9553 14.4239C24.9211 14.5887 24.8933 14.7544 24.8635 14.9201C24.8399 15.0487 24.8135 15.1767 24.7936 15.3059C24.7658 15.4811 24.7461 15.6581 24.7236 15.8344C24.7085 15.9557 24.6897 16.0759 24.677 16.1975C24.656 16.3958 24.6436 16.5946 24.6301 16.7943C24.6226 16.8948 24.6116 16.995 24.6063 17.0967C24.5962 17.2933 24.5945 17.4904 24.5908 17.6875L35.5001 17.687C35.4153 13.0097 33.4459 8.5275 30.0488 5.30109L30.0488 5.30142Z" fill="white"/>
<path d="M29.0437 30.5917C28.93 30.4735 28.8194 30.353 28.7087 30.2319C28.6093 30.123 28.5096 30.0137 28.413 29.9031C28.3057 29.7798 28.2021 29.6535 28.0985 29.5277C28.005 29.4139 27.9109 29.3005 27.8205 29.1845C27.7202 29.0562 27.6239 28.9259 27.5273 28.7953C27.4397 28.6771 27.3515 28.5591 27.2673 28.4389C27.1738 28.3064 27.0845 28.1704 26.9952 28.0354C26.9143 27.9132 26.832 27.7916 26.7539 27.6675C26.6674 27.5305 26.5857 27.3906 26.5026 27.251C26.4279 27.1252 26.3524 27.0003 26.2808 26.8728C26.2018 26.7315 26.1271 26.588 26.0519 26.4445C25.9836 26.3151 25.914 26.1862 25.8494 26.055C25.7772 25.9099 25.7107 25.7633 25.643 25.6164C25.5812 25.4838 25.518 25.3519 25.4596 25.2176C25.3951 25.0688 25.3355 24.9169 25.2746 24.7661C25.2204 24.6318 25.1642 24.4982 25.1131 24.3623C25.0553 24.2092 25.0036 24.0536 24.9505 23.8983C24.9036 23.7624 24.8542 23.6271 24.8101 23.4895C24.7598 23.3314 24.7158 23.1713 24.6697 23.0118C24.6304 22.875 24.5883 22.7397 24.5523 22.6018C24.5091 22.4384 24.4731 22.273 24.4341 22.1081C24.4026 21.9722 24.3678 21.8371 24.3389 21.7004C24.303 21.5293 24.2743 21.3564 24.2434 21.1845C24.2196 21.0525 24.1926 20.9211 24.1718 20.7885C24.1432 20.6069 24.1227 20.4246 24.0996 20.2418C24.0836 20.1163 24.0645 19.9913 24.0511 19.866C24.0297 19.6619 24.0171 19.4561 24.0028 19.2508C23.9952 19.146 23.9839 19.0416 23.978 18.9363C23.9677 18.7296 23.9654 18.522 23.9618 18.3142L18.3145 18.3151V35.5018C22.4798 35.4271 26.4574 33.8865 29.5796 31.1297C29.5032 31.0573 29.4319 30.9803 29.3575 30.9068C29.2519 30.8023 29.1466 30.6984 29.0438 30.592L29.0437 30.5917Z" fill="white"/>
<path d="M12.0234 18.938C12.0175 19.0433 12.0063 19.1478 11.9987 19.2525C11.9843 19.4575 11.9717 19.6631 11.9504 19.8678C11.9369 19.9936 11.9178 20.1186 11.9018 20.2436C11.8788 20.4264 11.8583 20.6089 11.8296 20.7903C11.8086 20.9229 11.7819 21.054 11.758 21.1863C11.7274 21.3581 11.6985 21.5311 11.6625 21.7021C11.6339 21.8383 11.5993 21.9734 11.5673 22.1099C11.5283 22.2747 11.4918 22.4399 11.4491 22.6036C11.4132 22.7412 11.3708 22.8765 11.3317 23.0136C11.2857 23.1728 11.2416 23.3331 11.1913 23.4912C11.1478 23.6283 11.0978 23.7639 11.0509 23.9001C10.9976 24.0554 10.9462 24.211 10.8883 24.364C10.8372 24.4999 10.781 24.6336 10.7268 24.7678C10.6656 24.9189 10.6064 25.0706 10.5418 25.2194C10.4834 25.3536 10.4205 25.4856 10.3584 25.6182C10.291 25.765 10.2242 25.9116 10.152 26.0568C10.0874 26.188 10.0178 26.3169 9.94954 26.4463C9.874 26.5898 9.79986 26.733 9.72067 26.8746C9.64906 27.0023 9.57296 27.1273 9.49882 27.2528C9.41627 27.3924 9.33398 27.5322 9.24749 27.6693C9.16914 27.7934 9.08742 27.915 9.00626 28.0372C8.9164 28.1722 8.8271 28.3081 8.73415 28.4407C8.6499 28.5612 8.56173 28.6785 8.47411 28.7971C8.37779 28.9274 8.28118 29.0579 8.18093 29.1863C8.09023 29.302 7.99644 29.4157 7.90292 29.5294C7.7993 29.6552 7.69568 29.7813 7.5884 29.9049C7.49209 30.0161 7.39211 30.1248 7.2927 30.2337C7.18205 30.355 7.07169 30.4752 6.95768 30.5935C6.8549 30.6999 6.74959 30.8041 6.644 30.9083C6.56902 30.9821 6.49769 31.0588 6.42188 31.1312C9.54434 33.8881 13.5221 35.4289 17.687 35.5033L17.6867 18.3159H12.0397C12.0358 18.5234 12.0341 18.7309 12.0234 18.9379L12.0234 18.938Z" fill="white"/>
</svg>
