<svg width="32" height="32" viewBox="0 0 32 32" fill="none" xmlns="http://www.w3.org/2000/svg">
<path d="M2.66699 15.9998C2.66699 19.5361 4.07175 22.9274 6.57224 25.4279C9.07272 27.9284 12.4641 29.3332 16.0003 29.3332C19.5365 29.3332 22.9279 27.9284 25.4284 25.4279C27.9289 22.9274 29.3337 19.5361 29.3337 15.9998C29.3337 12.4636 27.9289 9.07223 25.4284 6.57175C22.9279 4.07126 19.5365 2.6665 16.0003 2.6665C12.4641 2.6665 9.07272 4.07126 6.57224 6.57175C4.07175 9.07223 2.66699 12.4636 2.66699 15.9998ZM12.507 20.6718C12.4296 20.7492 12.3377 20.8106 12.2366 20.8525C12.1355 20.8944 12.0271 20.9159 11.9177 20.9159C11.8082 20.9159 11.6998 20.8944 11.5987 20.8525C11.4976 20.8106 11.4057 20.7492 11.3283 20.6718C11.2509 20.5944 11.1895 20.5026 11.1477 20.4014C11.1058 20.3003 11.0842 20.192 11.0842 20.0825C11.0842 19.9731 11.1058 19.8647 11.1477 19.7636C11.1895 19.6624 11.2509 19.5706 11.3283 19.4932L18.155 12.6665H13.5417C13.3206 12.6665 13.1087 12.5787 12.9524 12.4224C12.7961 12.2661 12.7083 12.0542 12.7083 11.8332C12.7083 11.6122 12.7961 11.4002 12.9524 11.2439C13.1087 11.0876 13.3206 10.9998 13.5417 10.9998H20.167C20.388 10.9998 20.6 11.0876 20.7562 11.2439C20.9125 11.4002 21.0003 11.6122 21.0003 11.8332V18.4585C21.0003 18.6795 20.9125 18.8915 20.7562 19.0478C20.6 19.204 20.388 19.2918 20.167 19.2918C19.946 19.2918 19.734 19.204 19.5777 19.0478C19.4215 18.8915 19.3337 18.6795 19.3337 18.4585V13.8452L12.507 20.6718Z" fill="black"/>
</svg>
