<svg width="35" height="35" viewBox="0 0 35 35" fill="none" xmlns="http://www.w3.org/2000/svg">
<g id="Frame">
<path id="Vector" d="M11.3022 5.8335C11.3022 5.54342 11.1869 5.26522 10.9818 5.0601C10.7767 4.85498 10.4985 4.73975 10.2084 4.73975C9.91835 4.73975 9.64015 4.85498 9.43503 5.0601C9.22991 5.26522 9.11468 5.54342 9.11468 5.8335V8.48183C8.05076 8.6327 7.06545 9.1276 6.30918 9.89098C5.55292 10.6544 5.06725 11.6443 4.92635 12.7095L4.79947 13.6618L4.73822 14.146C4.72646 14.247 4.73627 14.3494 4.767 14.4464C4.79774 14.5433 4.84869 14.6327 4.91651 14.7085C4.98432 14.7843 5.06745 14.8448 5.1604 14.8861C5.25335 14.9274 5.35401 14.9486 5.45572 14.9481H29.5459C29.6476 14.9486 29.7483 14.9274 29.8412 14.8861C29.9342 14.8448 30.0173 14.7843 30.0851 14.7085C30.153 14.6327 30.2039 14.5433 30.2346 14.4464C30.2654 14.3494 30.2752 14.247 30.2634 14.146C30.2445 13.9856 30.2241 13.8222 30.2022 13.6618L30.0753 12.7095C29.9344 11.6443 29.4487 10.6544 28.6925 9.89098C27.9362 9.1276 26.9509 8.6327 25.887 8.48183V5.8335C25.887 5.54342 25.7717 5.26522 25.5666 5.0601C25.3615 4.85498 25.0833 4.73975 24.7932 4.73975C24.5031 4.73975 24.2249 4.85498 24.0198 5.0601C23.8147 5.26522 23.6995 5.54342 23.6995 5.8335V8.266C19.5757 7.89875 15.4274 7.89875 11.3036 8.266L11.3022 5.8335Z" fill="url(#paint0_radial_477_1312)"/>
<path id="Vector_2" d="M30.5451 17.8294C30.5382 17.6424 30.4589 17.4654 30.3239 17.3359C30.1889 17.2063 30.0088 17.1344 29.8217 17.1353H5.17881C4.9917 17.1344 4.81159 17.2063 4.67659 17.3359C4.54159 17.4654 4.46229 17.6424 4.45547 17.8294C4.36855 20.4686 4.52968 23.11 4.93672 25.719C5.08649 26.6802 5.55134 27.5645 6.25823 28.2329C6.96513 28.9012 7.87402 29.3158 8.84214 29.4115L10.5819 29.5836C15.183 30.0357 19.8176 30.0357 24.4186 29.5836L26.1584 29.4115C27.1265 29.3158 28.0354 28.9012 28.7423 28.2329C29.4492 27.5645 29.914 26.6802 30.0638 25.719C30.4708 23.11 30.632 20.4686 30.5451 17.8294Z" fill="url(#paint1_radial_477_1312)"/>
</g>
<defs>
<radialGradient id="paint0_radial_477_1312" cx="0" cy="0" r="1" gradientUnits="userSpaceOnUse" gradientTransform="translate(17.5008 9.84392) rotate(115.422) scale(21.8991 60.5968)">
<stop stop-color="#FFDF6F"/>
<stop offset="0.0001" stop-color="#FFDF6F"/>
<stop offset="0.319444" stop-color="#CEA61A"/>
</radialGradient>
<radialGradient id="paint1_radial_477_1312" cx="0" cy="0" r="1" gradientUnits="userSpaceOnUse" gradientTransform="translate(17.5003 23.529) rotate(111.224) scale(26.5784 64.013)">
<stop stop-color="#FFDF6F"/>
<stop offset="0.0001" stop-color="#FFDF6F"/>
<stop offset="0.319444" stop-color="#CEA61A"/>
</radialGradient>
</defs>
</svg>
