<svg width="35" height="35" viewBox="0 0 35 35" fill="none" xmlns="http://www.w3.org/2000/svg">
<g id="Frame">
<path id="Vector" d="M11.0365 5.94838C11.2471 5.73766 11.5061 5.58176 11.7909 5.49433C12.0757 5.4069 12.3776 5.3906 12.6702 5.44687C12.9627 5.50314 13.2371 5.63025 13.4691 5.81708C13.7012 6.00392 13.8839 6.24478 14.0013 6.51859L16.568 12.5051C17.6381 12.1875 18.7741 12.1649 19.8561 12.4395C20.938 12.7142 21.9257 13.2759 22.7148 14.0655L24.6938 16.0415C24.8986 16.2466 25.0137 16.5246 25.0137 16.8144C25.0137 17.1043 24.8986 17.3823 24.6938 17.5873L21.57 20.7126L29.9409 29.0819C30.0453 29.1829 30.1286 29.3036 30.1858 29.4371C30.2431 29.5705 30.2732 29.7141 30.2744 29.8593C30.2756 30.0045 30.2478 30.1485 30.1928 30.2829C30.1377 30.4173 30.0564 30.5394 29.9537 30.642C29.851 30.7447 29.7288 30.8258 29.5944 30.8808C29.4599 30.9357 29.3159 30.9633 29.1706 30.962C29.0254 30.9607 28.8819 30.9304 28.7485 30.873C28.6151 30.8157 28.4944 30.7323 28.3936 30.6278L20.0228 22.2584L16.9005 25.3821C16.7989 25.4838 16.6783 25.5644 16.5455 25.6194C16.4128 25.6744 16.2705 25.7027 16.1268 25.7027C15.9831 25.7027 15.8408 25.6744 15.7081 25.6194C15.5753 25.5644 15.4547 25.4838 15.3532 25.3821L13.3742 23.4046C12.5843 22.6152 12.0224 21.6269 11.748 20.5444C11.4736 19.4618 11.4968 18.3253 11.8153 17.2548L5.82879 14.6882C5.55515 14.5708 5.3144 14.3883 5.12761 14.1564C4.94082 13.9245 4.81367 13.6504 4.75727 13.3581C4.70087 13.0657 4.71694 12.764 4.80408 12.4793C4.89121 12.1946 5.04676 11.9356 5.25713 11.7248L11.0365 5.94838Z" fill="url(#paint0_radial_477_1317)"/>
</g>
<defs>
<radialGradient id="paint0_radial_477_1317" cx="0" cy="0" r="1" gradientUnits="userSpaceOnUse" gradientTransform="translate(17.4993 18.188) rotate(79.2402) scale(50.385 65.9532)">
<stop stop-color="#FFDF6F"/>
<stop offset="0.0001" stop-color="#FFDF6F"/>
<stop offset="0.319444" stop-color="#CEA61A"/>
</radialGradient>
</defs>
</svg>
