<svg width="1727" height="750" viewBox="0 0 1727 750" fill="none" xmlns="http://www.w3.org/2000/svg">
<mask id="mask0_648_5674" style="mask-type:luminance" maskUnits="userSpaceOnUse" x="0" y="0" width="1727" height="750">
<path d="M1727 0H0V750H1727V0Z" fill="white"/>
</mask>
<g mask="url(#mask0_648_5674)">
<path d="M1727 0H0V750H1727V0Z" fill="#6A3051"/>
<path d="M1829.68 555.401C1654.47 554.391 1528.9 417.191 1146.71 397.901C764.534 378.611 678.274 -105.499 463.758 -135.859" stroke="#D4A7C1" stroke-opacity="0.1" stroke-width="2"/>
<path d="M1768.8 566.934C1613.66 564.714 1455.9 418.904 1177.14 379.434C898.357 339.964 1008.74 -54.4556 881.297 -126.766" stroke="#D4A7C1" stroke-opacity="0.1" stroke-width="2"/>
<path d="M1771.56 456.339C1641.49 455.949 1515.67 362.589 1259.77 362.589C1003.88 362.589 1027.06 465.969 747.973 456.339C468.885 446.709 416.365 -38.0406 236.18 -84.8906" stroke="#D4A7C1" stroke-opacity="0.1" stroke-width="2"/>
<path d="M1785.6 171.847C1630.64 173.157 1490.24 330.097 1186.07 329.347C881.908 328.597 761.278 -20.5428 586.539 -34.3828" stroke="#D4A7C1" stroke-opacity="0.1" stroke-width="2"/>
<path d="M1927.08 125.553C1704.65 131.153 1516.43 448.633 1097.48 448.053C678.535 447.473 516.499 -84.6266 267.883 -109.727" stroke="#D4A7C1" stroke-opacity="0.1" stroke-width="2"/>
</g>
</svg>
